<?xml version="1.0" encoding="utf-8"?>
<!-- Generator: Adobe Illustrator 27.8.1, SVG Export Plug-In . SVG Version: 6.00 Build 0)  -->
<svg version="1.1" id="Слой_1" xmlns="http://www.w3.org/2000/svg" xmlns:xlink="http://www.w3.org/1999/xlink" x="0px" y="0px"
	 viewBox="0 0 500 285" style="enable-background:new 0 0 500 285;" xml:space="preserve">
<style type="text/css">
	.st0{fill:#2D4573;}
</style>
<g>
	<g>
		<path class="st0" d="M499.74,238.22h-0.22l-28.66-66.75l-22.56-32.59l-5.53,24.13l-5.26,12.69l-16.05-15.51l-35.62-33.71
			l-13.31-11.4l-15.36-0.67l-17.59-26.84l-24.05-23.11l-18.44-17.78l-12.28-23.12L265.82,10c0,0-27.82,52.87-30.19,55
			c-2.37,2.13-15.34,18.23-15.34,18.23l-13.93,17.03l-12.22,19.04l-22.78,4.82l-7.83,21.27l-35.31,8.46l-12.86-8.46l-19.31,24.68
			l-21.42,22.56l-19.04,14.81L38.02,216L0.48,238.22H0c-0.23,0.26,20.4,15.02,20.4,15.02l11.95-1.76l10.21,6.12l17.3-1.39l9.09,4.55
			l12.05-2.84l12.8,12.01l25.45-4.41l78.1,19.48l56.99-18.51l8.43,9.21l14.47-5.73l40.15,11.29l42.55-9.93l34.2-5.69l22.9-2.3
			l36.88-11.07l1.63-0.49L500,238.43L499.74,238.22z M460.59,164.7l4.44,6.37l2.73,3.35l0.68,4.36l3.07,4.36l-1.71,4.02l1.71,7.04
			l5.8,13.41l7.85,17.77l-9.56-14.75l-5.12-5.36v-5.36l-5.12-3.69l-0.68-8.05l-2.05-7.71l-3.41-0.34l-0.34,4.36l-3.75,2.01
			l1.71-13.08l-2.39-10.73l-0.68-7.38L460.59,164.7z M402.22,157.66l11.7,12.81l8.09,8.99l5.12,5.36l4.44,3.02l7.85,9.72
			l-13.99-8.38l-8.87-3.69l-2.39-5.36l-7.17-5.7l-2.05-5.7l-4.1-3.69l-1.37-3.35l-3.41-3.02l-3.41-6.04l-8.19-11.73L402.22,157.66z
			 M399.15,178.78l8.53,8.38v4.69l7.65,5.7l8.05,8.05l6.14,5.7l4.78,6.37l-8.92-3.82l-6.44-4.56l-4.78-5.36l-4.44-1.68l-2.33-4.69
			l-6.88-2.35l0-4.86l-0.69-2.85l-2.73-4.02l-3.11-4.69l-9.52-11.62L399.15,178.78z M272.52,24.55l6.49,4.02l6.14,13.75L293,52.38
			l7.85,8.38l12.63,13.08l7.85,9.72l12.63,11.06l5.46,8.38l3.41,7.71l2.73,4.36l2.05,2.01l-6.14-1.01l-3.41-3.35l-4.78-4.36
			l-7.85-7.04l-7.17,0.34l7.51,9.72l0.34,11.4l8.87,8.72l17.07,29.17l-15.02-11.73l-4.78-10.06l-12.63-8.05l1.02-8.05l-10.58-4.14
			l-5.8-11.95l-1.37-2.01l-5.46,45.6l9.85,10.39l-1.31,9.05l7.51,16.09l0.68,41.57l-4.44-32.52l-1.37-11.4l-7.85-5.36l-0.34-11.4
			l-9.56-5.36l-2.05-4.02V140.9l-0.34-23.13l4.1-9.39l-1.71-9.39l-10.24-10.06l-1.02-17.1l7.51,5.36l-3.75-13.08l-10.58-11.04
			l1.71-15.79L272.52,24.55z M215.86,198.9l4.1-15.42l2.73-14.75l4.87-8.09v9.83l-2.48,18.04l-1.02,15.09l-4.44,7.38l-3.58,16.43
			l0.85-20.12L215.86,198.9z M264.67,93.96l1.71-5.03l3.75-10.06v15.09l4.1,9.39l-1.71,6.52l4.78,3.21l-0.68,7.71l-0.34,25.48
			l1.37,13.08l2.39,6.71l-4.44,8.38l-1.37,20.79l-1.71,18.64l-2.39-33.34l-2.39-9.78l2.39-11.94l-3.41-7.84l3.41-12.95l-1.37-8.84
			l-0.34-7.04l-2.73-6.71l-2.73-3.69l3.41-9.05L264.67,93.96z M240.43,174.76l0.68-14.42l4.81-13.98l2.7-10.49l1.38-8.57l3.74-8.86
			l1.83-4.9v12.44v18.45v12.23l-3.88,14.41l-7.64,56.33l-3.28-2.35l-0.34-18.11l-3.41-14.08L240.43,174.76z M204.93,162.69l4.1-4.69
			l1.02-8.72l3.56-2.92l3.95-12.51l7.85-19.45l4.44-10.06l-2.3,6.76l-2.14,6.68v1.72v3.82l0.64,2.65l-0.64,3.08l-1.02,3.46
			l-3.75,4.69c0,0,0,0,0,2.68c0,2.68-3.41,4.69-3.41,4.69v5.03l-1.37,3.69l8.19-9.05l-2.34,7.33l-3.23,2.55l-5.35,12.25l-4.95,2.18
			l-0.85,5.2l-4.44,3.35l-1.37,4.69l-2.73,3.69l0.34,5.7l-2.39,5.36l2.05,4.02l-5.46,6.18l-2.39,4.55l-8.19,11.4l0.36-7.84
			l4.76-7.58l4.1-7.04l0.08-6.22l6.06-13.56l3.41-9.05L204.93,162.69z M196.4,138.21l4.1-5.7l-0.68,4.69l-0.68,4.02l-2.39,3.69
			l-10.25,15.72l3.08-12.7l2.39-3.02L196.4,138.21z M168.75,172.75l4.1-14.08l2.05-11.06l-0.68-9.39l4.44-7.38l1.19-1.93l13.48-4.8
			l-3.75,4.04l-1.91,2.68l-2.52,1.68l-0.34,2.68l8.53-2.68l-5.12,4.36l-3.07,3.69l-2.73,2.01l-0.68,6.04l-1.71,2.35v5.36l-3.13,4.32
			l-10.52,23.51L168.75,172.75z M91.61,199.57l11.95-18.44l2.05-5.03l5.12-5.7l-0.34-6.71l3.07-4.36l3.07-6.04
			c0,0,5.8,3.69,6.49,4.69l6.83,1.34l-5.12,4.02l-4.95,0l2.22,5.37l-3.41,2.75l-3.42,6.31l-5.8,3.35l-3.41,7.71l-4.1,2.35
			l-3.41,6.37l-17.71,17.3L91.61,199.57z M125.06,176.77l-1.37,5.03l-1.02,3.69l-2.39,4.02l-2.05,3.69l-2.39,7.04h-2.39l-3.75,6.71
			l-2.39,1.34l-3.41,4.02l-2.57,2.55l-7.67,5.16l-9.45,7.38l6.72-6.71l3.41-4.36l3.07-2.68l2.05-5.03l4.78-3.02l2.73-6.37l4.44-4.02
			l1.71-3.35l6.12-7.71L125.06,176.77z M92.83,245.74l20.63-21.36l1.02-3.69l3.41-3.35l3.07-6.71l4.1-3.95l2.27-4.6l7.63-8.88
			l5.76-9.05l-10.12,17.94l-3.15,8.21l-2.39,5.41l-1.02,8l-4.18,3.69l-1.63,6.04l-3.07,3.02l-0.6,1.77L92.83,245.74z M369.9,234.1
			l-7.61-3.35l-5.8-2.01l-2.39-4.36l-5.12-1.68l-7.85-3.69l-6.83-7.38l-2.73-2.01l7.51,1.01l2.39,3.02l7.51-0.34l0.34-4.69
			l-5.8-13.41l-10.45-2.79l3.96-5.59l-5.12-6.04l-1.02-4.69l0.68-11.09V154.3l2.05-1.67l3.3,8c0.8,0.71,10.02,17.14,10.02,17.14
			l-1.02,3.69l12.06,8.88l0.23,9.56l8.87,7.38l2.26,6.57l4.23,4.83l1.71,5.7l-0.25,3.02l5.71,6.04l3.75,4.79L369.9,234.1z"/>
	</g>
</g>
</svg>
