<?xml version="1.0" encoding="utf-8"?>
<!-- Generator: Adobe Illustrator 27.8.1, SVG Export Plug-In . SVG Version: 6.00 Build 0)  -->
<svg version="1.1" id="Слой_1" xmlns="http://www.w3.org/2000/svg" xmlns:xlink="http://www.w3.org/1999/xlink" x="0px" y="0px"
	 viewBox="0 0 500 285" style="enable-background:new 0 0 500 285;" xml:space="preserve">
<style type="text/css">
	.st0{fill:#2D4573;}
</style>
<g>
	<path class="st0" d="M499.74,238.35h-0.22l-66.75-38.92l-9.58-15l-33.95,6.38l-21-16.75l-15.25-17.68c0,0-10.79,10.03-14.11,5.69
		s-21.76-15.06-21.76-15.06l-13.38-16.39L282.71,98.1l-13.56,13.92l-21.31-17.35l-21.58-32.9L221.84,55l-9.41,14.37l-22.41,39.58
		l-11.62,18.7l-15.77-6.23l-3.87-15.18l-8.3-9.22l-18.54,26.29l-11.07,29.82l-13.95,12.59l-22.36,8.34l-5.75-19.03
		c0,0-31.64,32.61-34.93,35.66c0.67,0.78-8.61,27.8-10.44,28.31c-1.94,0.54-16.05-0.54-16.05-0.54L0.48,238.35H0
		c-0.23,0.26,20.4,14.98,20.4,14.98l11.95-1.75l10.21,6.1l17.3-1.39l9.09,4.54l12.05-2.83l12.8,11.98l25.45-4.4l78.1,19.43
		l56.99-18.47l8.43,9.19l14.47-5.71l40.15,11.26l42.55-9.9l34.2-5.67l22.9-2.29l36.88-11.04l1.63-0.48L500,238.56L499.74,238.35z
		 M393.11,197.96l-4.98,2.61l-0.77-3.49l-6.42,1.97l11.62-5.15l28.92-6.91l-7.62,8l-5.53,2.17l-4.15,3.25l9.13-1.36l-2.77,2.98
		l-4.7,0.27l-3.32,1.9l-3.87-0.81l-3.32,2.44l-7.19,1.36l-11.07,4.88c0,0,14.94-8.67,15.22-9.22c0.28-0.54,3.6-4.07,3.6-4.07
		L393.11,197.96z M354.65,205.28l6.64-4.07l-1.38,3.52l-2.21,1.9l-1.66,2.44l-5.23,4.07l13.25-6.51l-3.72,5.42h-3.28l-5.46,5.42
		l-17.16,4.07l2.21-3.52l6.09-1.63l4.7-5.15L354.65,205.28z M318.41,195.52l4.7-5.42l4.4-3.12l2.24-3.66l3.32-1.63l6.36-7.05
		l-7.47,2.71l-0.55-2.17l4.15-3.25l3.87-1.36l1.52-1.75l-0.14-0.69l2.49-0.81c0,0,7.19-3.52,9.13-6.51c0,0-0.55,8.73,0,9.38
		c0.55,0.65,0,2.88,0,2.88l-4.57,1.65l-2.35,6.69l-3.04,0.54l-1.11,2.44l-3.6,1.08l-0.83,3.8l-4.43,2.98c0,0-0.83,2.17-1.38,2.44
		c-0.55,0.27-2.49-0.54-2.49-0.54l-2.77,2.17l-12.73,11.93l-1.66-1.63l-7.19,6.51L318.41,195.52z M293.5,175.19l7.47-8.4l4.98-7.32
		l-2.77,7.59l-1.12,8.13l-6.63,1.9l-4.98,4.07l-1.94,0.81L293.5,175.19z M260.91,146.67c0.22,0.05,1.33-6.19,1.33-6.19l3.57-3.99
		v-5.67l2.8-8.5l-4.7,1.36l4.98-6.78c0.28-0.54,12.73-12.74,12.73-12.74s-1.38,6.51-1.38,7.05c0,0.54,0,2.44,0,2.44l-1.29,3.25
		l-2.3,2.71l-1.38,3.29l3.87-1.12l-2.77,4.34l1.66,4.07l-1.66,0.81l1.66,4.34l0.83,1.9l-3.6,1.82l-0.83,2.79l-4.7,1.08l-8.3,10.03
		l-5.53,7.05l-5.87,8.82C250,168.83,260.69,146.62,260.91,146.67z M277.47,174.1l-1.12,3.8l-12.73,9.76l11.9-13.55H277.47z
		 M182.27,154.58l3.23-7.91l4.79-3.2l11.34-21.69l-16.88,7.32L195,113.38l4.15-2.17c0,0,1.94-4.88,2.21-5.69
		c0.28-0.81,8.02-15.18,8.02-15.18l-5.81,2.71l16.88-29.01c0,0,5.53,10.3,5.53,11.11c0,0.81,1.11,10.84,1.11,10.84l-2.77,12.2
		l5.26,1.08l1.38,13.55l-7.47,9.76l1.66,4.61l12.45-6.78l-5.26,6.78l-4.7,5.96l-3.7-0.58l-5.99,6l-4.98,0.81l-0.55,2.71l-4.74,3.25
		l-3.29,9.22l19.55-9.22l-11.25,11.66l-20.2,19.52l-8.85,7.32l-3.6,10.03l-20.75,32.8l9.68-23.64l4.98-15.94l6.64-8.95l4.7-15.72
		l-16.33,16.54l6.92-20.6L182.27,154.58z M228.75,155.13l-8.02,15.99l-2.21,7.32l-2.49,1.08l-1.66,5.96l-3.6,1.49l-5.26,2.3
		l8.02-10.57l3.12-8.67l5.46-5.15L228.75,155.13z M161.52,152.14l4.43-8.95l5.26-6.23l-4.7,13.82l-0.28,3.25l-5.81,3.8l-3.6,2.71
		L161.52,152.14z M107.28,194.43l4.43-8.67l2.77-8.4l5.26-9.76l3.04-6.78l4.15-2.17l3.6-8.13l-4.7,2.17l7.75-23.04l6.92-8.95
		l-5.26,2.44l14.11-17.89l-0.55,22.77l8.58,1.08l-9.13,7.05l-3.04,6.78l-4.43,2.98l-3.18,7.6c0,0,13.42-2.45,13.14-2.18
		c-0.28,0.27-17.43,9.49-17.43,9.49l-7.47,7.55l-3.6,3.56l-3.04,7.32l-13.28,21.42L107.28,194.43z M140.49,210.16l-3.87,4.94
		l-3.32,0.21l-2.49,5.42l-5.81,1.08l-8.85,11.39l6.64-17.08l-2.49,0.54l3.87-11.93l16.05-16.26l8.58-10.03l4.15-8.4l-7.47,35.78
		l-9.68,4.34H140.49z M124.44,191.72l6.09-7.86l8.85-8.95l2.69-4.88l5.89-7.59l-3.87,10.84l-1.94,5.69l-1.38,1.36l-4.15,2.98
		l-4.15,2.44l-3.6,2.71L124.44,191.72z M81.55,211.51l3.87-5.42l4.48-4.47l4.65-2.3l-1.38,5.96l-3.26,2.24l-12.78,8.6L81.55,211.51z
		 M94.55,211.29l-0.83,1.48l-6.96,3.35l1.43-2.44l5.53-4.88L94.55,211.29z M42.54,214.49l1.66-5.96l4.7-11.39l2.77-1.9l5.53-7.59
		l-6.64,1.36l22.69-23.04l2.49,9.49l-2.77,1.08l-1.66,4.88l-5.53,6.51l12.73-2.44l-6.92,4.61l-2.49,4.88l-30.71,27.65L42.54,214.49z
		 M14.87,227.5l3.14-4.34l1.85,1.08l1.66-2.44c0,0,4.98,1.08,5.26,1.36l-3.04,2.98l-13.56,8.4L14.87,227.5z M178.82,246.08
		l14.8-13.42l-2.21-1.63l6.09-2.98l0.97-3.68l4.29-0.92l2.77-7.32l6.92-5.15l15.22-17.89l3.76-6.1l-10.4,18.57l-3.01,7.12l1.19,2.37
		l-4.55,2.17l0.28,4.88l-4.15,2.43v3.5l-2.77,2.2l2.77,2.98l-4.15,1.63l-3.32,0.27l-5.74,1.91L178.82,246.08z M223.56,252.44
		l21.52-24.94h-5.11l3.17-3.52l4.7-3.52c0,0,2.21-2.71,3.32-4.07c1.11-1.36,5.42-3.25,5.42-3.25l2.61-5.15l4.43-0.81l15.5-15.45
		l-9.68,16.26l-2.49,4.61l5.01,2.44l-3.62,4.07l-0.28,4.07l1.11,0.54l3.87-0.27l-2.49,4.61l-3.6,3.52l-4.15-0.54l-3.32,3.8h9.68
		l-5.53,2.94L223.56,252.44z"/>
</g>
</svg>
