<?xml version="1.0" encoding="utf-8"?>
<!-- Generator: Adobe Illustrator 27.8.1, SVG Export Plug-In . SVG Version: 6.00 Build 0)  -->
<svg version="1.1" id="Слой_1" xmlns="http://www.w3.org/2000/svg" xmlns:xlink="http://www.w3.org/1999/xlink" x="0px" y="0px"
	 viewBox="0 0 500 285" style="enable-background:new 0 0 500 285;" xml:space="preserve">
<style type="text/css">
	.st0{fill:#2D4573;}
</style>
<g>
	<g>
		<path class="st0" d="M499.74,238.77h-0.35l0.13-32.48c0,0-16.37-30.7-17.72-31.57c-1.35-0.88-20.75-6.13-21.65-7.44
			c-0.9-1.31-15.34-18.83-15.34-18.83s-12.63-7.01-14.88-9.63c-2.26-2.63-17.59-17.51-17.59-17.51l-27.97-39.41l-7.67,8.32
			l-16.24,25.83c0,0-10.37-19.27-11.73-21.02c-1.35-1.75-13.53-32.4-15.34-35.03c-1.8-2.63-27.51-17.08-27.51-17.08l-13.08-21.02
			c0,0-8.12-2.19-13.98-11.82C272.96,0.44,268,0,268,0l-19.4,9.2l-10.37,17.51l-10.83,17.95L218.39,74L202.6,90.2
			c0,0-11.73,0.44-12.63-0.88c-0.53-0.78-4.83-2.31-8.27-3.44l-7.06-5.31l-19.4-14.45l-6.77,2.63l-8.04,11.38l-25.79,30.65
			l-9.92,5.69l-22.1,17.51c0,0-14.44,25.08-20.88,36.3c-3.26,1.31-7.86,3.31-8.44,4.43c-0.9,1.75-52.82,37.17-52.82,37.17v26.89H0
			c-0.23,0.25,20.4,14.84,20.4,14.84l11.95-1.74l10.21,6.05l17.3-1.38l9.09,4.5l12.05-2.81l12.8,11.87l25.45-4.36l78.1,19.25
			l56.99-18.3l8.43,9.11l14.47-5.66l40.15,11.15l42.55-9.81l34.2-5.62l22.9-2.27l36.88-10.94l1.63-0.48L500,238.98L499.74,238.77z
			 M389.79,142.75l7.67,2.19l9.02,9.2l8.57,14.45l-15.79-13.14l-4.22-1.95l-1.65-6.37L389.79,142.75z M416.36,153.49l7.26,5.02
			l8.14,9.2l-11.52-8.53L416.36,153.49z M469.62,176.03l9.47,3.07l8.57,16.64l0.9,4.82l-10.37-8.76c0,0-7.67-4.38-7.67-5.69
			s-3.16-7.01-3.16-7.44S469.62,176.03,469.62,176.03z M384.37,91.08v-3.32l19.85,29.59l8.8,13.14l28.64,33.28l-21.42-15.79
			l-15.11-4.79l-6.31-8.32l-8.12-2.19c0,0,0,0,0.21-2.19c0.21-2.19-2.81-11.1-2.81-11.1l-0.55-6.85l9.02,7.88l-6.77-10.07
			l-5.41-6.06l1.35-2.7C385.73,101.59,384.37,91.95,384.37,91.08z M349.19,116.47l7.67,14.45l8.12,7.44l8.9,15.12
			c0,0-17.92-14.69-20.17-15.56s-5.86-2.63-5.86-2.63l-3.16-11.38c0,0-1.35-7.44-1.8-8.76c-0.45-1.31-1.8-10.07-1.8-10.07
			L349.19,116.47z M333.4,130.49l12.63,18.83c0,0-14.88-10.95-14.88-11.82S333.4,130.49,333.4,130.49z M261.24,51.55l4.96,0.12
			l10.83,7.44c0,0-1.35-4.38-0.9-4.38c0.45,0-14.88-9.51-14.88-9.51V27.16l2.26-7.02l-0.45-4.38L268,5.69l8.12,13.14l13.53,7.88
			l8.57,16.2l14.43,9.2l12.18,16.2l-18.04-10.95l0.45,3.94l2.71,8.76l7.22,5.33l0.9,6.49l13.8,35.03l-19.67-32.4l-9.47-2.63
			l-3.61-9.63l-13.08-16.64l0.45,6.13l-3.16,8.76l8.12,10.07l1.35,19.27l61.45,137.72c0,0-53.78-82.11-54.23-81.24
			c-0.45,0.88-11.28-13.57-11.28-13.57l-7.12-19.7l12.98,14.89l-8.14-18.55c0,0-7.64-17.8-8.1-18.67
			c-0.45-0.88-15.34-16.2-15.34-16.2l-2.71-9.63l2.71-12.7L261.24,51.55z M195.38,95.46l1.35,5.25l4.06,4.38l4.96,10.07l4.96,7.88
			l-13.53-15.33l-6.31-4.82l-1.8-2.63l-0.65-4.82H195.38z M183.66,93.71c0,0-1.8,3.5-1.8,4.38s11.84,13.14,11.84,13.14l-1.01,3.5
			l3.61,6.57l9.02,9.63l39.5,49.71l-67.02-68.54l-5.86-0.88l-1.35-5.69l-7.67-2.19l-3.16-16.2c0,0-3.16-1.75-3.16-2.63l-1.35-12.26
			L183.66,93.71z M116.9,116.91l17.14,21.02l2.26,4.38l4.51,1.31l5.86,10.95l-7.56-7.88l-4.62-2.19l-4.51-3.94l-5.86-1.75
			l-6.31-10.51l-9.02-6.13L116.9,116.91z M104.72,125.67l2.71,5.25l3.4,4.82l2.02,5.25l2.26,3.5l-6.31-5.34l-4.96-6.04
			c0,0-3.61-2.63-3.61-3.07S104.72,125.67,104.72,125.67z"/>
	</g>
</g>
</svg>
