<?xml version="1.0" encoding="utf-8"?>
<!-- Generator: Adobe Illustrator 27.8.1, SVG Export Plug-In . SVG Version: 6.00 Build 0)  -->
<svg version="1.1" id="Слой_1" xmlns="http://www.w3.org/2000/svg" xmlns:xlink="http://www.w3.org/1999/xlink" x="0px" y="0px"
	 viewBox="0 0 500 285" style="enable-background:new 0 0 500 285;" xml:space="preserve">
<style type="text/css">
	.st0{fill:#2D4573;}
</style>
<g>
	<g>
		<path class="st0" d="M499.74,238.4h-1.39c0.28,0,0.44-0.17,0.5-0.37c0.37,0.07,0.83-0.34,0.61-0.79c-1.43-3.03-2.88-6.07-5-8.71
			c-1.04-1.3-2.31-2.34-3.47-3.54c-0.61-0.63-1.08-1.32-1.47-2.1c-0.37-0.76-0.69-1.54-1.12-2.26c-0.89-1.48-2.15-2.68-3.37-3.88
			c-1.25-1.23-2.48-2.49-3.68-3.77c-2.44-2.61-4.76-5.32-6.95-8.13c-1.82-2.33-3.54-4.72-5.18-7.17c0.01-0.13-0.02-0.27-0.13-0.4
			c-0.4-0.49-0.78-1.01-1.14-1.53c-0.06-0.09-0.12-0.19-0.18-0.28c-1.08-1.68-1.88-3.53-2.39-5.45c-0.35-1.35-0.56-2.73-0.61-4.12
			c-0.05-1.42,0.11-2.82,0.29-4.23c0.34-2.69,0.45-5.68-1.78-7.66c-0.88-0.77-2.03-1.3-3.23-1.17c-1.03,0.11-1.89,0.68-2.64,1.34
			c-1.16,1.03-2.8,3.56-4.62,2.3c-0.56-0.39-1-0.97-1.41-1.5c-0.46-0.6-0.87-1.24-1.25-1.89c-0.71-1.21-1.31-2.47-1.9-3.74
			c-2.76-5.92-5.51-11.85-8.27-17.78c-2.7-5.8-5.29-11.65-8.14-17.38c-1.34-2.7-2.8-5.35-4.53-7.83c-1.67-2.38-3.6-4.58-5.11-7.07
			c-1.52-2.5-2.35-5.27-3.11-8.06c-0.74-2.68-1.44-5.46-2.82-7.91c-2.3-4.08-7.23-7.97-12.22-6.07c-1.34,0.51-2.5,1.34-3.6,2.22
			c-1.2,0.96-2.35,1.97-3.53,2.95c-0.01,0.01-0.03,0.02-0.05,0.04c-2.53,2.13-5.07,4.26-7.61,6.39c-1.57,1.32-3.18,2.62-4.77,3.96
			c-4.89-6.47-9.94-12.81-15.16-19.02c-1.79-2.13-3.61-4.25-5.44-6.35c-1.54-1.76-3.09-3.67-5.24-4.74
			c-2.35-1.18-4.99-1.15-7.5-1.74c-2.44-0.57-4.74-1.5-6.88-2.79c-4.34-2.61-7.4-6.64-10.36-10.61c-3.22-4.32-6.58-8.58-9.54-13.08
			c-2.65-4.05-5.02-8.55-5.16-13.45c-0.08-2.56,0.24-5.13-0.96-7.51c-1.08-2.15-3.13-3.55-5.12-4.83
			c-9.87-6.34-19.79-12.6-29.69-18.9c-2.57-1.64-5.15-3.28-7.72-4.91c-1.19-0.76-2.37-1.51-3.56-2.27
			c-1.22-0.77-2.51-1.88-3.86-2.39c-1.95-0.74-4.73,0.55-6.32,1.66c-1.79,1.25-3.27,2.92-4.28,4.83c-2.5,4.72-2.04,10.04-1.26,15.12
			c0.19,1.24,0.53,2.52,0.54,3.78c0.02,1.25-0.54,2.07-1.31,3.02c-1.65,2.04-3.42,3.99-5.16,5.95c-3.56,3.98-7.13,8-10.05,12.46
			c-2.8,4.28-4.99,8.91-7.91,13.12c-5.03,7.23-13.54,12.28-16.02,21.09c-0.67,2.37-0.57,5.02-1.62,7.27
			c-0.65,1.41-1.84,2.46-3.12,3.33c-2.93,1.98-6.38,3.33-8.89,5.88c-0.01,0.02-0.03,0.04-0.05,0.05
			c-6.81-2.94-13.51-6.16-20.05-9.64c-3.3-1.76-6.57-3.58-9.8-5.47c-3.02-1.77-6.28-3.49-8.67-6.08c-0.76-0.82-1.33-1.78-1.88-2.75
			c-0.92-1.63-1.76-3.31-3.25-4.48c-2.05-1.6-4.9-1.69-7.29-0.84c-5.62,2.01-7.8,8.47-9.84,13.41c-2.3,5.59-4.72,11.76-10,15.31
			c-4.73,3.18-11.06,3.84-14.9,8.31c-2.2,2.57-3.46,5.43-7.19,6.02c-1.45,0.23-2.89,0.28-4.29,0.47c-1.53,0.21-3,0.59-4.36,1.57
			c-4.94,3.54-5.26,10.03-6.57,15.34c-0.82,3.33-2.36,6-4.53,8.66c-1.7,2.08-3.54,4.13-4.56,6.63c-0.48,1.17-0.73,2.4-0.73,3.66
			c0,1.98,0.64,3.92,0.38,5.92c-0.4,3.08-2.69,5.44-4.93,7.44c-1.12,1.01-2.28,1.97-3.4,2.96c-1.19,1.05-2.35,2.14-3.42,3.34
			c-2.19,2.47-4.07,5.18-5.82,7.97c-3.91,6.23-7.51,12.65-11.23,18.99c-0.55-0.51-1.09-1.02-1.64-1.53
			c-0.62-0.58-1.39-1.15-1.82-1.9c-0.38-0.68-0.48-1.48-0.87-2.16c-0.36-0.66-0.86-1.23-1.3-1.83c-0.47-0.62-0.85-1.26-1.03-2.02
			c-0.19-0.77-0.24-1.58-0.55-2.32c-0.53-1.24-1.73-1.98-2.37-3.14c-0.35-0.64-0.1-1.23-0.19-1.9c-0.09-0.67-0.6-1.16-1.2-1.46
			c-0.66-0.33-1.44-0.59-2.18-0.63c-0.81-0.05-1.46,0.35-1.97,0.94c-2.33,2.64-4.57,5.44-6.46,8.4c-1.65,2.58-2.82,5.48-4.61,7.97
			c-0.05,0.04-0.09,0.08-0.13,0.13c-0.08,0.12-0.16,0.24-0.24,0.36c-0.28,0.36-0.57,0.71-0.88,1.05c-0.14,0.15-0.17,0.33-0.13,0.48
			c-5.27,8.02-10.53,16.04-15.8,24.06c-0.9,0.88-1.69,1.85-2.36,2.91c-0.81,1.3-1.35,2.69-1.84,4.14c-0.25,0.73-0.51,1.45-0.92,2.12
			c-0.38,0.62-0.87,1.16-1.4,1.66c-1.09,1.04-2.29,1.95-3.28,3.09c-1.13,1.29-2.06,2.73-2.76,4.28c-0.06,0.13-0.06,0.26-0.02,0.37
			c-0.19,0.31-0.05,0.82,0.43,0.82H0c-0.23,0.26,20.4,14.96,20.4,14.96l11.95-1.75l10.21,6.1l17.3-1.39l9.09,4.54l12.05-2.83
			l12.8,11.97l25.45-4.4l78.1,19.41l56.99-18.45l8.43,9.18l14.47-5.71l40.15,11.24l42.55-9.89l34.2-5.67l22.9-2.29l36.88-11.03
			l1.63-0.48l44.45-13.3L499.74,238.4z M405.65,200.99c-0.21-0.16-0.33-0.4-0.22-0.66c0.09-0.22,0.39-0.4,0.63-0.3
			c1.88,0.75,3.77,1.51,5.5,2.58c2.97,1.84,5.17,4.67,8.28,6.31c0.73,0.39,1.51,0.69,2.32,0.88c0.86,0.19,1.78,0.1,2.61,0.4
			c0.8,0.28,1.43,0.9,2.06,1.42c0.75,0.62,1.5,1.23,2.25,1.84c0.01,0.01,0.03,0.03,0.04,0.05c0.45,0.21,0.88,0.46,1.3,0.76
			c0.81,0.59,1.55,1.27,2.32,1.92c1.46,0.83,2.87,1.76,4.21,2.77c0.01,0,0.01,0,0.02,0.01c0,0,0,0,0,0
			c0.04,0.02,0.08,0.05,0.11,0.08c0.41,0.31,0.06,0.83-0.35,0.88c-0.15,0.11-0.35,0.14-0.56,0.03c-1.5-0.81-3.03-1.58-4.58-2.29
			c-2.49-1.15-5.06-2.05-7.59-3.06c-1.56-0.35-3.07-0.93-4.46-1.73c-1.83-1.05-3.36-2.48-4.74-4.04c-0.64-0.6-1.27-1.21-1.91-1.8
			c-0.93-0.87-1.89-1.72-2.86-2.55c-0.27-0.15-0.54-0.29-0.82-0.43c-0.23-0.11-0.3-0.3-0.26-0.48
			C407.87,202.69,406.78,201.82,405.65,200.99z M399.2,136.01c0.88-0.05,1.77-0.11,2.65-0.16c-0.09-1.66,0.25-3.31,0.97-4.83
			c0.09-0.18,0.23-0.26,0.37-0.27c1.08-3.95,2.16-7.9,3.24-11.86c0.06-0.23,0.28-0.37,0.52-0.39c0.86-0.06,1.71-0.11,2.56-0.16
			c0.23-2.44-1.01-4.74-1.36-7.12c-0.29-2-0.1-4.23,1.5-5.69c0.25-0.23,0.66-0.19,0.85,0.11c0.4,0.66,0.77,1.32,1.1,2.01
			c0.68,1.39,1.24,2.84,1.66,4.33c0.43,1.54,0.64,3.12,0.93,4.68c0.3,1.59,0.81,3.03,1.67,4.42c0.84,1.35,1.82,2.6,2.72,3.91
			c3.6,5.27,6.6,10.92,8.96,16.83c0.6,1.51,1.16,3.03,1.85,4.5c0.69,1.46,1.54,2.83,2.43,4.17c0.87,1.3,1.75,2.59,2.5,3.96
			c0.77,1.41,1.34,2.91,1.82,4.43c0.43,1.36,0.8,2.73,1.24,4.08c0.06,0.19,0.13,0.39,0.19,0.58c0.52,1.54,1.15,3.04,1.84,4.52
			c1.38,2.94,2.99,5.76,4.61,8.58c3.4,5.93,6.72,11.9,10.36,17.7c0.29,0.46-0.28,0.97-0.73,0.72c-0.65-0.35-1.29-0.72-1.91-1.12
			c-4.98-3.15-9.04-7.47-13.16-11.6c-2.21-2.21-4.47-4.39-6.59-6.68c-1-1.08-1.95-2.2-2.77-3.42c-0.82-1.2-1.51-2.47-2.25-3.73
			c-0.71-1.21-1.47-2.38-2.4-3.43c-0.79-0.91-1.67-1.75-2.55-2.58c-1.74-1.64-3.54-3.25-4.87-5.23c-0.66-0.98-1.17-2.05-1.49-3.19
			c-0.36-1.29-0.45-2.69-1.05-3.91c-0.62-1.24-1.76-2.03-2.94-2.72c-1.01-0.6-2.05-1.15-3.09-1.71c-1.71-0.93-3.48-1.91-5.08-3.08
			c-2.13-1.55-3.94-3.45-4.83-6C398.56,136.33,398.87,136.02,399.2,136.01z M354.74,174.35c4.55,2.01,8.58,4.97,12.44,8.02
			c4.31,3.42,8.56,6.91,12.84,10.36c4.36,3.52,8.77,6.99,13.07,10.58c0.92,0.77,1.82,1.57,2.64,2.46c0.77,0.83,1.36,1.77,2.04,2.66
			c0.78,1.03,1.84,1.54,2.99,2.11c1.16,0.58,2.31,1.18,3.44,1.82c4.42,2.48,8.59,5.39,12.44,8.65c0.39,0.34-0.02,1.07-0.52,0.88
			c-4.63-1.73-9.26-3.47-13.9-5.21c-3.82-1.43-7.72-2.73-11-5.19c-1.54-1.15-3.01-2.39-4.58-3.51c-1.56-1.11-3.18-2.15-4.84-3.11
			c-3.29-1.9-6.76-3.49-10.35-4.74c-0.07-0.02-0.14-0.05-0.21-0.07c-1.17-0.25-2.35-0.28-3.57-0.16c-1.44,0.15-2.78,0.39-4.05,1.06
			c-0.19,0.43-0.58,0.73-1.15,0.61c-0.72-0.14-1.21-0.73-1.84-1.05c-0.71-0.37-1.5-0.55-2.25-0.79c-0.79-0.25-1.56-0.56-2.26-1.01
			c-1.49-0.95-2.74-2.22-4.15-3.28c-1.46-1.1-3.01-2.1-4.62-3c-0.47-0.26-0.26-0.84,0.16-0.95c0.09-0.09,0.21-0.15,0.38-0.13
			c2.79,0.32,5.61,0.31,8.39-0.05c-3.34-2.58-6.75-5.04-10.41-7.21c-6.96-4.13-14.41-7.37-21.47-11.32
			c-3.29-1.84-6.29-4.11-9.53-6.03c-3.03-1.8-6.46-3.28-10.08-2.69c-0.24,0.04-0.48-0.02-0.61-0.24c-1.52-2.53-3.37-4.85-5.38-7.03
			c-1.85-2.01-3.79-3.95-5.76-5.86c-1.97-1.91-3.96-3.79-5.92-5.7c-4.16-4.05-8.33-8.1-12.49-12.16c-0.44-0.43,0.12-1.1,0.65-0.82
			c3.09,1.59,6.18,3.19,9.28,4.79c0.19-0.15,0.48-0.2,0.71,0.01c0.32,0.29,0.64,0.57,0.97,0.85c0.03,0.01,0.06,0.03,0.09,0.05
			c0.11,0.06,0.19,0.14,0.23,0.23c0.46,0.39,0.93,0.77,1.41,1.14c7.68,5.95,16.99,9.44,24.91,15.04c4.24,2.99,8.2,6.34,12.53,9.21
			c4.36,2.89,9.12,5.13,14.19,6.56c0.82,0.23,1.64,0.44,2.47,0.64C346.35,171.81,350.69,172.57,354.74,174.35z M179.71,167.68
			c-0.31-0.36-0.03-1.08,0.52-0.88c1.46,0.53,2.9,1.11,4.31,1.74c4.94,2.19,9.58,4.98,13.83,8.28c0.04,0.03,0.07,0.06,0.09,0.09
			c3.52,1.39,6.93,3.07,10.14,5.05c1.73,1.07,3.36,2.28,5.16,3.23c0.86,0.46,1.77,0.83,2.73,1.06c0.92,0.21,1.86,0.24,2.8,0.3
			c0.57,0.04,1.14,0.09,1.69,0.2c1.2,0.23,2.31,0.69,3.16,1.69c0.65,0.76,1.21,1.57,1.9,2.3c0.68,0.71,1.41,1.38,2.18,2.01
			c1.56,1.28,3.25,2.39,4.93,3.51c1.92,1.28,3.83,2.57,5.74,3.84c3.88,2.6,7.76,5.19,11.64,7.79c0.57,0.39,0.08,1.2-0.54,0.91
			c-0.66-0.3-1.33-0.6-2-0.88c-2.62-1.06-5.34-1.87-8.12-2.42c-2.62-0.52-5.3-0.79-7.88-1.52c-1.26-0.36-2.5-0.84-3.65-1.49
			c-1.04-0.59-2-1.29-3.02-1.91c-0.99-0.6-2.08-1.15-3.25-1.23c-1.33-0.09-2.59,0.42-3.88,0.59c-0.17,0.02-0.34,0.04-0.51,0.04
			c-1.11,0.05-2.11-0.26-3.02-0.94c-1.12-0.84-2.11-1.89-3.13-2.85c-2.19-2.05-4.38-4.1-6.57-6.15c-0.97-0.91-1.9-1.89-3.18-2.4
			c-0.63-0.25-1.26-0.47-1.85-0.8c-0.56-0.32-1.07-0.7-1.56-1.1c-1.11-0.91-2.13-1.93-3.18-2.9c-1.09-1.01-2.17-2.01-3.26-3.02
			C187.72,175.9,183.45,172.03,179.71,167.68z M191.03,199.31c-2.07-0.72-4.14-1.58-6.27-2.09c-0.92-0.22-1.88-0.33-2.83-0.19
			c-0.77,0.11-1.61,0.26-2.21-0.35c-0.51-0.52-0.4-1.26-0.72-1.86c-0.31-0.61-0.97-0.96-1.56-1.27c-1.36-0.73-2.62-1.47-3.69-2.59
			c-1.06-1.12-1.85-2.44-2.37-3.88c-0.15-0.42,0.29-0.7,0.66-0.64c3.84,0.59,7.44,2.3,10.32,4.86c0.09,0.08,0.13,0.16,0.15,0.25
			c3.01,2.3,6.03,4.59,9.04,6.88C191.98,198.75,191.52,199.48,191.03,199.31z M282.51,207.66c1.75,0.39,3.41,1.11,5.01,1.91
			c2.81,1.41,5.55,3.19,8.7,3.76c0.84,0.15,1.68,0.15,2.52,0.19c0.92,0.04,1.73,0.26,2.5,0.75c1.68,1.06,3.29,2.26,4.92,3.39
			c0.33,0.23,0.31,0.58,0.11,0.79c-0.18,0.23-0.54,0.36-0.83,0.11c-0.06-0.05-0.12-0.09-0.18-0.14c-0.37-0.15-0.74-0.31-1.11-0.47
			c-1.57-0.5-3.17-0.92-4.79-1.25c-1.1-0.07-2.2-0.14-3.29-0.21c-1.49-0.09-3.11,0-4.43-0.77c-0.01,0-0.03,0-0.04-0.01
			c-0.78-0.18-1.44-0.57-2.02-1.1c-0.71-0.64-1.39-1.3-2.08-1.95c-0.84-0.67-1.66-1.36-2.47-2.07c-0.95-0.71-1.93-1.37-2.94-1.99
			C281.58,208.3,281.92,207.53,282.51,207.66z M315.73,120.28c1.61-0.06,3.08,0.61,4.5,1.27c0.72,0.33,1.44,0.65,2.2,0.86
			c0.87,0.24,1.74,0.21,2.64,0.22c1.35,0.02,2.88,0.38,3.47,1.72c0.29,0.67,0.35,1.37,0.79,1.98c0.41,0.57,0.96,1.04,1.42,1.57
			c0.5,0.58,0.96,1.2,1.35,1.86c0.32,0.53,0.95,1.38,0.76,2.04c-0.22,0.79-1.08,0.56-1.61,0.27c-0.6-0.33-1.12-0.79-1.62-1.26
			c-0.52-0.49-1.02-1.02-1.6-1.43c-0.54-0.38-1.14-0.65-1.76-0.89c-1.22-0.47-2.52-0.83-3.57-1.63c-0.61-0.46-1.02-1.06-1.48-1.65
			c-0.42-0.54-0.93-0.92-1.54-1.24c-1.15-0.61-2.41-1.02-3.3-2.01c-0.06-0.07-0.1-0.14-0.12-0.22c-0.27-0.16-0.54-0.33-0.81-0.49
			C315,120.98,315.2,120.3,315.73,120.28z M269.05,10.32c1.05,1.09,2.19,2.08,3.41,2.98c0.14-0.09,0.33-0.11,0.52,0.02
			c2.85,2.02,5.69,4.05,8.54,6.07c2.51,1.78,5.02,3.57,7.52,5.35c2.32,1.65,4.62,3.34,7.08,4.79c1.21,0.71,2.46,1.36,3.76,1.9
			c1.26,0.52,2.56,0.95,3.79,1.54c2.13,1.01,4.19,2.69,4.63,5.08c0.06,0.33-0.14,0.66-0.52,0.67c-1.58,0.02-3.15,0.04-4.73,0.05
			c0.08,0.13,0.16,0.25,0.23,0.39c0.53,1.01,0.71,2.14,1.13,3.19c0.21,0.52,0.5,1.01,0.92,1.4c0.47,0.43,1.06,0.73,1.61,1.05
			c1.11,0.64,2.02,1.41,2.68,2.51c0.62,1.03,1,2.19,1.38,3.32c0.39,1.15,0.79,2.3,1.49,3.3c0.74,1.06,1.77,1.91,2.78,2.71
			c1.03,0.81,2.11,1.59,3.02,2.53c0.98,1.01,1.73,2.2,2.34,3.45c0.47,0.97,0.87,1.97,1.28,2.96c0.14,0.33,0.28,0.66,0.43,0.98
			c0.56,1.24,1.21,2.44,1.99,3.56c1.57,2.27,3.6,4.24,5.93,5.75c1.08,0.7,2.22,1.3,3.21,2.12c1.03,0.86,1.7,1.94,1.92,3.26
			c0.18,1.15,0.3,2.24,0.86,3.29c0.46,0.87,1.09,1.64,1.77,2.35c2.83,2.91,6.97,5.07,8.17,9.17c0.12,0.41-0.4,0.87-0.79,0.6
			c-0.62-0.44-1.24-0.88-1.87-1.31c-2.54-1.76-5.17-3.45-8.04-4.65c-1.43-0.6-2.93-1.05-4.46-1.32c-1.59-0.28-3.2-0.23-4.81-0.36
			c-1.68-0.14-3.2-0.6-4.67-1.43c-1.41-0.8-2.78-1.71-4.12-2.61c-1.35-0.9-2.67-1.86-3.88-2.93c-1.07-0.94-2.04-1.99-2.99-3.05
			c-1.82-2.05-3.58-4.25-5.89-5.81c-1.21-0.81-2.52-1.34-3.89-1.8c-1.39-0.46-2.82-0.91-4.04-1.71c-1.3-0.86-2.19-2.12-3.33-3.15
			c-0.99-0.9-2.19-1.54-3.43-2.02c-2.59-0.98-5.37-1.38-7.94-2.4c-1.13-0.44-2.73-1.02-3.17-2.25c-0.14-0.39-0.11-0.77-0.03-1.16
			c0.07-0.31,0.19-0.62,0.29-0.93c0.23-0.67,0.23-1.27-0.13-1.9c-1.32-2.27-4.78-2.72-5.35-5.54c-0.06-0.33,0.15-0.67,0.52-0.67
			c3.17,0.01,6.34,0.01,9.51,0.02c2.08,0,4.57,0,6.13-1.53c-1.72-2.69-3.48-5.36-5.28-8c-0.87-1.28-1.72-2.59-2.67-3.82
			c-0.78-1.01-1.73-1.97-3.02-2.31c-0.24-0.06-0.38-0.28-0.4-0.51c-0.1-1.92-0.4-3.83-0.89-5.69c-0.86-3.27-2.31-6.37-4.25-9.15
			c-0.97-1.39-2.09-2.62-3.23-3.87c-1.05-1.14-2.08-2.5-1.95-4.11C268.17,10.26,268.71,9.97,269.05,10.32z M255.87,115.84
			c1.73,0.83,3.62,1.32,5.55,1.42c0.8,0.04,1.6,0.05,2.34,0.4c0.55,0.27,0.98,0.71,1.34,1.19c0.06,0.08,0.11,0.16,0.17,0.25
			c0.38,0.34,0.72,0.73,1.05,1.11c0.56,0.64,1.17,1.24,1.82,1.79c0.45,0.17,0.91,0.32,1.34,0.51c0.72,0.33,1.41,0.73,2.07,1.18
			c1.31,0.91,2.5,1.99,3.66,3.07c0.44,0.4-0.15,1.18-0.65,0.82c-1.79-1.27-3.75-2.32-5.82-3.08c-0.1-0.04-0.21-0.08-0.32-0.11
			c-0.74-0.12-1.51-0.15-2.24-0.22c-0.11,0.03-0.23,0.02-0.36-0.04c-0.19-0.02-0.38-0.05-0.56-0.09c-0.97-0.18-1.9-0.54-2.64-1.2
			c-0.65-0.57-1.11-1.35-1.77-1.9c-1.93-1.35-3.81-2.77-5.62-4.27C254.72,116.25,255.35,115.59,255.87,115.84z M221.38,111.88
			c0.08-0.11,0.22-0.19,0.41-0.17c2.4,0.16,5.23,0.94,6.17,3.35c2.18,1.58,4.88,2.42,7.41,3.36c1.45,0.54,2.89,1.11,4.23,1.87
			c1.48,0.84,2.73,1.93,3.86,3.16c1.19,1.29,2.28,2.68,3.63,3.82c1.29,1.08,2.82,1.82,4.22,2.74c0.68,0.45,1.35,0.95,1.92,1.53
			c0.63,0.65,1.11,1.4,1.55,2.18c0.42,0.73,0.85,1.45,1.39,2.1c0.5,0.59,1.05,1.13,1.63,1.65c1.38,1.25,2.9,2.4,4.11,3.79
			c0.73,0.83,1.36,1.75,1.78,2.81c0.18,0.44-0.42,0.81-0.79,0.59c-4.12-2.4-8.12-4.99-12-7.75c-1.61-0.9-3.1-1.99-4.47-3.24
			c-2.03-1.86-3.95-3.84-6.01-5.68c-2.01-1.79-4.07-3.51-6.17-5.19c-4.3-3.44-8.77-6.68-13.23-9.92
			C220.55,112.53,220.91,111.78,221.38,111.88z M157.74,116.3C157.74,116.3,157.74,116.3,157.74,116.3
			c0.06-0.01,0.12-0.02,0.19-0.02c1.12,0.1,2.34,0.22,3.28,0.88c0.07,0.05,0.13,0.1,0.2,0.16c0.53,0.14,1.05,0.28,1.58,0.42
			c0.6,0.16,1.02,0.41,1.45,0.86c0.51,0.54,1.01,1.09,1.51,1.63c0.24,0.26,0.2,0.64-0.11,0.83c-0.76,0.46-1.66,0.58-2.52,0.34
			c-0.23-0.06-0.35-0.23-0.37-0.42c-0.63-0.18-1.22-0.53-1.76-0.89c-0.35-0.24-0.7-0.49-1.05-0.73c-0.44-0.24-0.85-0.52-1.24-0.84
			c-0.06-0.05-0.1-0.1-0.13-0.16c-0.52-0.39-1.04-0.77-1.56-1.15C156.65,116.81,157.12,115.96,157.74,116.3z M149.69,124.99
			c1.63,0.19,3.27,0.37,4.87,0.72c2.9,0.63,5.42,2.22,8.32,2.86c1.49,0.33,3,0.54,4.5,0.78c1.56,0.26,3.12,0.51,4.68,0.76
			c0.4,0.07,0.47,0.51,0.29,0.8c0.17-0.06,0.34-0.14,0.49-0.24c0.22-0.15,0.38-0.39,0.62-0.5c0.32-0.14,0.8-0.14,1.15-0.2
			c0.11-0.02,0.23-0.04,0.34-0.05c3.09-0.48,6.18-0.97,9.27-1.45c-2.62-3.1-5.25-6.2-7.87-9.3c-1.21-1.42-2.45-2.82-3.61-4.29
			c-1.01-1.27-1.61-2.6-2.02-4.16c-0.44-1.67-1-3.23-1.88-4.73c-0.83-1.4-1.81-2.71-2.79-4.02c-4.15-5.52-7.19-11.51-8.59-18.25
			c-0.14-0.66,0.9-0.94,1.03-0.28c0.01,0.07,0.03,0.13,0.04,0.2l0.27-0.06c-0.12-0.55,0.82-0.76,1.07-0.18
			c0.6,1.4,1.69,2.51,2.94,3.36c2.71,1.86,5.97,2.93,8.94,4.32c3.39,1.6,6.71,3.35,9.94,5.23c6.62,3.86,12.74,8.36,18.67,13.16
			c3.03,2.45,6.07,4.88,8.95,7.49c2.79,2.53,5.22,5.31,7.68,8.14c2.46,2.83,5.12,5.25,8.28,7.32c2.98,1.96,6.08,3.72,8.96,5.83
			c6.13,4.5,11.47,10,17.15,15.05c3.89,3.46,7.94,6.71,12.52,9.29c3.11,1.76,6.4,3,9.8,4.09c3.54,1.13,7.03,2.3,10.27,4.14
			c3.11,1.77,5.95,3.95,8.73,6.17c3.16,2.53,6.28,5.11,9.43,7.66c11.69,9.51,23.37,19.01,35.06,28.52c0.09,0,0.17,0.01,0.26,0.05
			c3.75,1.71,6.76,4.72,8.43,8.42c0.21,0.47-0.23,0.99-0.73,0.72c-5.65-2.99-11.32-5.99-17.21-8.53c-2.68-1.16-5.41-2.21-8.18-3.12
			c-0.17-0.06-0.33-0.11-0.5-0.16c-2.52-0.79-5.12-1.31-7.61-2.18c-2.47-0.87-4.27-2.49-6.21-4.15c-2.09-1.79-4.24-3.53-6.47-5.14
			c-4.4-3.19-9.2-5.94-14.46-7.55c-5.62-1.71-11.61-2.12-17.42-1.21c-0.24,0.04-0.48-0.06-0.6-0.23c-0.37,0.04-0.75,0-1.14-0.1
			c-1.49-0.4-2.93-1.03-4.36-1.59c-0.43-0.17-0.58-0.91,0-1.01c2.13-0.35,4.26-0.75,6.37-1.2c0.09-0.32,0.17-0.63,0.25-0.95
			c-1.82-0.11-3.29-1.27-4.59-2.5c-1.75-1.65-3.32-3.36-5.75-4.01c-4.47-1.19-9.21,0.27-13.65-1.26c-3.94-1.36-7.04-4.23-10.72-6.08
			c-2.11-1.05-4.27-1.55-6.63-1.32c-1.27,0.12-2.5,0.3-3.73,0.39c-1.27,0.11-2.54,0.13-3.86-0.08c-4.76-0.74-8.96-3.36-12.9-5.94
			c-2.31-0.71-4.6-1.45-6.88-2.24c-1.48-0.51-2.98-1.06-4.55-1.22c-1.49-0.15-3.03-0.12-4.44-0.69c-0.2-0.08-0.36-0.23-0.39-0.44
			c-0.12-0.08-0.24-0.16-0.35-0.26c-0.21-0.2-0.2-0.44-0.08-0.63c-0.08-0.13-0.1-0.29-0.07-0.42c0.04-0.15,0.16-0.27,0.3-0.33
			c0.06-0.06,0.14-0.11,0.25-0.13c2-0.4,3.62,0.87,5.47,1.31c0.98,0.23,1.99,0.07,2.99,0c0.89-0.06,1.77,0,2.64,0.15
			c5.95-0.07,11.91-0.53,17.8-1.37c-0.37-0.37,0.06-0.96,0.54-0.85c0.19,0.05,0.3-0.04,0.35-0.2c0.15-0.48-0.23-1.62-0.37-1.83
			c-0.64-0.93-1.52-1.77-2.38-2.51c-1.66-1.42-3.58-2.52-5.58-3.42c-3.82-1.72-7.94-2.76-11.97-3.89
			c-4.81-1.35-9.63-2.67-14.43-4.06c-3.65-1.06-7.48-2.32-10.84-4.22c-0.13,0.05-0.27,0.04-0.42-0.06c-1.61-1.05-3.4-1.79-5.3-2.16
			c-0.85-0.16-1.7-0.27-2.5-0.6c-0.73-0.31-1.36-0.78-2.04-1.17c-0.42-0.24-0.86-0.4-1.32-0.52c-0.09,0-0.19-0.01-0.29-0.06
			c-0.01-0.01-0.02-0.01-0.03-0.02c-1.04-0.23-2.13-0.29-3.14-0.63c-0.84-0.28-1.57-0.74-2.29-1.23c-0.78-0.52-1.55-1.05-2.33-1.58
			c-1.58-1.07-3.16-2.14-4.74-3.21C149.03,125.7,149.11,124.92,149.69,124.99z M102.15,210.75c0.01,0.01,0.03,0.01,0.04,0.02
			c0.1-0.01,0.2,0,0.32,0.05c1.05,0.46,2.23,0.46,3.33,0.74c0.92,0.24,1.76,0.69,2.55,1.2c1.39,0.9,2.72,2.06,4.42,2.32
			c1.74,0.26,3.55-0.23,5.27,0.29c1.8,0.56,2.76,2.3,4.01,3.56c1.36,1.36,2.88,2.53,4.55,3.51c0.52,0.3,0.18,1.13-0.42,0.96
			c-1.45-0.42-2.86-0.96-4.25-1.57c-0.05-0.01-0.09-0.04-0.14-0.06c-0.35-0.16-0.7-0.31-1.04-0.47c-3.2-1.5-6.34-3.16-9.5-4.75
			c-3.23-1.63-6.46-3.26-9.69-4.89C100.99,211.34,101.53,210.43,102.15,210.75z M42.1,191.01c0.18-1.85,0.35-3.71,0.52-5.56
			c0.06-0.61,0.83-0.69,1.06-0.14c0.89,2.17,1.92,4.28,3.09,6.31c0.57,0.98,1.15,1.98,1.81,2.91c0.4,0.57,0.92,1.19,1.61,1.38
			c0.17-0.07,0.37-0.07,0.52,0.06c0.01,0,0.02,0,0.03,0c0.45-0.04,0.6,0.4,0.46,0.73c1.63,2.43,4.23,4.18,7.15,4.77
			c0.19,0.03,0.37,0.07,0.56,0.1c1.31,0.21,2.64,0.28,3.85,0.87c1.37,0.66,2.11,2,3.14,3.04c2.16,2.2,5.11,3.4,7.82,4.79
			c6.15,3.17,11.76,7.21,17.35,11.22c0.48,0.35,0.2,1.1-0.42,0.96c-4.77-1.05-9.53-2.1-14.3-3.15c-2.1-0.46-4.2-0.93-6.3-1.39
			c-1.98-0.44-3.96-0.89-5.84-1.63c-3.27-1.29-6.08-3.62-9.5-4.56c-0.8-0.22-1.63-0.35-2.46-0.32c-0.86,0.02-1.72,0.4-2.58,0.32
			c-0.74-0.07-1.29-0.56-1.5-1.25c-0.05-0.18-0.09-0.35-0.11-0.54c-0.06-0.49-0.03-0.99-0.13-1.48c-0.25-1.2-1.56-1.35-2.6-1.53
			c-1.22-0.21-2.46-0.45-3.25-1.48c-0.11-0.15-0.08-0.38,0-0.53c1.5-2.75,1.81-6.06,0.85-9.03c-0.25-0.77-0.69-1.49-0.87-2.27
			C41.87,192.75,42.02,191.87,42.1,191.01z M74.86,232.06c-0.04-0.02-0.09-0.04-0.13-0.06c-0.15,0.05-0.32,0.04-0.47-0.03
			c-1.8-0.74-3.6-1.49-5.4-2.24c-1.62-0.45-3.25-0.85-4.89-1.2c-1.82-0.39-3.67-0.61-5.48-1.02c-0.8-0.18-1.58-0.47-2.22-0.97
			c-0.64-0.5-1.08-1.17-1.58-1.79c-1.05-1.29-2.45-2.19-3.88-3.02c-0.7-0.41-1.44-0.8-2.11-1.25c-0.63-0.42-1.19-0.94-1.36-1.68
			c-0.01-0.05-0.01-0.1-0.01-0.14c-0.6-0.41-1.07-0.92-1.25-1.65c-0.11-0.48,0.36-0.76,0.78-0.6c0.05,0,0.09,0,0.14,0.01
			c4.07,0.93,7.84,2.93,10.86,5.75c0.26,0.15,0.52,0.3,0.78,0.44c3.73,2.01,7.95,3.26,11.31,5.86c0,0,0,0,0.01,0
			c1.81,0.89,3.62,1.78,5.43,2.67C76.02,231.45,75.48,232.36,74.86,232.06z"/>
	</g>
</g>
</svg>
