<?xml version="1.0" encoding="utf-8"?>
<!-- Generator: Adobe Illustrator 26.0.0, SVG Export Plug-In . SVG Version: 6.00 Build 0)  -->
<svg version="1.0" id="Слой_1" xmlns="http://www.w3.org/2000/svg" xmlns:xlink="http://www.w3.org/1999/xlink" x="0px" y="0px"
	 viewBox="0 0 100 100" style="enable-background:new 0 0 100 100;" xml:space="preserve">
<style type="text/css">
	.st0{fill:#FFFFFF;}
</style>
<g>
	<path class="st0" d="M73.19,21.18c-2.69,0-5.33,0.45-7.85,1.34c-3.97-6.97-11.45-11.39-19.55-11.39c-10.4,0-19.29,7.02-21.78,16.92
		C23.53,28.01,23.05,28,22.57,28C11.84,28,3.11,36.73,3.11,47.46c0,5.96,2.67,11.5,7.33,15.21c3.91,3.82,9.06,5.92,14.49,5.92h48.25
		c4.65,0,9.15-1.34,13-3.87C92.89,60.31,96.9,52.9,96.9,44.89C96.9,31.83,86.27,21.19,73.19,21.18z M84.1,61.56
		c-3.23,2.13-7.01,3.25-10.92,3.25H24.93c-4.47,0-8.7-1.74-11.91-4.91c-0.05-0.05-0.1-0.09-0.16-0.14
		c-3.79-2.99-5.97-7.48-5.97-12.3c0-8.64,7.03-15.68,15.68-15.68c0.85,0,1.71,0.07,2.65,0.22c1.02,0.16,1.99-0.53,2.16-1.56
		c1.52-9,9.26-15.53,18.41-15.53c7.23,0,13.87,4.23,16.94,10.79c0.43,0.93,1.53,1.35,2.47,0.93c2.54-1.11,5.23-1.67,7.99-1.67
		c10.99,0.01,19.93,8.95,19.93,19.93C93.12,51.62,89.75,57.85,84.1,61.56z"/>
	<path class="st0" d="M33.64,77.78c-0.52-0.91-1.68-1.22-2.59-0.69l-1.92,1.11v-2.22c0-1.05-0.85-1.89-1.89-1.89
		s-1.89,0.85-1.89,1.89v2.22l-1.93-1.11c-0.91-0.52-2.06-0.21-2.59,0.69s-0.21,2.06,0.69,2.59l1.92,1.11l-1.92,1.11
		c-0.91,0.52-1.22,1.68-0.69,2.59c0.35,0.61,0.99,0.95,1.64,0.95c0.32,0,0.65-0.08,0.94-0.25l1.93-1.11v2.22
		c0,1.05,0.85,1.89,1.89,1.89s1.89-0.85,1.89-1.89v-2.22l1.92,1.11c0.3,0.17,0.62,0.25,0.94,0.25c0.65,0,1.29-0.34,1.64-0.95
		c0.52-0.91,0.21-2.06-0.69-2.59l-1.92-1.11l1.92-1.11C33.85,79.85,34.16,78.69,33.64,77.78z"/>
	<path class="st0" d="M54.15,77.79c-0.52-0.91-1.68-1.22-2.58-0.69l-1.93,1.11v-2.22c0-1.05-0.85-1.89-1.89-1.89
		s-1.89,0.85-1.89,1.89v2.22l-1.93-1.11c-0.91-0.52-2.06-0.21-2.59,0.69c-0.52,0.91-0.21,2.06,0.69,2.58l1.93,1.11l-1.93,1.11
		c-0.91,0.52-1.22,1.68-0.69,2.58c0.35,0.61,0.99,0.95,1.64,0.95c0.32,0,0.65-0.08,0.94-0.25l1.93-1.11v2.22
		c0,1.05,0.85,1.89,1.89,1.89s1.89-0.85,1.89-1.89v-2.22l1.93,1.11c0.3,0.17,0.62,0.25,0.94,0.25c0.66,0,1.29-0.34,1.64-0.95
		c0.52-0.91,0.21-2.06-0.69-2.58l-1.93-1.11l1.93-1.11C54.36,79.85,54.67,78.69,54.15,77.79z"/>
	<path class="st0" d="M74.65,77.79c-0.52-0.91-1.68-1.22-2.58-0.69l-1.93,1.11v-2.22c0-1.05-0.85-1.89-1.89-1.89
		s-1.89,0.85-1.89,1.89v2.22l-1.93-1.11c-0.91-0.52-2.06-0.21-2.58,0.69c-0.52,0.91-0.21,2.06,0.69,2.58l1.93,1.11l-1.93,1.11
		c-0.91,0.52-1.22,1.68-0.69,2.58c0.35,0.61,0.99,0.95,1.64,0.95c0.32,0,0.65-0.08,0.94-0.25l1.93-1.11v2.22
		c0,1.05,0.85,1.89,1.89,1.89s1.89-0.85,1.89-1.89v-2.22l1.93,1.11c0.3,0.17,0.62,0.25,0.94,0.25c0.66,0,1.29-0.34,1.64-0.95
		c0.52-0.91,0.21-2.06-0.69-2.58l-1.93-1.11l1.93-1.11C74.86,79.85,75.17,78.69,74.65,77.79z"/>
</g>
</svg>
