<?xml version="1.0" encoding="utf-8"?>
<!-- Generator: Adobe Illustrator 26.0.0, SVG Export Plug-In . SVG Version: 6.00 Build 0)  -->
<svg version="1.0" id="Слой_1" xmlns="http://www.w3.org/2000/svg" xmlns:xlink="http://www.w3.org/1999/xlink" x="0px" y="0px"
	 viewBox="0 0 100 100" style="enable-background:new 0 0 100 100;" xml:space="preserve">
<style type="text/css">
	.st0{fill:#FFFFFF;}
</style>
<path class="st0" d="M90,47.7h-8.98l6.86-5.08c1.02-0.76,1.24-2.2,0.48-3.22c-0.75-1.02-2.2-1.24-3.22-0.48L73.27,47.7H55.56
	l12.51-12.51l14.61-2.21c1.26-0.19,2.12-1.36,1.93-2.62c-0.19-1.26-1.37-2.12-2.62-1.93l-8.44,1.27l6.35-6.35
	c0.9-0.9,0.9-2.36,0-3.26c-0.9-0.9-2.36-0.9-3.26,0l-6.35,6.35L71.58,18c0.19-1.26-0.68-2.43-1.93-2.62
	c-1.26-0.19-2.43,0.68-2.62,1.93l-2.21,14.61L52.3,44.44V26.73l8.78-11.87c0.76-1.02,0.54-2.46-0.48-3.22
	c-1.02-0.76-2.47-0.54-3.22,0.48l-5.08,6.86V10c0-1.27-1.03-2.3-2.3-2.3c-1.27,0-2.3,1.03-2.3,2.3v8.98l-5.07-6.86
	c-0.76-1.02-2.2-1.24-3.22-0.48c-1.02,0.76-1.24,2.2-0.48,3.22l8.78,11.87v17.71L35.18,31.93l-2.21-14.61
	c-0.19-1.26-1.37-2.12-2.62-1.93c-1.26,0.19-2.12,1.36-1.93,2.62l1.27,8.44l-6.35-6.35c-0.9-0.9-2.36-0.9-3.26,0
	c-0.9,0.9-0.9,2.36,0,3.26l6.35,6.35L18,28.42c-1.25-0.19-2.43,0.67-2.62,1.93c-0.19,1.26,0.68,2.43,1.93,2.62l14.61,2.21
	L44.44,47.7H26.73l-11.87-8.78c-1.02-0.76-2.46-0.54-3.22,0.48c-0.76,1.02-0.54,2.46,0.48,3.22l6.86,5.07H10
	c-1.27,0-2.3,1.03-2.3,2.3c0,1.27,1.03,2.3,2.3,2.3h8.98l-6.86,5.08c-1.02,0.76-1.24,2.2-0.48,3.22c0.45,0.61,1.15,0.93,1.85,0.93
	c0.48,0,0.96-0.15,1.37-0.45l11.87-8.78h17.71L31.93,64.82l-14.61,2.21c-1.26,0.19-2.12,1.36-1.93,2.62s1.37,2.12,2.62,1.93
	l8.44-1.27l-6.35,6.35c-0.9,0.9-0.9,2.36,0,3.26c0.45,0.45,1.04,0.67,1.63,0.67s1.18-0.23,1.63-0.67l6.35-6.35L28.42,82
	c-0.19,1.26,0.68,2.43,1.93,2.62c0.12,0.02,0.23,0.03,0.35,0.03c1.12,0,2.1-0.82,2.27-1.96l2.21-14.61L47.7,55.56v17.71l-8.78,11.87
	c-0.76,1.02-0.54,2.46,0.48,3.22c0.41,0.3,0.89,0.45,1.37,0.45c0.71,0,1.4-0.32,1.85-0.93l5.08-6.86V90c0,1.27,1.03,2.3,2.3,2.3
	c1.27,0,2.3-1.03,2.3-2.3v-8.98l5.08,6.86c0.75,1.02,2.2,1.24,3.22,0.48c1.02-0.76,1.24-2.2,0.48-3.22L52.3,73.27V55.56l12.51,12.51
	l2.21,14.61c0.17,1.14,1.15,1.96,2.27,1.96c0.11,0,0.23-0.01,0.35-0.03c1.26-0.19,2.12-1.36,1.93-2.62l-1.27-8.43l6.35,6.35
	c0.45,0.45,1.04,0.67,1.63,0.67s1.18-0.23,1.63-0.67c0.9-0.9,0.9-2.36,0-3.26l-6.35-6.35L82,71.58c1.25,0.19,2.43-0.68,2.62-1.93
	c0.19-1.26-0.68-2.43-1.93-2.62l-14.61-2.21L55.56,52.3h17.71l11.87,8.78c0.41,0.3,0.89,0.45,1.37,0.45c0.71,0,1.4-0.32,1.85-0.93
	c0.76-1.02,0.54-2.47-0.48-3.22l-6.86-5.08H90c1.27,0,2.3-1.03,2.3-2.3C92.3,48.73,91.27,47.7,90,47.7z"/>
</svg>
