<?xml version="1.0" encoding="utf-8"?>
<!-- Generator: Adobe Illustrator 26.0.0, SVG Export Plug-In . SVG Version: 6.00 Build 0)  -->
<svg version="1.0" id="Слой_1" xmlns="http://www.w3.org/2000/svg" xmlns:xlink="http://www.w3.org/1999/xlink" x="0px" y="0px"
	 viewBox="0 0 100 100" style="enable-background:new 0 0 100 100;" xml:space="preserve">
<style type="text/css">
	.st0{fill:#FFFFFF;}
</style>
<g>
	<g>
		<path class="st0" d="M73.18,67.19H24.93c-5.44,0-10.58-2.1-14.49-5.92c-4.66-3.72-7.33-9.25-7.33-15.21
			c0-10.73,8.73-19.46,19.46-19.46c0.48,0,0.96,0.02,1.44,0.05C26.5,16.74,35.39,9.72,45.8,9.72c8.09,0,15.58,4.42,19.55,11.39
			c2.53-0.89,5.16-1.34,7.85-1.34c13.07,0.01,23.7,10.65,23.7,23.72c0,8.01-4.01,15.42-10.72,19.83
			C82.33,65.85,77.83,67.19,73.18,67.19z M22.57,30.38c-8.64,0-15.68,7.03-15.68,15.68c0,4.83,2.18,9.31,5.97,12.3
			c0.05,0.04,0.11,0.09,0.16,0.14c3.21,3.16,7.44,4.91,11.91,4.91h48.25c3.91,0,7.69-1.12,10.92-3.25
			c5.65-3.71,9.02-9.94,9.02-16.67c0-10.98-8.93-19.93-19.92-19.94c-2.76,0-5.45,0.56-7.99,1.67c-0.94,0.41-2.04,0-2.47-0.93
			C59.67,17.74,53.03,13.5,45.8,13.5c-9.16,0-16.91,6.54-18.42,15.54c-0.17,1.02-1.14,1.71-2.16,1.56
			C24.28,30.45,23.42,30.38,22.57,30.38z"/>
	</g>
	<g>
		<path class="st0" d="M48.27,90.28c-0.39,0-0.79-0.12-1.13-0.38c-0.84-0.62-1.01-1.81-0.39-2.65l2.33-3.13l-3.06,0.16
			c-0.66,0.04-1.3-0.28-1.68-0.84c-0.37-0.56-0.42-1.27-0.13-1.87l3.15-6.6c0.45-0.94,1.58-1.34,2.52-0.89
			c0.94,0.45,1.34,1.58,0.89,2.52l-1.78,3.72l3.91-0.21c0.74-0.05,1.42,0.35,1.77,1c0.35,0.65,0.29,1.44-0.15,2.03l-4.75,6.37
			C49.42,90.02,48.85,90.28,48.27,90.28z"/>
	</g>
	<g>
		<path class="st0" d="M61.88,88.74c-0.4,0-0.79-0.12-1.14-0.38c-0.84-0.63-1-1.81-0.38-2.65c0.68-0.91,1.54-2.06,2.34-3.12
			l-3.07,0.15c-0.66,0.05-1.3-0.29-1.67-0.84c-0.37-0.55-0.42-1.26-0.13-1.86l3.14-6.6c0.45-0.94,1.58-1.34,2.52-0.9
			c0.94,0.45,1.35,1.58,0.9,2.52l-1.78,3.74l3.91-0.19c0.72-0.04,1.38,0.33,1.73,0.95c0.35,0.62,0.33,1.38-0.06,1.98
			c-0.19,0.3-3.09,4.16-4.8,6.44C63.02,88.48,62.45,88.74,61.88,88.74z"/>
	</g>
	<g>
		<path class="st0" d="M34.66,88.74c-0.39,0-0.79-0.12-1.13-0.38c-0.84-0.63-1.01-1.81-0.38-2.65l2.33-3.12l-3.05,0.16
			c-0.65,0.04-1.3-0.28-1.67-0.84c-0.37-0.55-0.42-1.26-0.14-1.87l3.14-6.6c0.45-0.94,1.58-1.34,2.52-0.9
			c0.94,0.45,1.35,1.58,0.9,2.52L35.4,78.8l3.91-0.2c0.73-0.04,1.42,0.35,1.77,1c0.35,0.65,0.29,1.44-0.15,2.03l-4.75,6.36
			C35.81,88.48,35.24,88.74,34.66,88.74z"/>
	</g>
</g>
</svg>
