<?xml version="1.0" encoding="utf-8"?>
<!-- Generator: Adobe Illustrator 26.0.0, SVG Export Plug-In . SVG Version: 6.00 Build 0)  -->
<svg version="1.0" id="Слой_1" xmlns="http://www.w3.org/2000/svg" xmlns:xlink="http://www.w3.org/1999/xlink" x="0px" y="0px"
	 viewBox="0 0 100 100" style="enable-background:new 0 0 100 100;" xml:space="preserve">
<style type="text/css">
	.st0{fill:#FFFFFF;}
</style>
<g>
	<g>
		<path class="st0" d="M25.15,69.31h-0.21c-5.44,0-10.58-2.1-14.49-5.92c-4.67-3.72-7.34-9.26-7.34-15.22
			c0-10.73,8.73-19.46,19.46-19.46c0.48,0,0.96,0.02,1.44,0.05c2.49-9.91,11.38-16.92,21.78-16.92c8.09,0,15.58,4.42,19.55,11.39
			c2.53-0.89,5.16-1.34,7.85-1.34c0.01,0,0.01,0,0.02,0c6.32,0,12.27,2.46,16.74,6.94c4.48,4.48,6.94,10.43,6.94,16.76
			c0,8.01-4.01,15.42-10.72,19.83c-3.84,2.53-8.33,3.87-12.99,3.87h-9.91c-1.05,0-1.89-0.85-1.89-1.89s0.85-1.89,1.89-1.89h9.91
			c3.91,0,7.68-1.12,10.91-3.25c5.65-3.71,9.02-9.94,9.02-16.67c0-5.32-2.07-10.32-5.83-14.08c-3.76-3.76-8.75-5.83-14.07-5.83
			c-0.01,0-0.01,0-0.02,0c-2.76,0-5.45,0.56-7.99,1.67c-0.94,0.41-2.04,0-2.47-0.93c-3.06-6.55-9.71-10.79-16.94-10.79
			c-9.15,0-16.9,6.53-18.41,15.53c-0.17,1.02-1.14,1.71-2.16,1.56c-0.94-0.15-1.8-0.22-2.65-0.22c-8.64,0-15.68,7.03-15.68,15.68
			c0,4.83,2.18,9.31,5.98,12.31c0.05,0.04,0.11,0.09,0.16,0.14c3.21,3.16,7.44,4.91,11.91,4.91h0.21c1.05,0,1.89,0.85,1.89,1.89
			S26.2,69.31,25.15,69.31z"/>
	</g>
	<g>
		<path class="st0" d="M41.3,88.16c-0.24,0-0.48-0.05-0.71-0.14c-0.84-0.34-1.32-1.23-1.14-2.12l3.12-16L31.01,66.1
			c-0.52-0.17-0.94-0.56-1.15-1.06c-0.21-0.5-0.2-1.07,0.04-1.56l10.32-21.44c0.39-0.8,1.27-1.23,2.14-1.02
			c0.86,0.2,1.47,0.98,1.46,1.87l-0.22,15.74l12.77,3.63c0.58,0.17,1.05,0.6,1.26,1.16c0.21,0.56,0.14,1.2-0.19,1.7L42.88,87.31
			C42.52,87.85,41.92,88.16,41.3,88.16z M34.24,63.18l11.09,3.66c0.91,0.3,1.45,1.22,1.27,2.16L45,77.17l7.85-11.97l-11.69-3.33
			c-0.82-0.23-1.39-0.99-1.38-1.85l0.12-8.62L34.24,63.18z"/>
	</g>
	<g>
		<path class="st0" d="M55.31,82.43c-0.33,0-0.67-0.09-0.98-0.27c-0.9-0.54-1.18-1.7-0.64-2.6l2.55-4.23c0.54-0.9,1.7-1.18,2.6-0.64
			c0.9,0.54,1.18,1.7,0.64,2.6l-2.55,4.23C56.58,82.11,55.95,82.43,55.31,82.43z"/>
	</g>
	<g>
		<path class="st0" d="M68.06,83.28c-0.33,0-0.67-0.09-0.98-0.27c-0.89-0.54-1.18-1.71-0.64-2.6l2.55-4.22
			c0.54-0.89,1.7-1.18,2.6-0.64c0.89,0.54,1.18,1.71,0.64,2.6l-2.55,4.22C69.32,82.96,68.7,83.28,68.06,83.28z"/>
	</g>
	<g>
		<path class="st0" d="M29.7,80.7c-0.33,0-0.67-0.09-0.98-0.27c-0.9-0.54-1.18-1.7-0.64-2.6l2.55-4.22c0.54-0.89,1.7-1.18,2.6-0.64
			c0.9,0.54,1.18,1.7,0.64,2.6l-2.55,4.22C30.96,80.38,30.34,80.7,29.7,80.7z"/>
	</g>
</g>
</svg>
