<?xml version="1.0" encoding="utf-8"?>
<!-- Generator: Adobe Illustrator 27.8.1, SVG Export Plug-In . SVG Version: 6.00 Build 0)  -->
<svg version="1.1" id="Слой_1" xmlns="http://www.w3.org/2000/svg" xmlns:xlink="http://www.w3.org/1999/xlink" x="0px" y="0px"
	 viewBox="0 0 100 100" style="enable-background:new 0 0 100 100;" xml:space="preserve">
<style type="text/css">
	.st0{fill:#FFFFFF;}
</style>
<g>
	<g>
		<g>
			<path class="st0" d="M91.84,58.03c11.48-10.13,3.46-29.25-12.01-27.29c0.67,0.51,1.35,1.03,2.02,1.54
				c-3.53-16.6-25.67-19.52-33.5-4.49c-1.25,2.39,2.38,4.52,3.63,2.12c6.19-11.88,23.04-9.6,25.83,3.49
				c0.17,0.8,1.16,1.65,2.02,1.54c11.73-1.48,17.97,12.23,9.04,20.12C86.84,56.85,89.82,59.82,91.84,58.03L91.84,58.03z"/>
		</g>
	</g>
	<g>
		<g>
			<path class="st0" d="M82.01,60.92C81.65,70.11,75,77.45,65.65,78.07c-1.79,0.12-3.6,0.03-5.39,0.03c-7.88,0-15.77,0-23.65,0
				c-5.44,0-11.44,0.71-16.85-0.19C12.38,76.69,5.94,69.48,6.7,61.85C7.52,53.71,14.97,49,22.67,49.97
				c0.85,0.11,1.85-0.73,2.02-1.54c3.22-15.46,23.36-18.2,30.59-4.13c0.39,0.75,1.55,1.29,2.37,0.97
				C69.3,40.72,81.57,48.23,82.01,60.92c0.09,2.7,4.3,2.71,4.2,0c-0.53-15.19-15.36-25.3-29.67-19.7c0.79,0.32,1.58,0.64,2.37,0.97
				c-8.85-17.22-34.31-13.85-38.26,5.13c0.67-0.51,1.35-1.03,2.02-1.54C11.93,44.42,1.95,52.84,2.48,63.92
				C2.98,74.34,12.5,82.06,22.54,82.3c13.77,0.34,27.62,0.17,41.39,0c12.32-0.15,21.79-8.96,22.28-21.38
				C86.32,58.21,82.12,58.22,82.01,60.92z"/>
		</g>
	</g>
</g>
</svg>
