<?xml version="1.0" encoding="utf-8"?>
<!-- Generator: Adobe Illustrator 27.8.1, SVG Export Plug-In . SVG Version: 6.00 Build 0)  -->
<svg version="1.1" id="Слой_1" xmlns="http://www.w3.org/2000/svg" xmlns:xlink="http://www.w3.org/1999/xlink" x="0px" y="0px"
	 viewBox="0 0 100 100" style="enable-background:new 0 0 100 100;" xml:space="preserve">
<style type="text/css">
	.st0{fill:#FFFFFF;}
</style>
<g>
	<g>
		<g>
			<path class="st0" d="M32.17,15.29c-4.49,3.77-9.26,7.35-13.54,11.36c-6.53,6.12-5.2,17.28,3.49,20.7
				c9.29,3.65,17.83-4.39,16.62-13.73c-0.75-5.82-2.05-11.62-3.07-17.4c-0.47-2.66-4.52-1.53-4.05,1.12
				c0.78,4.44,1.56,8.87,2.35,13.31c0.34,1.94,0.87,3.92,0.73,5.89c-0.43,6.08-7.49,9.53-12.6,6.12
				c-11.72-7.83,7.62-19.85,13.03-24.39C37.21,16.52,34.22,13.56,32.17,15.29z"/>
		</g>
	</g>
	<g>
		<g>
			<path class="st0" d="M50.55,46.36C45.15,50.89,39.47,55.22,34.3,60c-7.74,7.15-6.16,20.15,3.99,24.25
				c10.73,4.33,21.08-5.16,19.45-16.07c-1.04-6.98-2.46-13.93-3.68-20.89c-0.47-2.66-4.52-1.53-4.05,1.12
				c0.99,5.64,1.99,11.27,2.98,16.91c0.48,2.7,1.24,5.5,0.5,8.23c-1.67,6.2-8.99,9.43-14.65,6.43c-5.01-2.65-6.85-9.25-4.03-14.12
				c1.3-2.24,3.6-3.84,5.56-5.48c4.38-3.68,8.77-7.36,13.15-11.04C55.59,47.59,52.6,44.64,50.55,46.36z"/>
		</g>
	</g>
	<g>
		<g>
			<path class="st0" d="M79.3,21.29c-3.81,3.2-7.92,6.21-11.51,9.65c-5.62,5.39-4.55,15.09,3.03,18.09
				c8.18,3.23,15.62-3.82,14.59-12.03c-0.62-4.95-1.74-9.88-2.61-14.79c-0.47-2.66-4.52-1.53-4.05,1.12
				c0.64,3.65,1.29,7.3,1.93,10.96c0.26,1.46,0.75,3.07,0.73,4.57c-0.05,4.7-4.78,8.05-9.04,6.3c-4.53-1.87-5.19-7.43-2.06-10.82
				c0.92-0.99,2.09-1.8,3.12-2.67c2.94-2.47,5.89-4.94,8.83-7.41C84.35,22.52,81.36,19.56,79.3,21.29z"/>
		</g>
	</g>
</g>
</svg>
