<?xml version="1.0" encoding="utf-8"?>
<!-- Generator: Adobe Illustrator 27.8.1, SVG Export Plug-In . SVG Version: 6.00 Build 0)  -->
<svg version="1.1" id="Слой_1" xmlns="http://www.w3.org/2000/svg" xmlns:xlink="http://www.w3.org/1999/xlink" x="0px" y="0px"
	 viewBox="0 0 100 100" style="enable-background:new 0 0 100 100;" xml:space="preserve">
<style type="text/css">
	.st0{fill:#FFFFFF;}
</style>
<g>
	<g>
		<g>
			<path class="st0" d="M63.21,63.55c-7.39,6.91-19.09,7.42-26.41,0c-7.14-7.24-7.23-19.18,0-26.41c7.02-7.02,18.62-7.2,25.89-0.49
				C70.55,43.92,70.33,55.93,63.21,63.55c-1.84,1.97,1.12,4.95,2.97,2.97c8.5-9.1,9.03-23.32,0-32.35c-8.8-8.8-23.55-8.8-32.35,0
				c-8.8,8.8-8.8,23.55,0,32.35c9.03,9.03,23.25,8.5,32.35,0C68.15,64.67,65.18,61.71,63.21,63.55z"/>
		</g>
	</g>
	<g>
		<g>
			<path class="st0" d="M47.9,8.65c0,3.55,0,7.11,0,10.66c0,2.7,4.2,2.71,4.2,0c0-3.55,0-7.11,0-10.66
				C52.1,5.95,47.9,5.94,47.9,8.65L47.9,8.65z"/>
		</g>
	</g>
	<g>
		<g>
			<path class="st0" d="M27.51,15.25c1.78,3.08,3.55,6.15,5.33,9.23c1.35,2.34,4.98,0.23,3.63-2.12c-1.78-3.08-3.55-6.15-5.33-9.23
				C29.79,10.79,26.16,12.9,27.51,15.25L27.51,15.25z"/>
		</g>
	</g>
	<g>
		<g>
			<path class="st0" d="M13.13,31.14c3.08,1.78,6.15,3.55,9.23,5.33c2.35,1.35,4.46-2.27,2.12-3.63c-3.08-1.78-6.15-3.55-9.23-5.33
				C12.9,26.16,10.79,29.79,13.13,31.14L13.13,31.14z"/>
		</g>
	</g>
	<g>
		<g>
			<path class="st0" d="M8.65,52.1c3.55,0,7.11,0,10.66,0c2.7,0,2.71-4.2,0-4.2c-3.55,0-7.11,0-10.66,0
				C5.95,47.9,5.94,52.1,8.65,52.1L8.65,52.1z"/>
		</g>
	</g>
	<g>
		<g>
			<path class="st0" d="M15.25,72.49c3.08-1.78,6.15-3.55,9.23-5.33c2.34-1.35,0.23-4.98-2.12-3.63c-3.08,1.78-6.15,3.55-9.23,5.33
				C10.79,70.21,12.9,73.84,15.25,72.49L15.25,72.49z"/>
		</g>
	</g>
	<g>
		<g>
			<path class="st0" d="M31.14,86.87c1.78-3.08,3.55-6.15,5.33-9.23c1.35-2.35-2.27-4.46-3.63-2.12c-1.78,3.08-3.55,6.15-5.33,9.23
				C26.16,87.1,29.79,89.21,31.14,86.87L31.14,86.87z"/>
		</g>
	</g>
	<g>
		<g>
			<path class="st0" d="M52.1,91.35c0-3.55,0-7.1,0-10.66c0-2.7-4.2-2.71-4.2,0c0,3.55,0,7.11,0,10.66
				C47.9,94.05,52.1,94.06,52.1,91.35L52.1,91.35z"/>
		</g>
	</g>
	<g>
		<g>
			<path class="st0" d="M72.49,84.75c-1.78-3.08-3.55-6.15-5.33-9.23c-1.35-2.34-4.98-0.23-3.63,2.12c1.78,3.08,3.55,6.15,5.33,9.23
				C70.21,89.21,73.84,87.1,72.49,84.75L72.49,84.75z"/>
		</g>
	</g>
	<g>
		<g>
			<path class="st0" d="M86.87,68.86c-3.08-1.78-6.15-3.55-9.23-5.33c-2.35-1.35-4.46,2.27-2.12,3.63c3.08,1.78,6.15,3.55,9.23,5.33
				C87.1,73.84,89.21,70.21,86.87,68.86L86.87,68.86z"/>
		</g>
	</g>
	<g>
		<g>
			<path class="st0" d="M91.35,47.9c-3.55,0-7.11,0-10.66,0c-2.7,0-2.71,4.2,0,4.2c3.55,0,7.11,0,10.66,0
				C94.05,52.1,94.06,47.9,91.35,47.9L91.35,47.9z"/>
		</g>
	</g>
	<g>
		<g>
			<path class="st0" d="M84.75,27.51c-3.08,1.78-6.15,3.55-9.23,5.33c-2.34,1.35-0.23,4.98,2.12,3.63c3.08-1.78,6.15-3.55,9.23-5.33
				C89.21,29.79,87.1,26.16,84.75,27.51L84.75,27.51z"/>
		</g>
	</g>
	<g>
		<g>
			<path class="st0" d="M68.86,13.13c-1.78,3.08-3.55,6.15-5.33,9.23c-1.35,2.35,2.27,4.46,3.63,2.12c1.78-3.08,3.55-6.15,5.33-9.23
				C73.84,12.9,70.21,10.79,68.86,13.13L68.86,13.13z"/>
		</g>
	</g>
</g>
</svg>
