<?xml version="1.0" encoding="utf-8"?>
<!-- Generator: Adobe Illustrator 27.8.1, SVG Export Plug-In . SVG Version: 6.00 Build 0)  -->
<svg version="1.1" id="Слой_1" xmlns="http://www.w3.org/2000/svg" xmlns:xlink="http://www.w3.org/1999/xlink" x="0px" y="0px"
	 viewBox="0 0 100 100" style="enable-background:new 0 0 100 100;" xml:space="preserve">
<style type="text/css">
	.st0{fill:#FFFFFF;}
</style>
<g>
	<g>
		<g>
			<path class="st0" d="M55.97,71.44c-0.88-0.8-1.59-1.36-2.54-2.07c0.35,0.6,0.69,1.21,1.04,1.81c0-20.38,0.54-40.84,0-61.21
				c-0.14-5.16-2.99-8.88-8.36-9.34c-5.97-0.51-11.28,1.91-11.78,8.44c-0.74,9.55,0,19.45,0,29.03c0,11.03,0,22.05,0,33.08
				c0.35-0.6,0.69-1.21,1.04-1.81c-11.74,8.76-8.18,28.33,7.39,29.9C58.26,100.83,65.84,82.36,55.97,71.44
				c-1.82-2.01-4.78,0.97-2.97,2.97c5.39,5.96,4.47,15.54-3.03,19.42c-7.14,3.69-16.11-0.74-17.55-8.65
				c-0.56-3.08,0.13-6.36,1.88-8.95c1.32-1.95,3.62-2.79,4.23-5.04c0.22-0.8,0-1.96,0-2.78c0-13.01,0-26.02,0-39.03
				c0-5.71,0-11.43,0-17.14c0-1-0.16-2.16,0-3.16c0.95-5.75,10.77-5.9,11.74-0.08c0.51,3.06,0,6.64,0,9.72c0,7.13,0,14.25,0,21.38
				c0,7.72,0,15.45,0,23.17c0,2.16-0.05,4.33,0,6.49c0.05,2.48,0.68,2.81,2.73,4.67C55,76.23,57.98,73.26,55.97,71.44z"/>
		</g>
	</g>
	<g>
		<g>
			<path class="st0" d="M61.76,20.37c2.7,0,5.4,0,8.1,0c2.7,0,2.71-4.2,0-4.2c-2.7,0-5.4,0-8.1,0
				C59.06,16.17,59.05,20.37,61.76,20.37L61.76,20.37z"/>
		</g>
	</g>
	<g>
		<g>
			<path class="st0" d="M61.76,27.98c1.88,0,3.77,0,5.65,0c2.7,0,2.71-4.2,0-4.2c-1.88,0-3.77,0-5.65,0
				C59.06,23.78,59.05,27.98,61.76,27.98L61.76,27.98z"/>
		</g>
	</g>
	<g>
		<g>
			<path class="st0" d="M61.76,35.59c2.7,0,5.4,0,8.1,0c2.7,0,2.71-4.2,0-4.2c-2.7,0-5.4,0-8.1,0
				C59.06,31.39,59.05,35.59,61.76,35.59L61.76,35.59z"/>
		</g>
	</g>
	<g>
		<g>
			<path class="st0" d="M61.76,43.19c1.88,0,3.77,0,5.65,0c2.7,0,2.71-4.2,0-4.2c-1.88,0-3.77,0-5.65,0
				C59.06,38.99,59.05,43.19,61.76,43.19L61.76,43.19z"/>
		</g>
	</g>
	<g>
		<g>
			<path class="st0" d="M61.76,50.8c2.7,0,5.4,0,8.1,0c2.7,0,2.71-4.2,0-4.2c-2.7,0-5.4,0-8.1,0C59.06,46.6,59.05,50.8,61.76,50.8
				L61.76,50.8z"/>
		</g>
	</g>
	<g>
		<g>
			<path class="st0" d="M61.76,58.41c1.88,0,3.77,0,5.65,0c2.7,0,2.71-4.2,0-4.2c-1.88,0-3.77,0-5.65,0
				C59.06,54.21,59.05,58.41,61.76,58.41L61.76,58.41z"/>
		</g>
	</g>
	<g>
		<g>
			<path class="st0" d="M47.83,83.07c-0.24,4.39-6.85,4.43-6.85,0C40.98,78.64,47.59,78.68,47.83,83.07c0.14,2.69,4.35,2.71,4.2,0
				c-0.22-4.13-3.32-7.63-7.63-7.63c-4.15,0-7.61,3.49-7.63,7.63c-0.02,4.03,3.31,7.45,7.33,7.61c4.43,0.17,7.7-3.35,7.93-7.61
				C52.18,80.37,47.98,80.38,47.83,83.07z"/>
		</g>
	</g>
	<g>
		<g>
			<path class="st0" d="M42.3,11.21c0,22.11,0,44.23,0,66.34c0,2.7,4.2,2.71,4.2,0c0-22.11,0-44.23,0-66.34
				C46.5,8.5,42.3,8.5,42.3,11.21L42.3,11.21z"/>
		</g>
	</g>
</g>
</svg>
