<?xml version="1.0" encoding="utf-8"?>
<!-- Generator: Adobe Illustrator 27.8.1, SVG Export Plug-In . SVG Version: 6.00 Build 0)  -->
<svg version="1.1" id="Слой_1" xmlns="http://www.w3.org/2000/svg" xmlns:xlink="http://www.w3.org/1999/xlink" x="0px" y="0px"
	 viewBox="0 0 100 100" style="enable-background:new 0 0 100 100;" xml:space="preserve">
<style type="text/css">
	.st0{fill:#FFFFFF;}
</style>
<g>
	<g>
		<g>
			<g>
				<path class="st0" d="M12.68,44.9c6.88,0.01,13.76,0.02,20.63,0.03c5.43,0.01,10.87,0.01,16.3,0.01c4.4,0,9.05,0.2,13.15-1.68
					c8.09-3.71,8.79-14.69,0.24-18.38c-8.01-3.46-15.97,2.65-12.64,11.08c0.98,2.48,5.05,1.4,4.05-1.12
					c-2.09-5.28,2.36-8.26,7.18-5.93c6.66,3.21,2.62,9.93-2.78,11.27c-5.82,1.44-12.61,0.56-18.58,0.55
					c-9.19-0.01-18.37-0.02-27.56-0.04C9.98,40.7,9.98,44.9,12.68,44.9L12.68,44.9z"/>
			</g>
		</g>
	</g>
	<g>
		<g>
			<g>
				<path class="st0" d="M11.43,53c17.51-0.03,35.01-0.06,52.52-0.08c9.1-0.01,26.51,1.05,27.36-11.82
					c0.84-12.6-20.98-12.44-17.09-0.35c0.82,2.56,4.88,1.47,4.05-1.12c-0.85-2.65,2.7-4.37,4.98-3.75c2.74,0.74,4.15,3.13,3.54,5.93
					c-0.85,3.93-4.97,5.61-8.51,6.32c-4.07,0.82-8.33,0.59-12.47,0.59c-6.91,0.01-13.81,0.02-20.72,0.03
					c-11.22,0.02-22.45,0.04-33.67,0.06C8.73,48.8,8.72,53,11.43,53L11.43,53z"/>
			</g>
		</g>
	</g>
	<g>
		<g>
			<g>
				<path class="st0" d="M50.88,63.74c-3.27,1.58-4.8,5.47-2.88,8.78c1.94,3.34,6.36,4.03,9.78,3.04
					c8.04-2.33,10.24-12.95,2.42-17.07c-3.5-1.84-7.71-1.79-11.55-1.8c-5.44-0.01-10.88-0.03-16.32-0.06
					c-7.21-0.04-14.41-0.09-21.62-0.16c-2.7-0.02-2.71,4.18,0,4.2c7.93,0.07,15.85,0.13,23.78,0.17c5.7,0.03,11.43-0.13,17.12,0.06
					c2.44,0.08,5.36,0.24,7.39,1.73c2.37,1.74,2.51,4.89,0.63,7.08c-1.01,1.02-2.21,1.67-3.61,1.97c-3.18,0.8-4.19-0.65-3.03-4.33
					C55.43,66.19,53.3,62.57,50.88,63.74L50.88,63.74z"/>
			</g>
		</g>
	</g>
</g>
</svg>
