<?xml version="1.0" encoding="utf-8"?>
<!-- Generator: Adobe Illustrator 27.8.1, SVG Export Plug-In . SVG Version: 6.00 Build 0)  -->
<svg version="1.1" id="Слой_1" xmlns="http://www.w3.org/2000/svg" xmlns:xlink="http://www.w3.org/1999/xlink" x="0px" y="0px"
	 viewBox="0 0 500 285" style="enable-background:new 0 0 500 285;" xml:space="preserve">
<style type="text/css">
	.st0{fill:#2D4573;}
</style>
<g>
	<g>
		<path class="st0" d="M499.74,237.96h-0.22v-31.57l-43.81-23.48l-24.4-20.27l-16.63-18.08l-21.63,13.15l-24.4,9.31l-12.2-14.24
			l-9.43-10.96c0,0-9.43-12.05-12.2-19.17c-2.77-7.12-22.18-29.03-22.18-29.03s-4.99-1.64-8.32-2.74
			c-3.33-1.1-16.08-5.48-17.74-6.57c-1.66-1.1-23.84-23.55-24.95-26.29C260.54,55.27,247.23,35,247.23,35s-28.83,10.96-30.5,14.79
			c-1.66,3.83-19.96,26.29-19.96,26.29l-17.74,27.94l-28.83,20.82c0,0-3.33,4.38-5.54,3.83c-2.22-0.55-8.32-7.12-9.98-7.67
			c-1.66-0.55-3.33-1.64-3.33-1.64l-22.73,11.5l-10.54,18.62c0,0-18.3,3.83-21.07,8.76c-2.77,4.93-20.97,22.19-20.97,22.19
			l-16.73-5.75l-14.97,15.89l-4.31,15.81L0.48,226.18v11.78H0c-0.23,0.26,20.4,15.1,20.4,15.1l11.95-1.77l10.21,6.16l17.3-1.4
			l9.09,4.58l12.05-2.86l12.8,12.08l25.45-4.44l78.1,19.59l56.99-18.62l8.43,9.27l14.47-5.76l40.15,11.35l42.55-9.99l34.2-5.72
			l22.9-2.31l36.88-11.13l1.63-0.49L500,238.17L499.74,237.96z M364.78,195.5c0.55-0.55,12.75-9.86,13.31-9.86s4.99-6.57,4.99-6.57
			s-1.11-2.74-1.11-3.29s-7.76,4.38-7.76,4.38l-5.54,3.83l-2.77-4.38l6.1-9.31l22.18-8.76l6.1-3.29l12.2-7.12l-3.33,21.36l-6.1,1.1
			l-6.65,14.79l-12.2,4.38l-25.51,11.5C358.68,204.27,364.23,196.05,364.78,195.5z M278.28,121l6.1-7.12l9.98-12.05l-11.64,7.12
			l-3.33-1.64l2.77-6.57c0,0,7.76-1.2,7.76-1.97s1.11-3.51,1.11-3.51l-1.66-2.74l15.53,4.93l3.33,2.19l-7.76,10.41L299.9,121
			l-9.43,4.38l-7.73,11.09l-11.12,16.84l8.87-25.75L278.28,121z M95.85,167.56l5.54-8.22l-0.55-4.93l9.15-17.94l13.03-7.26
			l-4.99,21.36l1.11,6.57l-4.44,6.57l-0.89,9.37l-13.53,21.85l-8.32,15.34l12.2-36.7L95.85,167.56z M64.24,194.41l-0.55-9.31
			l2.97-4.66L77,167.56l1.11,7.12l-2.77,3.83l-5.54,10.96l-9.98,15.89L64.24,194.41z M25.98,212.48l0.55-4.38l2.77-5.48l-3.05-2.54
			l1.39-7.32l8.32-8.76l-4.99,34.51l-8.32,2.74l-6.1,2.74L25.98,212.48z M131.75,243.83l19-43.4l9.43-25.2
			c0,0,12.75-12.05,12.75-12.6s8.84-35.68,8.84-35.68l-16.04,12.13l-11.37,9.34l9.15-18.1l9.43-12.6l11.09-10.96l6.1-6.03
			l15.53-25.75l14.42-19.72l24.95-13.69l-1.66,54.78c0,0-10.54,13.15-10.54,14.24c0,1.1-5.54,8.22-5.54,8.22l-6.1,5.48v4.93
			l9.98-7.67l7.76-5l-2.22,7.74l-7.21,6.03l1.66,8.76l-8.32,8.76l-1.11,8.22l-1.11,4.93l-16.63,1.64c0,0-7.21,11.5-9.43,13.15
			c-2.22,1.64-4.99,5.48-4.99,5.48l-12.75,5.48l-7.21,10.41l-3.44,7.12l11.43-7.12l15.3-11.5l7.21,3.29l-1.66,6.03l-10.54,5.48
			l-7.76,15.34l-19.41,6.03l-23.37,16.16L131.75,243.83z"/>
	</g>
</g>
</svg>
