<?xml version="1.0" encoding="utf-8"?>
<!-- Generator: Adobe Illustrator 27.8.1, SVG Export Plug-In . SVG Version: 6.00 Build 0)  -->
<svg version="1.1" id="Слой_1" xmlns="http://www.w3.org/2000/svg" xmlns:xlink="http://www.w3.org/1999/xlink" x="0px" y="0px"
	 viewBox="0 0 500 285" style="enable-background:new 0 0 500 285;" xml:space="preserve">
<style type="text/css">
	.st0{fill:#2D4573;}
</style>
<g>
	<g>
		<path class="st0" d="M499.74,238.31h-6.84c1.76,0,7.45-1.1,6.52-3.62c-1.43-3.86-3.2-7.59-5.13-11.25
			c-1.58-3.03-2.97-7.26-6.67-8.47c-3.73-1.23-7.43,0.84-11.19,0.35c-4.12-0.54-7.77-3.01-11.11-5.19
			c-0.33-0.21-0.66-0.32-0.97-0.35c-0.12-0.09-0.25-0.18-0.37-0.28c-6.33-4.83-13.44-9.36-18.98-15.04
			c-4.52-4.63-5.57-11.65-11.84-14.72c-5.08-2.48-11.88-2-16.37-5.51c-6.28-4.9-5.15-21.27-17.06-18.59
			c-2.47,0.56-4.48,2.18-6.23,3.84c-1.74,1.66-3.55,4.1-5.94,4.96c-2.82,1.02-7.6-1.01-10.08-2.26c-3.21-1.63-5.88-3.89-8.05-6.64
			c-3.88-4.92-7.51-11.66-14.74-12.3c-4.46-0.39-10.05,1.85-11.07,6.12c-10.98-1.82-18.74-11.27-24.5-19.66
			c-6.28-9.16-12.31-19.05-22.6-24.65c-0.9-0.49-1.89-0.29-2.64,0.32c-4.95,4-6.11,10.31-10.41,14.71
			c-2.19,2.24-5.52,4.24-8.72,2.62c-3.09-1.57-5.62-4.93-8.04-7.29c-11.08-10.81-22.3-21.51-33.2-32.49
			c-9.69-9.77-18.96-20.1-25.48-32.08c-0.77-1.42-1.32-3.2-2.28-4.5c-0.83-1.12-2.28-1.14-3.61-1.26c-2.85-0.24-5.81,0.19-8.49,1.14
			c-5.77,2.05-10.47,6.06-14.18,10.63c-7.76,9.57-10.07,21.91-17.48,31.66c-1.9,2.51-4.2,4.74-6.85,6.54
			c-2.84,1.92-5.92,3.54-8.4,5.89c-4.82,4.55-7.95,10.72-11.99,15.88c-8.52,10.88-18.77,20.64-30.21,28.75
			c-2.82,2-5.69,4.12-8.88,5.55c-3.54,1.58-6.62,1.36-9.86-0.65c-2.39-1.48-4.68-3.27-7.55-3.8c-2.8-0.52-5.55,0.22-7.84,1.77
			c-2.43,1.65-4.24,3.89-6.01,6.14c-2.44,3.11-4.87,6.22-7.31,9.34c-4.96,6.35-9.93,12.69-14.89,19.04
			c-9.74,12.45-19.48,24.9-29.22,37.36c-2.27,2.9-4.53,5.79-6.8,8.69c-1.03,0.79-2.16,1.46-3.05,2.43
			c-1.14,1.25-1.93,2.62-2.55,4.16c-0.39,0.98,0.44,2.36,1.52,2.55c0.88,0.15,1.68,0.19,2.5,0.06c0.22,0.08,0.48,0.12,0.76,0.12H0
			c-0.23,0.26,20.4,14.99,20.4,14.99l11.95-1.75l10.21,6.11l17.3-1.39l9.09,4.54l12.05-2.83l12.8,11.99l25.45-4.4l78.1,19.44
			l56.99-18.48l8.43,9.2l14.47-5.72l40.15,11.26l42.55-9.91l34.2-5.68l22.9-2.3l36.88-11.05l1.63-0.48L500,238.52L499.74,238.31z
			 M415.42,191.14c0.41-1.37,1.14-2.77,2.27-3.68c-0.03-0.22,0.08-0.43,0.28-0.58c1.2-0.9,2.43-1.76,3.7-2.57
			c0.6-0.38,1.2-0.81,1.84-1.11c0.53-0.24,1.17-0.29,1.58,0.18c0.39,0.44,0.36,1.14,0.42,1.69c0.06,0.59,0.15,1.17,0.43,1.7
			c0.26,0.49,0.58,0.97,0.53,1.55c-0.04,0.52-0.38,0.95-0.81,1.24c-0.52,0.35-1.16,0.41-1.71,0.71c-0.43,0.23-0.74,0.62-1.04,0.98
			c-0.72,0.85-1.45,1.54-2.58,1.81c-1.11,0.26-2.29,0.17-3.41,0.01C415.84,192.92,415.07,192.27,415.42,191.14z M402.31,206.74
			c-0.33,0.61-0.8,1.16-1.28,1.66c-0.3,0.3-0.62,0.53-1.06,0.58c-0.34,0.03-0.68-0.06-1.01-0.14c-0.4-0.1-0.79-0.2-1.19-0.3
			c-0.35-0.09-0.71-0.15-1.04-0.28c-0.4-0.15-0.7-0.49-0.68-0.93c0.02-0.36,0.22-0.67,0.45-0.94c0.53-0.61,1.12-1.18,1.67-1.76
			c0.56-0.6,1.13-1.19,1.69-1.78c0.1-0.1,0.21-0.15,0.31-0.17c0.63-0.27,1.42,0.1,1.85,0.56
			C402.95,204.21,402.91,205.61,402.31,206.74z M372.37,192.18c1.61-1.95,3.23-3.9,4.84-5.85c2.81-3.4,5.51-6.94,8.62-10.08
			c1.55-1.57,3.13-3.11,4.7-4.66c0.15-0.15,0.3-0.29,0.45-0.44c0.02-0.05,0.05-0.09,0.09-0.12c0.78-0.84,1.68-1.55,2.67-2.12
			c0.1-1.86,1.19-3.45,2.47-4.77c0.7-0.73,1.46-1.47,2.29-2.06c0.84-0.6,1.81-0.92,2.8-0.48c0.37,0.16,0.33,0.64,0.12,0.89
			c-0.59,0.71-1.26,1.55-1.4,2.49c-0.14,0.93,0.57,1.56,0.73,2.43c0.17,0.94-0.4,1.68-0.61,2.55c-0.23,0.95,0,1.95-0.12,2.92
			c-0.08,0.69-0.3,1.38-0.78,1.91c-0.54,0.59-1.3,0.76-2.05,0.95c-1.5,0.37-2.37,1.52-3.28,2.66c-0.45,0.57-0.92,1.12-1.46,1.62
			c-0.55,0.51-1.13,0.99-1.67,1.52c-0.51,0.51-0.98,1.07-1.26,1.74c-0.25,0.6-0.39,1.24-0.59,1.86c-0.4,1.28-1.1,2.47-2.55,2.75
			c-0.87,0.17-1.76,0.14-2.62,0.33c-0.81,0.18-1.62,0.44-2.38,0.78c-1.54,0.69-2.97,1.61-4.31,2.63c-1.25,0.95-2.77,2.09-4.44,1.53
			C372.19,192.98,372.1,192.52,372.37,192.18z M368.3,212.6c0.35-0.59,0.81-1.08,1.29-1.56c0-0.13,0.05-0.26,0.19-0.37
			c0.35-0.29,0.7-0.59,1.06-0.88c0.17-0.19,0.35-0.39,0.5-0.59c0.13-0.18,0.33-0.26,0.51-0.24c1.23-1.02,2.45-2.03,3.68-3.05
			c0.83-0.69,1.65-1.48,2.63-1.95c0.98-0.46,2.07-0.55,3.12-0.29c0.38,0.09,0.51,0.52,0.35,0.83c-0.51,0.96-1.21,1.82-1.75,2.76
			c-0.54,0.96-0.8,2.02-1.12,3.06c-0.49,1.58-1.26,3.26-2.89,3.98c-0.9,0.4-1.89,0.57-2.83,0.81c-0.96,0.24-1.92,0.55-2.92,0.6
			c-0.79,0.04-2.01-0.11-2.28-0.99C367.62,214.03,367.95,213.19,368.3,212.6z M335.19,170.7c1.56-2.6,3.37-5.08,5.21-7.49
			c1.5-1.95,3.08-3.86,4.72-5.7c-0.07-0.15-0.08-0.32,0.05-0.5c1.91-2.8,4.21-5.32,6.85-7.47c0.43-0.35,1.1-0.03,0.96,0.55
			c-0.33,1.4-0.26,2.85,0.21,4.22c0.43,1.25,1.32,2.32,1.64,3.62c0.31,1.25-0.08,2.42-0.51,3.59c-0.48,1.3-0.96,2.59-1.43,3.88
			c-0.2,0.55-0.35,1.27-0.77,1.72c-0.35,0.38-0.85,0.53-1.37,0.52c-0.56,0-1.11-0.11-1.67-0.1c-0.59,0.02-1.18,0.11-1.75,0.26
			c-4.82,1.28-7.7,5.85-12.21,7.72c-0.35,0.15-0.71,0.04-0.85-0.34C333.72,173.62,334.39,172.04,335.19,170.7z M311.47,231.32
			c0.93-2.46,2.24-4.76,3.88-6.82c-0.1-0.15-0.11-0.34,0.03-0.53c1.75-2.52,3.5-5.04,5.24-7.55c0.71-1.02,1.41-2.04,2.14-3.06
			c0.75-1.05,1.51-2.09,2.31-3.11c1.58-1.99,3.34-3.79,5.3-5.43c4.16-3.5,8.51-6.81,12.77-10.2c0.52-0.41,1.19,0.09,0.91,0.69
			c-1.65,3.5-3.72,6.8-6.15,9.84c-0.64,0.81-1.36,1.57-2.04,2.35c-0.41,0.47-0.8,0.95-1.16,1.46c-0.45,0.64-0.74,1.31-0.94,2.05
			c-0.2,0.7-0.43,1.43-1.01,1.93c-0.56,0.49-1.3,0.65-1.94,1.02c-0.63,0.36-1.09,0.91-1.45,1.52c-0.83,1.38-1.28,3.01-1.69,4.54
			c-0.23,0.85-0.43,1.71-0.6,2.58c-0.15,0.76-0.18,1.63-0.74,2.24c-0.5,0.56-1.33,0.75-2.01,1.02c-0.86,0.33-1.71,0.68-2.55,1.05
			c-3.28,1.43-9.28,8.26-12.28,10.18C309.07,237.34,311.3,231.78,311.47,231.32z M254.2,166.72c1.34-2.42,2.68-4.84,4.02-7.25
			c1.09-1.95,2.12-3.96,3.53-5.71c1.39-1.73,3.27-2.97,4.81-4.57c0.8-0.83,1.53-1.71,2.25-2.61c0.35-0.44,0.77-0.87,1.03-1.37
			c0.29-0.54,0.03-0.96-0.03-1.52c-0.09-0.73,0.28-1.37,0.72-1.93c0.26-0.33,0.7-0.75,0.81-1.2c-0.51,0-1.03-0.01-1.54-0.01
			c-0.35,0-0.69-0.36-0.56-0.72c0.94-2.56,2.05-5.05,3.32-7.47c0.57-1.08,1.18-2.15,1.81-3.19c0.55-0.9,1.1-1.91,2.08-2.43
			c0.92-0.48,1.97-0.49,2.98-0.59c0.98-0.1,1.75-0.45,2.5-1.07c0.69-0.56,1.34-1.21,2.14-1.63c0.42-0.22,0.86-0.37,1.33-0.41
			c0.5-0.05,1.04,0.08,1.47-0.23c0.46-0.34,0.78-0.91,1.11-1.36c0.37-0.51,0.74-1.01,1.11-1.52c0.56-0.78,1.13-1.56,1.7-2.35
			c-0.05-0.21,0.02-0.43,0.28-0.55c0.38-0.17,0.47-0.71,0.66-1.04c0.23-0.42,0.6-0.75,1.11-0.73c0.7,0.02,1.19,0.73,1.57,1.23
			c0.4,0.53,0.7,1.12,0.94,1.74c0.91,2.31,0.75,4.91,0.59,7.33c-0.08,1.14-0.49,2.85,0.38,3.79c0.36,0.39,0.88,0.58,1.36,0.28
			c0.45-0.27,0.78-0.7,1.22-0.98c0.98-0.63,2.12-0.04,2.24,1.08c0.13,1.15-0.65,2.26-1.42,3.05c-0.86,0.88-1.94,1.54-2.72,2.5
			c-0.71,0.88-1.3,2.15-0.58,3.18c0.25,0.35-0.08,0.87-0.5,0.85c-1.9-0.1-3.25,1.48-4.34,2.79c-1.09,1.31-2.27,2.66-4.01,3.11
			c-1.59,0.41-3.47,0.04-4.76,1.22c-0.61,0.56-1.08,1.27-1.53,1.96c-0.47,0.72-0.9,1.47-1.29,2.24c-0.39,0.79-0.71,1.61-1.03,2.43
			c-0.27,0.72-0.6,1.44-1.21,1.95c-0.6,0.5-1.34,0.78-2.09,1.01c-0.85,0.26-1.69,0.52-2.52,0.83c-6.65,2.43-12.47,6.58-18.17,10.64
			C254.49,167.84,253.95,167.17,254.2,166.72z M103.82,161.34c1.37-1.02,2.56-2.27,3.5-3.68c0.96-1.44,1.71-2.99,2.82-4.33
			c1.08-1.3,2.37-2.4,3.69-3.46c1.41-1.13,2.82-2.26,4.2-3.42c5.12-4.3,10.04-8.85,14.9-13.43c2.36-2.22,4.65-4.53,6.56-7.14
			c1.81-2.47,3.35-5.12,5.2-7.55c0.93-1.22,1.96-2.35,3.02-3.45c1.11-1.14,2.09-2.35,2.93-3.69c0.74-1.18,1.42-2.39,2.14-3.57
			c0.83-1.38,1.72-2.72,2.83-3.94c2.08-2.29,4.59-4.15,7.04-6.03c2.63-2.02,5.25-4.03,7.89-6.05c-0.58-1.19-0.33-2.58,0.14-3.8
			c0.62-1.59,1.49-3.11,2.27-4.63c2.96-5.68,6.22-11.22,9.75-16.58c1.77-2.68,3.61-5.31,5.51-7.9c0.94-1.28,1.89-2.56,2.88-3.81
			c0.77-0.98,1.77-1.99,3.14-1.9c0.24,0.01,0.51,0.16,0.56,0.41c0.13,0.72,0.41,1.36,0.88,1.91c0.76,0.44,1.28,1.2,1.5,2.05
			c0.33,1.22,0.08,2.46-0.56,3.54c-1.25,2.14-4.23,3.77-4.75,6.28c0.91-0.6,1.88-1.1,2.92-1.47c0.2-0.07,0.41,0.01,0.56,0.14
			c1.09,0.96,0.98,2.45,0.56,3.71c-0.51,1.55-1.36,2.99-1.93,4.52c-1.19,3.19-1.89,6.53-2.1,9.92c2.04-0.63,4.16-0.9,6.3-0.83
			c3.47-3.2,8.78-4.26,13.22-2.52c0.4,0.15,0.58,0.61,0.25,0.95c-2.86,2.91-5.27,6.21-7.16,9.8c-0.83,1.59-1.55,3.22-2.16,4.9
			c-0.08,0.22-0.13,0.49-0.33,0.64c-0.15,0.12-0.36,0.17-0.53,0.25c-0.36,0.17-0.72,0.35-1.07,0.54c-0.73,0.41-1.43,0.87-2.08,1.4
			c-1.32,1.07-2.45,2.35-3.31,3.79c-0.82,1.37-1.39,2.88-2.42,4.12c-1.16,1.41-2.78,1.86-4.39,2.59c-1.51,0.7-2.86,1.67-4.06,2.8
			c-2.15,2.04-3.81,4.5-5.37,6.99c2.46-0.24,4.92-0.49,7.39-0.73c0.55-0.05,0.68,0.63,0.41,0.96c-2.09,2.5-4.19,5.01-6.28,7.51
			c-3.75,4.48-7.49,8.96-11.24,13.44c-0.39,0.47-1.06,1.04-1.23,1.64c-0.15,0.5,0.3,0.97,0.41,1.45c0.27,1.14-0.64,2.18-1.27,3.05
			c-1.22,1.66-2.76,3.34-4.94,3.64c-0.25,0.03-0.52-0.02-0.65-0.26c-0.93-1.73-2.78-2.89-4.77-3.03c-2.49-0.18-4.4,1.44-6.28,2.81
			c-1.9,1.39-3.76,2.87-5.75,4.13c-1.19,0.75-2.47,1.34-3.82,1.56c-0.72,0.13-1.46,0.15-2.23,0.05c-1.12-0.15-2.22-0.48-3.36-0.48
			c-0.81,0-1.61,0.16-2.38,0.4c-1.67,0.51-3.21,1.38-4.76,2.15c-1.47,0.73-3.01,1.43-4.66,1.62c-0.78,0.09-1.57,0.04-2.32-0.16
			c-0.96-0.26-1.75-0.85-2.66-1.22c-1.16-0.48-2.31,0.01-3.41,0.42c-1.19,0.45-2.38,0.9-3.57,1.34c-2.38,0.9-4.77,1.79-7.15,2.69
			C103.59,162.63,103.35,161.69,103.82,161.34z M201.78,123.38c-2.62,3.32-5.25,6.66-7.31,10.35c-1.81,3.25-2.99,6.78-5.29,9.77
			c-2.33,3.02-5.19,5.63-7.9,8.33c-0.66,0.65-1.31,1.3-2.04,1.88c-0.73,0.57-1.52,1.04-2.34,1.47c-0.82,0.44-1.64,0.87-2.39,1.41
			c-0.77,0.55-1.47,1.18-2.15,1.83c-2.88,2.75-5.63,5.65-8.44,8.48c-0.44,0.45-1.03-0.03-0.96-0.55c0.43-3.06,2.28-5.64,4.06-8.1
			c1.99-2.74,3.72-5.6,4.99-8.73c0.17-0.43,0.68-0.46,0.96-0.26c1.82-1.94,3.64-3.87,5.45-5.8c3.7-3.93,7.32-7.93,11.14-11.73
			c3.48-3.47,7.24-6.72,11.51-9.23C201.69,122.14,202.15,122.91,201.78,123.38z M19.29,225.92c1.15-2.2,2.3-4.42,3.81-6.42
			c0.72-0.96,1.51-1.86,2.39-2.68c0.93-0.85,1.93-1.61,2.87-2.44c1.63-1.43,2.77-3.15,3.8-5.02c0.98-1.78,1.91-3.62,3.23-5.19
			c1.42-1.69,3.35-2.89,4.75-4.59c1.38-1.66,2.19-3.69,3.2-5.57c0.96-1.8,2.17-3.4,3.7-4.78c1.49-1.34,3.18-2.47,4.91-3.52
			c1.63-0.99,3.46-1.94,5.13-3.07c1.47-0.99,2.81-2.13,3.76-3.57c-2.09,0.37-4.18,0.73-6.28,1.1c-0.48,0.09-0.91-0.37-0.65-0.83
			c0.99-1.7,2.03-3.37,3.13-5.01c3.85-5.7,8.39-10.96,13.47-15.64c0.25-0.23,0.74-0.23,0.9,0.11c1.15,2.37,2.3,4.74,3.45,7.1
			c0.23-0.09,0.51-0.05,0.67,0.24c0.25,0.46,1.19,0.01,1.57-0.1c0.66-0.18,1.39-0.35,2.06-0.09c0.72,0.28,1.06,0.97,1.18,1.68
			c0.07,0.4,0.01,1.55,0.49,1.72c0.29,0.11,0.49,0.38,0.4,0.69c-0.38,1.3-1.38,2.18-2.26,3.16c-0.68,0.75-1.33,1.82-0.98,2.86
			c0.18,0.53,0.61,0.73,1.17,0.7c0.78-0.03,1.52-0.29,2.32-0.27c1.44,0.04,2.8,0.5,4.21,0.76c1.29,0.24,2.52,0.18,3.68-0.49
			c0.99-0.57,1.83-1.37,2.75-2.04c1.49-1.09,3.77-1.82,5.48-0.73c0.8,0.51,1.26,1.4,1.21,2.33c-0.06,1.24-0.88,2.28-1.61,3.23
			c-0.43,0.56-0.89,1.25-1.04,1.97c-0.06,0.26-0.08,0.53-0.04,0.81c0.18,1.27,1.82,1.02,2.77,0.96c3.09-0.21,6.13-0.94,9.15-1.56
			c3-0.61,6.01-1.23,9.01-1.85c2.83-0.58,5.69-1.08,8.46-1.91c1.39-0.42,2.75-0.94,4.02-1.62c1.18-0.63,2.29-1.36,3.62-1.64
			c0.49-0.11,0.89,0.38,0.65,0.83c-1.21,2.21-2.42,4.43-3.9,6.48c-2.49,3.45-5.77,6.2-9.26,8.63c-3.72,2.6-7.64,4.92-11.69,6.98
			c-0.25,0.12-0.66,0.08-0.79-0.2c-0.57-1.28-1.14-2.55-1.72-3.83c-1.01-0.12-2.06,0-3,0.38c-1.01,0.4-1.87,1.07-2.79,1.62
			c-1.62,0.98-3.44,1.64-5.31,1.96c-3.76,0.66-7.7,0.03-11-1.89c-0.27-0.16-0.36-0.5-0.21-0.77c0.11-0.19,0.15-0.38,0.15-0.56
			c0-0.88-1.17-1.55-2-1.56c-1.48,0-2.78,0.9-4.09,1.46c-0.64,0.27-1.29,0.49-1.99,0.56c-0.77,0.08-1.53-0.07-2.29-0.08
			c-1.46-0.03-2.78,0.6-3.99,1.34c-4.34,2.67-8.19,6.23-11.39,10.13c-1.55,1.89-2.82,4.13-4.82,5.61c-1.93,1.43-4.34,1.93-6.66,2.36
			c-2.55,0.47-5.04,1.05-7.47,1.95c-2.46,0.92-4.81,2.11-7.01,3.52c-4.06,2.6-7.81,5.9-12.63,7.08
			C19.44,226.87,19.06,226.35,19.29,225.92z M95.94,244.43c-0.14-0.14,5.31-6.47,5.38-6.66c0.27-0.7,0.94-0.92,1.52-1.32
			c0.52-0.36,0.98-0.83,1.33-1.35c0.19-0.28,0.33-0.59,0.55-0.85c0.14-0.15,0.31-0.26,0.5-0.34c0.02-0.01,0.09-0.04,0.15-0.06
			c0-0.02,0-0.05,0-0.05c0.01-0.1,0.02-0.19,0.03-0.29c0.03-0.16,0.08-0.32,0.17-0.47c0.05-0.09,0.12-0.18,0.19-0.26
			c0.02-0.09,0.07-0.19,0.15-0.28c1.8-1.83,3.2-3.97,4.67-6.04c1.52-2.14,3.18-4.07,5.16-5.82c1.83-1.62,3.71-3.17,5.37-4.96
			c1.66-1.8,3.16-3.72,4.69-5.62c1.64-2.05,3.28-4.1,4.91-6.14c0.82-1.02,1.64-2.04,2.46-3.07c0.38-0.49,0.73-0.97,0.86-1.59
			c0.11-0.53,0.1-1.08,0.2-1.61c0.33-1.86,1.7-3.29,3.17-4.41c1.66-1.26,3.47-2.3,5.12-3.57c3.61-2.77,6.76-6.09,9.32-9.81
			c0.25-0.37,0.75-0.36,0.99,0c0.85,1.22-0.09,2.71-0.69,3.82c-0.73,1.36-1.52,2.67-2.34,3.97c-0.83,1.3-1.7,2.57-2.57,3.84
			c-0.84,1.22-1.64,2.52-2.66,3.61c-0.81,0.87-1.94,1.49-2.56,2.52c-0.53,0.88-0.68,1.93-1.17,2.83c-0.28,0.53-0.67,0.96-1.17,1.3
			c-0.45,0.3-0.93,0.52-1.27,0.95c-0.63,0.8-0.75,1.91-0.8,2.88c-0.03,0.6,0.03,1.24-0.17,1.81c-0.21,0.58-0.67,0.99-1.07,1.43
			c-0.78,0.88-1.33,1.95-1.63,3.07c-0.15,0.59-0.23,1.19-0.24,1.8c0,0.29,0.07,0.62,0.05,0.9c-0.02,0.28-0.21,0.48-0.38,0.69
			c-0.59,0.73-1.34,1.31-2.11,1.85c-0.76,0.55-1.56,1.05-2.23,1.72c-0.78,0.77-1.01,1.57-1.16,2.63c-0.36,2.5-2.63,3.63-4.49,5.03
			c-0.85,0.64-1.7,1.39-2.15,2.37c-0.46,0.99-0.37,2.09-1.42,2.73c-0.2,0.12-0.42,0.21-0.62,0.34c-0.05,0.03-0.1,0.06-0.15,0.1
			c0,0,0,0,0.01,0c0.18,0.02,0.46,0.24,0.61,0.34c0.2,0.14,0.38,0.29,0.54,0.47c0.7,0.8,0.96,1.92,0.62,2.93
			c-0.06,0.19-0.22,0.35-0.41,0.4c0.04,0.1,0.05,0.2,0.03,0.31c0,0.06,0,0.12,0,0.17c0.05,0.25,0.17,0.48,0.26,0.71
			c0.07,0.17,0.14,0.36,0.15,0.54c0.01,0.13-0.03,0.27-0.11,0.38L95.94,244.43z M147.6,238.31c0,0-0.01,0-0.01-0.01
			c-0.02-0.01-0.03-0.01-0.03-0.01h0c0,0,0,0,0,0h0c0,0-0.11-0.09-0.12-0.09c0,0,0,0,0,0c-0.02-0.02-0.05-0.06-0.05-0.06
			s-0.04-0.04-0.05-0.06c0,0,0,0,0,0c0,0-0.06-0.13-0.06-0.14v0c0,0,0,0,0-0.01c-0.01-0.05-0.02-0.1-0.02-0.15c0,0,0,0,0,0
			c0,0,0,0,0,0c0-0.05,0.01-0.1,0.02-0.15c0,0,0,0,0-0.01v0c0-0.01,0.05-0.12,0.06-0.14c0,0,0,0,0-0.01l0,0
			c0.01-0.01,0.08-0.1,0.09-0.11c0,0,0,0,0,0c0,0,0.01-0.01,0.01-0.01c0,0,0,0,0,0c0,0,0.01-0.01,0.02-0.01
			c0.02-0.02,0.03-0.03,0.04-0.05c0.07-0.06,0.14-0.11,0.22-0.13c0.34-0.81,0.72-1.6,1.16-2.37c1.86-3.24,4.51-5.95,7.16-8.57
			c2.8-2.76,5.61-5.49,7.83-8.74c1.24-1.82,2.39-3.7,3.81-5.4c1.32-1.59,2.91-2.92,4.46-4.28c1.53-1.34,3.05-2.72,4.17-4.41
			c1.07-1.61,1.81-3.4,2.55-5.17c0.73-1.75,1.47-3.53,2.55-5.11c0.53-0.78,1.14-1.51,1.82-2.17c0.68-0.65,1.42-1.25,2-1.99
			c0.65-0.81,0.83-1.66,0.93-2.67c0.09-0.95,0.29-1.83,0.91-2.58c1-1.22,2.61-1.71,3.94-2.46c0.76-0.43,1.41-0.96,1.86-1.72
			c0.51-0.85,0.77-1.82,1.04-2.76c0.58-2.03,1.34-4,2.31-5.88c0.97-1.89,2.14-3.68,3.48-5.34c1.29-1.6,2.78-3.04,4.06-4.66
			c0.64-0.8,1.21-1.66,1.66-2.58c0.49-1.01,0.76-2.09,1.13-3.14c0.72-2.05,1.89-3.85,3.26-5.54c2.93-3.6,6.28-6.94,9.66-10.14
			c0.5-0.48,1.16,0.12,0.91,0.68c-1.8,4.04-3.59,8.08-5.39,12.12c-3.18,7.16-6.36,14.32-9.55,21.48c-1.57,3.54-3.22,7.05-4.71,10.62
			c-1.2,2.88-2.21,6.67,0.13,9.31c0.23,0.26,0.23,0.71-0.12,0.88c-3.33,1.66-5.76,4.98-6.16,8.65c-0.09,0.79-0.07,1.67-0.7,2.26
			c-0.6,0.56-1.43,0.6-2.2,0.73c-1.57,0.27-2.8,1.65-2.73,3.23c0.04,0.87,0.35,1.72,0.13,2.59c-0.22,0.88-0.94,1.36-1.73,1.72
			c-1.63,0.73-3.19,1.6-4.63,2.65c-1.49,1.08-2.84,2.35-4.03,3.75c-1.09,1.28-1.93,2.9-3.37,3.84c-0.72,0.47-1.67,0.53-2.34,1.05
			c-0.55,0.42-0.67,1.15-0.55,1.78c0.31,1.75,2.22,2.56,3.69,3.21c0.27,0.12,0.36,0.54,0.21,0.77c-0.26,0.38-0.51,0.76-0.76,1.14
			c0.14,0.34,0.28,0.68,0.43,1.02c0.18,0.43-0.33,0.78-0.71,0.7c-0.64-0.14-1.2,0.38-1.42,0.93c-0.25,0.61-0.21,1.29-0.14,1.94
			c0.05,0.03,0.1,0.07,0.13,0.12c0.05,0.05,0.08,0.12,0.1,0.19c0.04,0.14,0.08,0.28,0.13,0.42c0.03,0.1,0.03,0.2,0,0.3
			c-0.02,0.05-0.04,0.09-0.06,0.14c-0.01,0.01-0.02,0.02-0.03,0.04c0.06,0.21-29.58,7.27-29.74,7.42L147.6,238.31z M219.83,245.13
			c-0.1-0.02,6.59-6.87,6.53-6.94c-0.36-0.08-0.65-0.44-0.39-0.81c0.53-0.77,1.34-1.25,1.91-1.98c0.5-0.64,0.5-1.5,0.85-2.21
			c0.19-0.38,0.49-0.7,0.87-0.88c0.44-0.21,0.98-0.2,1.38-0.47c0.43-0.3,0.77-0.77,1.13-1.15c0.2-0.21,0.4-0.43,0.6-0.64
			c-0.32-0.17-0.33-0.62-0.11-0.89c0.4-0.48,0.43-1.16,0.13-1.69c-0.24-0.43,0.16-0.96,0.65-0.83c0.11,0.03,0.2,0.02,0.27-0.02
			c0-0.03,0-0.06,0-0.09c0.07-0.66,0.17-1.32,0.32-1.97c0.62-2.65,2.01-5.13,3.92-7.09c0.94-0.98,2.04-1.83,3.21-2.51
			c1.27-0.73,2.72-1.23,3.83-2.19c1.17-1.01,1.7-2.5,2.54-3.76c0.8-1.19,1.77-2.26,2.73-3.33c0.95-1.04,1.9-2.08,2.67-3.26
			c0.84-1.28,1.26-2.67,1.68-4.12c0.43-1.53,1.02-2.88,2.02-4.13c1.07-1.33,2.26-2.58,3.4-3.86c1.19-1.34,2.39-2.68,3.58-4.02
			c1.19-1.34,2.33-2.73,3.57-4.02c0.38-0.39,0.93-0.73,1.49-0.72c0.65,0.02,1.09,0.56,0.99,1.18c-0.12,0.7-0.73,1.42-1.1,2
			c-0.43,0.67-0.87,1.34-1.31,2c-0.86,1.31-1.7,2.62-2.38,4.03c-0.72,1.49-1.11,3.09-1.59,4.67c-0.45,1.49-1.08,2.88-1.85,4.23
			c-0.73,1.28-1.54,2.55-2.04,3.95c-0.42,1.18-0.73,2.7-0.05,3.86c0.35,0.58,0.89,0.77,1.54,0.9c0.7,0.14,1.33,0.28,1.9,0.73
			c0.2,0.15,0.2,0.49,0.09,0.69c-0.47,0.82-0.95,1.65-1.61,2.33c-0.56,0.58-1.26,1.03-1.94,1.46c-0.56,0.36-1.14,0.71-1.61,1.18
			c-0.56,0.55-0.81,1.19-0.96,1.94c-0.17,0.81-0.22,1.71-0.73,2.39c-0.51,0.69-1.28,1.21-1.91,1.79c-0.65,0.61-1.29,1.23-1.91,1.88
			c-0.6,0.63-1.25,1.27-1.75,1.99c-0.41,0.59-0.66,1.24-0.52,1.96c0.12,0.66,0.5,1.24,1.07,1.6c0.4,0.26,0.36,0.9-0.13,1.03
			c-1.17,0.3-2.81,0.68-3.15,2.01c-0.13,0.5-0.07,1.06,0.4,1.36c0.52,0.34,1.09,0.45,1.4,1.03c0.13,0.23,0.08,0.49-0.09,0.68
			c-0.13,0.15-0.26,0.3-0.4,0.45c0.17,0.5,0.35,1.01,0.52,1.51c0.07,0.07,0.13,0.16,0.16,0.26c0.07,0.26,0.14,0.52,0.21,0.78
			c0.02,0.08,0.03,0.15,0.01,0.23c0,0.05-0.01,0.1-0.04,0.14c-0.02,0.05-0.04,0.09-0.07,0.12c-0.03,0.04-0.06,0.08-0.1,0.1
			c-0.01,0.01-0.02,0.01-0.03,0.02c-0.06,0.14-0.17,0.25-0.34,0.29L219.83,245.13z"/>
	</g>
</g>
</svg>
