<?xml version="1.0" encoding="utf-8"?>
<!-- Generator: Adobe Illustrator 27.8.1, SVG Export Plug-In . SVG Version: 6.00 Build 0)  -->
<svg version="1.1" id="Слой_1" xmlns="http://www.w3.org/2000/svg" xmlns:xlink="http://www.w3.org/1999/xlink" x="0px" y="0px"
	 viewBox="0 0 500 285" style="enable-background:new 0 0 500 285;" xml:space="preserve">
<style type="text/css">
	.st0{fill:#2D4573;}
</style>
<g>
	<g>
		<path class="st0" d="M442.96,185.74l-15.44-18.53l-8.49-12.36l-18.99,0.68l-18.05-17.68l-12.34-10.78l-21.3-6.2L335.6,113
			l-13.14-2.79l-15.13-15.65l-18.38-19.35l-6.39-15.26l-9.28-28.35l-13.86-15.05L252.91,5l-13.45,26.6l-27.76,35l-24.73,18.68
			l-2.73,13.91l-23.86,10.55l-6.87,21.91l-30.37,8.62L116.28,113l-26.76,19.41l-13.01,35.7l-26.17,14.59l-24.95,29.78l-8.57-2.63
			L1.07,238.89H0c-0.23,0.25,20.4,14.8,20.4,14.8l11.95-1.73l10.21,6.03l17.3-1.37l9.09,4.49l12.05-2.8l12.8,11.84l25.45-4.35
			l78.1,19.2l56.99-18.25l8.43,9.08l14.47-5.65l40.15,11.13l42.55-9.79l34.2-5.61l22.9-2.27l36.88-10.91l1.63-0.48L500,239.1
			L442.96,185.74z M416.71,159.55c0.2-0.35,3.81,3.85,3.81,3.85l1.45,7.7l7.59,9.8l3.61,11.55l10.48,21l-12.29-13.65l-6.87-5.6
			l2.53-6.3l-3.98-9.8l-3.25-3.85l-3.61-1.4L415.1,169l-1.45-3.85l-5.78-3.5C407.88,161.65,416.52,159.9,416.71,159.55z
			 M357.27,128.75l12.29,4.9l15.91,23.8l4.7,15.05l15.91,24.15l21.69,26.6l-13.37-9.8l-8.32-7.87l-5.06-6.83l-14.74-12.26
			l-19.24-9.79l17.35,2.1l-0.36-5.25l-2.17-3.5l1.45-4.9l-6.15-11.2l-4.7-8.4l-6.87-7.7l-19.88-5.6l-10.84-14L357.27,128.75z
			 M347.64,197.01c0,0-1.22-3.85-1.94-4.55c-0.72-0.7-2.89-3.5-2.89-3.5l-3.25-7.07l13.87,15.12l5.65,10.85l14.82,13.65l-9.76-6.3
			l-7.23-3.85l-4.34-3.5v-4.9L347.64,197.01z M219.18,64.69l9.76-14l10.84-11.2l4.34-7.35c0,0,5.78-14.7,5.88-14.97
			c0,0,2.43-5.68,2.43-6.38c0-0.7,3.25,9.45,3.25,9.45s7.59,14,8.31,14.35c0.72,0.35,5.06,3.85,5.06,3.85l2.89,10.15l5.06,12.6
			l4.7,13.65l5.78,7.7l29.28,30.1l1.81,6.65l5.42,9.1l15.54,31.15l-9.04-12.6l-9.04-8.4v-5.95l-5.42-7.7l-6.23-5.6l-2.81-6.65
			l-6.15-5.6l-7.23-7.35l-7.23-1.75l-2.17-9.8l-10.48-8.05l-10.84-9.1l-9.04-6.65h9.84l-4.78-8.75l-5.06-0.91l1.17-22.35l-3.34,3.66
			l-2.53,7h-3.61l-4.7,6.65c0,0-8.31,5.25-8.68,5.6c-0.36,0.35-20.6,18.55-20.6,18.55L219.18,64.69z M270.15,135.73l-1.45-22.38
			l7.95,26.6l10.12,15.4l2.53,10.5L301.6,183l4.34,16.8l-9.22-18.05l-13.53-11l-4-8.4l-9.04-15.05l9.04,5.95L270.15,135.73z
			 M219.18,143.8l7.59-21.35l-5.06,28.35l-0.36,16.8l-7.95,14.35l1.26,15.05l-4.51,3.15l-26.03,35l8.31-23.1l10.48-13.3l4.34-24.15
			L219.18,143.8z M137.48,179.15l5.06-10.5c0,0,5.78-14.35,5.78-15.05c0-0.7,11.93-24.15,11.93-24.15l5.78-16.1l19.16-10.85
			c0,0,3.98-11.9,3.93-12.6l15.23-12.6l-6.15,7.7l-3.25,12.25l6.87-1.4l-3.98,6.3l-1.45,9.1l-6.9,10.26l-15.51,24.04l3.61-7
			l3.25-8.4l9.4-23.8l-15.18,9.8v6.65l-6.87,11.9l-0.36,5.6l-13.38,16.8l-7.59,14.35l5.42-1.05l-10.12,10.5L127,197.01
			L137.48,179.15z M132.78,212.06l10.25-12.25l10.72-12.25l-5.06,8.05l-2.53,8.75l-3.12,2.06l-3.03,5.12l-5.05,3.33l-10.64,8.4
			L132.78,212.06z M64.82,192.46l6.51-4.2l3.61-9.8l4.7-6.65l2.53-5.95l5.42-12.95l2.89-11.55c0,0,2.89-4.2,3.01-4.2
			c0.12,0,9.28-8.75,9.64-9.1l5.06-4.2l-6.15,22.05l-2.17,11.2l-5.06,1.05l-1.45,3.5l-4.34,2.8l-3.98,9.8l-3.98,8.05l11.21-1.75
			l-7.59,3.85l-5.78,7.16l-9.4,4.39l-14.82,21L64.82,192.46z"/>
	</g>
</g>
</svg>
