<?xml version="1.0" encoding="utf-8"?>
<!-- Generator: Adobe Illustrator 27.8.1, SVG Export Plug-In . SVG Version: 6.00 Build 0)  -->
<svg version="1.1" id="Слой_1" xmlns="http://www.w3.org/2000/svg" xmlns:xlink="http://www.w3.org/1999/xlink" x="0px" y="0px"
	 viewBox="0 0 500 285" style="enable-background:new 0 0 500 285;" xml:space="preserve">
<style type="text/css">
	.st0{fill:#2D4573;}
</style>
<g>
	<g>
		<path class="st0" d="M500,238.57c0,0-62.13-59.83-64.98-62.2s-23.25-22.84-23.25-22.84l-25.04-28.4l-17.88,28.4l-7.15,9.48
			l-20.56-10.99l-23.25-11.84l-19.7-32.47l-33.05-30.1L236.37,35l-33.84,38.56l-7.25,24.35l-21.34,5.41l-37.55,48.7l-16.99-26.89
			l-29.51,20.78l-16.99,24.1c0,0-14.07,24.41-16.99,22.15c-2.92-2.26-9.13-11.05-9.13-11.05l-17.96,27.06l-14.04,5.62L0.48,238.36H0
			c-0.23,0.26,20.4,14.97,20.4,14.97l11.95-1.75l10.21,6.1l17.3-1.39l9.09,4.54L80.99,258l12.8,11.98l25.45-4.4l78.1,19.42
			l56.99-18.46l8.43,9.19l14.47-5.71l40.15,11.25l42.55-9.9l34.2-5.67l22.9-2.29l36.88-11.04l1.63-0.48l44.12-13.21
			C499.91,238.61,500,238.57,500,238.57z M391.43,143.57l5.53,9.47l6.22,8.46l5.87,6.76l6.22,6.76l5.87,3.72l11.74,9.13l7.94,9.81
			l11.4,8.79l5.87,5.75l8.29,11.5l12.43,9.81l11.71,3.31h-11.64l-5.83-3.65c0,0-5.3-1.69-6.34-2.71c-1.04-1.01-5.53-6.09-5.53-6.09
			l-6.56-4.4l-1.04-6.09l-8.98-3.38l-7.94-7.1l-9.67,5.75l-8.29-7.1l-10.36,0.34l-9.32-6.43l2.07-2.37l14.5,4.06l-11.74-12.18
			l-12.09-6.76c0,0,1.04-9.13,1.38-9.81c0.35-0.68-3.8-28.41-3.8-28.41L391.43,143.57z M236.03,87.24l11.4,3.9l-1.04-6.09l-9.5-5.64
			l0.86-6.88c0,0-1.73-24.69-1.73-25.37l20.72,27.73l-0.35,3.72c0,0,4.83,5.75,5.18,6.43c0.35,0.68,6.91,11.16,6.91,11.16
			l11.05,4.73l4.14,6.09l7.94,4.06l4.83,8.79l18.99,30.1l-8.29-1.35l-16.58-3.72l10.01,12.85l14.5,3.04l8.98,7.44l1.38,5.41
			l7.25,9.47l0.35,10.48l19.34,36.53l-11.4-12.18l-7.25-12.85l-10.36-11.84l-1.73-9.47l-6.56-11.16l-8.63,2.37l4.93,14.37
			l-6.31-3.89l-11.05-17.25l-12.78-10.48l-39.37-12.85l4.14-4.4l-1.73-9.47l5.68,3.57l1.57-1.21l6.91,4.4l-2.42-7.78l-7.25-20.29
			l-4.14-9.47l-5.18-1.69l-3.45-4.19V87.24z M299.49,234.65l-9.25-2.81l-3.11-2.71l-4.83-7.44l-11.74-8.79c0,0-2.76-7.78-3.08-8.46
			l-3.14-4.73l-2.07-4.4l-5.18-9.47L253.64,174l6.91,11.84l6.94,10.44l3.07,5.04l3.72,7.55l4.23,2.34l5.87,6.09l6.04,3.44l5.01,2.31
			l8.33,7.1l11.46,8.21L299.49,234.65z M308.9,193.62l7.25,6.76l6.81,4.06l1.47,5.07l5.87,3.72l0.35,3.72l4.83,7.1l4.14,9.13
			l-7.25-7.44l-6.56-5.41l-2.76-7.1l-9.7-10.26L308.9,193.62z M178.36,116.17l5.53,8.46l-0.69,4.73l5.18,8.46l1.38,5.41l-8.29-8.93
			l-3.11-1.84l1.38-3.77l-1.38-2.25v-3.28l-4.83-0.56L178.36,116.17z M165.92,190.92l3.45,4.4l5.53,5.75l6.56-0.08l2.42,5.16
			l4.14,8.79l3.11,11.84l-5.87-6.76l-6.91-8.46l-4.49-5.75l-5.87-2.71l-4.14-10.48l-3.11-10.48L165.92,190.92z M119.28,136.68
			l13.84,19.4l-1.73,9.47l4.14,13.19l6.75-6.37l5,16.18l-2.76,5.41l5.87,8.46l2.07,11.84l13.81-1.69l10.15,17.59l4.59,8.21
			l-11.91-6.2l-13.89-9.46l-12.78,4.4l-2.42-15.56l-8.98-5.41l-5.87-3.72l-4.14-18.26l11.05,4.73l0.69-7.78l-6.91-6.76l-6.58-9.15
			l6.93-10.8L119.28,136.68z M106.18,177.39l0.86-3.38l-2.24-7.78l6.46,6.15l0.38,9.75l2.82,10.48l2.07,5.75l2.74,8.26l6.93,5.61
			l1.73,6.76l1.38,7.78l6.96,11.6L123.25,234l-2.72-5.07l-3.31-7.91l-10.01-9.13l-2.42-7.44l1.73-10.48l2.76-5.75L106.18,177.39z
			 M90.99,188.89l0.35-10.15l1.38-0.34l4.14,6.09l0.35,7.44l-2.76,4.06v3.47l-3.45,8.37l-2.76-10.15L90.99,188.89z M48.16,195.31
			l-0.92-8.61l9.89,10.3l-2.76,3.04l3.66,4.4l2.21,4.4l2.42,6.43l3.8-0.68l3.11,3.38l6.22,0.44v9.03l16.51,10.92l-10.33-0.74
			l-12.39-1.64l-2.77-3.12l1.38-3.04l-0.35-4.4l-3.45,0.68l-2.07-1.35l-1.38-6.09l-5.87,1.01l-1.73-3.04l-2.42-2.71l-3.8-5.75
			l3.8-0.68l0.78-3.04l-2.51-4.06l-2.76-2.71L48.16,195.31z M49.89,233.53l0.35-1.35l-1.04-1.69l1.04-2.03l-1.38-2.03l-0.35-2.37
			l-2.07-1.7L45.75,220l-1.38-2.71l-1.04-2.37l-1.04-3.72l2.07,2.71l0.69,1.01l1.38,2.05l2.42,2.35l1.38,3.04l1.38,2.37l5.53,2.03
			l0.69,1.69l0.35,2.03l1.73,1.69l-0.69,2.03l0.25,4.16l-10.17-0.8l-2.07-0.62l0.24-2.4h3.45L49.89,233.53z M252.98,229.57
			l-9.01-11.6l-22.45-7.44l-1.04-6.09l-7.85-3.12c0,0-10.24-11.76-10.52-11.93c-0.28-0.17-9.6-14.37-9.6-14.37l15.19,11.16
			l5.87-2.03l4.83,2.37l-5.87-16.23l1.38-10.15l-6.22-8.46l-6.91-0.34l-5.18-16.57l-2.76-13.19l-11.4-13.87l17.27,7.78l6.91,12.18
			c0,0,9.32,17.25,9.67,17.93c0.35,0.68,6.56,13.19,6.56,13.19l12.54,6.09l5.08,15.22l14.16,18.6l-8.98-3.04l-8.63-13.28l7.6,23.09
			l21.07,14.88l10.35,18.02L252.98,229.57z M388.11,234.39l-16.71-2.89l-6.91-10.48l8.99,4.51l7.24,1.24l-3.8-7.78l-2.07-4.06
			l-5.87-3.04L362.08,197l7.6,3.38l-4.49-8.79l-6.56-8.46l-5.18-0.68l-3.11-5.07l-16.23-12.51l26.59,12.18l6.22,5.07l7.6,13.19
			l4.49,9.47l10.36,7.15l6.22,10.44l7.94,6.76l7.36,9.23L388.11,234.39z M452.77,236.27l-4.01-2.74l-3.11-3.04l-0.69-2.37
			l-3.08-2.26l-3.14-3.15l-1.07-0.61l0.72-3.45l-0.35-2.71l-3.8-2.37h6.47l0.43,3.72l3.11,1.69h3.11l1.38,2.71l3.11,3.04l3.11,3.38
			l4.49,2.03l1.38,3.38l3.8,2.37l2.91,2.46L452.77,236.27z"/>
	</g>
</g>
</svg>
