<?xml version="1.0" encoding="utf-8"?>
<!-- Generator: Adobe Illustrator 26.0.0, SVG Export Plug-In . SVG Version: 6.00 Build 0)  -->
<svg version="1.0" id="Слой_1" xmlns="http://www.w3.org/2000/svg" xmlns:xlink="http://www.w3.org/1999/xlink" x="0px" y="0px"
	 viewBox="0 0 100 100" style="enable-background:new 0 0 100 100;" xml:space="preserve">
<style type="text/css">
	.st0{fill:#FFFFFF;}
</style>
<g>
	<g>
		<path class="st0" d="M64.45,87.55H22.38c-4.73,0-9.21-1.83-12.63-5.16c-4.07-3.24-6.4-8.06-6.4-13.26
			c0-9.36,7.61-16.97,16.97-16.97c0.41,0,0.83,0.02,1.25,0.05c2.17-8.64,9.93-14.76,19-14.76c7.05,0,13.58,3.85,17.05,9.93
			c2.2-0.78,4.5-1.17,6.85-1.17c11.39,0.02,20.66,9.3,20.66,20.68c0,6.99-3.5,13.45-9.36,17.29C72.43,86.38,68.51,87.55,64.45,87.55
			z M20.32,55.46c-7.54,0-13.67,6.13-13.67,13.67c0,4.21,1.9,8.12,5.21,10.72c0.05,0.04,0.09,0.08,0.14,0.12
			c2.81,2.76,6.49,4.28,10.38,4.28h42.07c3.41,0,6.7-0.98,9.51-2.83c4.93-3.23,7.87-8.66,7.87-14.53c0-9.56-7.79-17.36-17.36-17.38
			c-2.41,0-4.75,0.49-6.96,1.46c-0.82,0.36-1.78,0-2.16-0.81c-2.68-5.72-8.48-9.41-14.78-9.41c-7.98,0-14.74,5.7-16.06,13.54
			c-0.15,0.89-0.99,1.5-1.88,1.36C21.82,55.52,21.04,55.46,20.32,55.46z"/>
	</g>
	<g>
		<path class="st0" d="M79.46,49.98c-0.28,0-0.56-0.07-0.82-0.22c-0.79-0.46-1.06-1.47-0.6-2.26c2.73-4.72,1.93-10.72-1.94-14.59
			c-4.73-4.72-12.42-4.72-17.15,0c-1.63,1.62-2.76,3.66-3.25,5.9c-0.2,0.89-1.08,1.45-1.97,1.25c-0.89-0.2-1.45-1.08-1.25-1.97
			c0.63-2.85,2.07-5.45,4.15-7.52c6.01-6,15.8-6,21.81,0c4.93,4.92,5.94,12.56,2.46,18.57C80.58,49.69,80.03,49.98,79.46,49.98z"/>
	</g>
	<g>
		<path class="st0" d="M66,22.76c-0.85,0-1.57-0.65-1.64-1.52l-0.58-7.03c-0.07-0.91,0.6-1.71,1.51-1.78
			c0.9-0.08,1.71,0.6,1.78,1.51l0.58,7.03c0.07,0.91-0.6,1.71-1.51,1.78C66.09,22.76,66.04,22.76,66,22.76z"/>
	</g>
	<g>
		<path class="st0" d="M56.09,26.32c-0.52,0-1.04-0.25-1.36-0.71l-4.03-5.8c-0.52-0.75-0.33-1.78,0.41-2.3s1.78-0.34,2.3,0.41
			l4.03,5.8c0.52,0.75,0.33,1.78-0.41,2.3C56.75,26.23,56.42,26.32,56.09,26.32z"/>
	</g>
	<g>
		<path class="st0" d="M49.27,34.34c-0.24,0-0.47-0.05-0.7-0.16l-6.39-3c-0.83-0.39-1.18-1.37-0.79-2.2
			c0.39-0.83,1.37-1.18,2.2-0.79l6.39,3c0.83,0.39,1.18,1.37,0.79,2.2C50.48,33.99,49.89,34.34,49.27,34.34z"/>
	</g>
	<g>
		<path class="st0" d="M92.48,54.69c-0.24,0-0.48-0.05-0.7-0.16l-6.39-3.02c-0.82-0.39-1.18-1.37-0.79-2.2
			c0.39-0.82,1.37-1.18,2.2-0.79l6.39,3.02c0.82,0.39,1.18,1.37,0.79,2.2C93.69,54.34,93.1,54.69,92.48,54.69z"/>
	</g>
	<g>
		<path class="st0" d="M87.97,41.33c-0.85,0-1.57-0.65-1.64-1.51c-0.08-0.91,0.6-1.71,1.51-1.78l7.03-0.59
			c0.91-0.07,1.71,0.6,1.78,1.51c0.08,0.91-0.6,1.71-1.51,1.78l-7.03,0.59C88.06,41.33,88.01,41.33,87.97,41.33z"/>
	</g>
	<g>
		<path class="st0" d="M84.4,31.43c-0.52,0-1.04-0.25-1.36-0.71c-0.52-0.75-0.33-1.78,0.42-2.3l5.81-4.02
			c0.75-0.52,1.78-0.33,2.3,0.42c0.52,0.75,0.33,1.78-0.42,2.3l-5.81,4.02C85.05,31.34,84.73,31.43,84.4,31.43z"/>
	</g>
	<g>
		<path class="st0" d="M76.37,24.63c-0.24,0-0.48-0.05-0.7-0.16c-0.83-0.39-1.18-1.37-0.79-2.2l3.01-6.38
			c0.39-0.82,1.38-1.18,2.2-0.79c0.83,0.39,1.18,1.37,0.79,2.2l-3.01,6.38C77.58,24.28,76.99,24.63,76.37,24.63z"/>
	</g>
</g>
</svg>
