<?xml version="1.0" encoding="utf-8"?>
<!-- Generator: Adobe Illustrator 26.0.0, SVG Export Plug-In . SVG Version: 6.00 Build 0)  -->
<svg version="1.0" id="Слой_1" xmlns="http://www.w3.org/2000/svg" xmlns:xlink="http://www.w3.org/1999/xlink" x="0px" y="0px"
	 viewBox="0 0 100 100" style="enable-background:new 0 0 100 100;" xml:space="preserve">
<style type="text/css">
	.st0{fill:#FFFFFF;}
</style>
<g>
	<g>
		<path class="st0" d="M89.95,58.14c-0.49,0-0.97-0.22-1.3-0.63c-0.57-0.72-0.45-1.76,0.27-2.33c2.81-2.23,4.42-5.54,4.42-9.1
			c0-6.39-5.2-11.58-11.58-11.58c-0.62,0-1.28,0.06-1.95,0.17c-0.9,0.15-1.75-0.46-1.91-1.36c-1.13-6.68-6.88-11.53-13.67-11.53
			c-5.37,0-10.3,3.14-12.57,8c-0.39,0.83-1.37,1.19-2.2,0.8c-0.83-0.39-1.19-1.37-0.8-2.2c2.81-6.02,8.92-9.92,15.57-9.92
			c7.88,0,14.63,5.27,16.6,12.75c0.31-0.02,0.62-0.03,0.92-0.03c8.21,0,14.9,6.68,14.9,14.9c0,4.58-2.07,8.84-5.68,11.7
			C90.67,58.02,90.31,58.14,89.95,58.14z"/>
	</g>
	<g>
		<path class="st0" d="M64.67,81.54H22.44c-4.75,0-9.25-1.84-12.69-5.18c-4.07-3.25-6.41-8.1-6.41-13.31
			C3.34,53.65,10.99,46,20.38,46c0.41,0,0.83,0.02,1.26,0.05c2.18-8.67,9.96-14.82,19.06-14.82c7.08,0,13.63,3.86,17.11,9.96
			c2.2-0.77,4.5-1.17,6.87-1.17c11.44,0.04,20.75,9.36,20.75,20.78c0,7.01-3.51,13.5-9.39,17.36
			C72.69,80.37,68.76,81.54,64.67,81.54z M20.38,49.32c-7.57,0-13.72,6.16-13.72,13.72c0,4.23,1.9,8.15,5.22,10.77
			c0.05,0.04,0.09,0.08,0.13,0.12c2.82,2.77,6.52,4.29,10.43,4.29h42.23c3.44,0,6.74-0.98,9.55-2.84c4.95-3.24,7.9-8.69,7.9-14.59
			c0-9.59-7.82-17.43-17.44-17.46c-2.43,0-4.78,0.49-6.98,1.46c-0.82,0.36-1.79,0-2.17-0.81c-2.69-5.73-8.51-9.44-14.83-9.44
			c-8.01,0-14.78,5.72-16.12,13.6c-0.15,0.89-0.99,1.5-1.89,1.36C21.87,49.38,21.11,49.32,20.38,49.32z"/>
	</g>
</g>
</svg>
