<?xml version="1.0" encoding="utf-8"?>
<!-- Generator: Adobe Illustrator 26.0.0, SVG Export Plug-In . SVG Version: 6.00 Build 0)  -->
<svg version="1.0" id="Слой_1" xmlns="http://www.w3.org/2000/svg" xmlns:xlink="http://www.w3.org/1999/xlink" x="0px" y="0px"
	 viewBox="0 0 100 100" style="enable-background:new 0 0 100 100;" xml:space="preserve">
<style type="text/css">
	.st0{fill:#FFFFFF;}
</style>
<g>
	<g>
		<path class="st0" d="M73.19,67.38H24.93c-5.44,0-10.58-2.1-14.49-5.92c-4.66-3.72-7.33-9.25-7.33-15.21
			c0-10.73,8.73-19.46,19.46-19.46c0.48,0,0.96,0.02,1.44,0.05C26.5,16.93,35.39,9.92,45.79,9.92c8.09,0,15.58,4.42,19.55,11.39
			c2.53-0.89,5.15-1.35,7.87-1.34c6.33,0,12.27,2.46,16.75,6.94c4.48,4.48,6.95,10.44,6.95,16.77c0,8.01-4.01,15.42-10.72,19.83
			C82.34,66.04,77.85,67.38,73.19,67.38z M22.57,30.57c-8.64,0-15.68,7.03-15.68,15.68c0,4.83,2.18,9.31,5.97,12.3
			c0.05,0.04,0.11,0.09,0.16,0.14c3.21,3.16,7.44,4.91,11.91,4.91h48.26c3.91,0,7.68-1.12,10.91-3.25
			c5.65-3.71,9.02-9.94,9.02-16.67c0-5.33-2.07-10.33-5.84-14.1c-3.76-3.76-8.76-5.83-14.07-5.83c-0.01,0-0.01,0-0.02,0
			c-2.76,0-5.45,0.56-7.99,1.67c-0.94,0.41-2.04,0-2.47-0.93c-3.06-6.55-9.71-10.79-16.94-10.79c-9.15,0-16.9,6.53-18.41,15.53
			c-0.17,1.02-1.14,1.71-2.16,1.56C24.28,30.64,23.42,30.57,22.57,30.57z"/>
	</g>
	<g>
		<path class="st0" d="M33.5,90.11c-0.7,0-1.42-0.12-2.11-0.38c-2.07-0.75-3.53-2.5-3.91-4.66c-0.38-2.17,0.39-4.31,2.08-5.73
			l5.58-4.68c0.52-0.44,1.23-0.56,1.86-0.33c0.64,0.23,1.1,0.78,1.22,1.45l1.26,7.17c0.38,2.18-0.41,4.33-2.1,5.74
			C36.26,89.62,34.9,90.11,33.5,90.11z M35.06,79.66L32,82.23c-0.64,0.54-0.93,1.35-0.79,2.18c0.07,0.39,0.35,1.35,1.48,1.76
			c1.12,0.41,1.96-0.14,2.26-0.4c0.64-0.54,0.94-1.35,0.8-2.19L35.06,79.66z"/>
	</g>
	<g>
		<path class="st0" d="M50.02,90.11c-0.7,0-1.42-0.12-2.11-0.38c-2.07-0.75-3.53-2.5-3.91-4.66c-0.38-2.17,0.39-4.31,2.08-5.73
			l5.58-4.68c0.52-0.44,1.23-0.56,1.87-0.33c0.64,0.23,1.1,0.78,1.22,1.45L56,82.94c0.38,2.18-0.41,4.33-2.1,5.74
			C52.78,89.62,51.42,90.11,50.02,90.11z M51.58,79.66l-3.07,2.57c-0.64,0.54-0.93,1.35-0.79,2.18c0.07,0.39,0.35,1.35,1.48,1.76
			c1.13,0.41,1.96-0.14,2.27-0.4c0.64-0.54,0.94-1.35,0.8-2.18L51.58,79.66z"/>
	</g>
	<g>
		<path class="st0" d="M66.52,90.11c-0.7,0-1.42-0.12-2.11-0.38c-2.07-0.75-3.53-2.5-3.91-4.66c-0.38-2.17,0.39-4.31,2.08-5.73
			l5.58-4.68c0.52-0.44,1.23-0.56,1.87-0.33c0.64,0.23,1.1,0.78,1.22,1.45l1.26,7.17c0.38,2.18-0.41,4.33-2.1,5.74
			C69.28,89.62,67.92,90.11,66.52,90.11z M68.08,79.66l-3.07,2.57c-0.64,0.54-0.93,1.35-0.79,2.18c0.07,0.39,0.35,1.35,1.48,1.76
			c1.13,0.41,1.96-0.14,2.27-0.4c0.64-0.54,0.94-1.35,0.8-2.18L68.08,79.66z"/>
	</g>
</g>
</svg>
