<?xml version="1.0" encoding="utf-8"?>
<!-- Generator: Adobe Illustrator 26.0.0, SVG Export Plug-In . SVG Version: 6.00 Build 0)  -->
<svg version="1.0" id="Слой_1" xmlns="http://www.w3.org/2000/svg" xmlns:xlink="http://www.w3.org/1999/xlink" x="0px" y="0px"
	 viewBox="0 0 100 100" style="enable-background:new 0 0 100 100;" xml:space="preserve">
<style type="text/css">
	.st0{fill:#FFFFFF;}
</style>
<g>
	<path class="st0" d="M73.19,19.9c-2.69,0-5.33,0.45-7.85,1.34C61.37,14.26,53.88,9.85,45.79,9.85c-10.4,0-19.29,7.02-21.78,16.92
		c-0.49-0.04-0.97-0.05-1.44-0.05c-10.73,0-19.46,8.73-19.46,19.46c0,5.96,2.67,11.49,7.33,15.21c3.91,3.82,9.06,5.92,14.49,5.92
		h48.26c4.65,0,9.15-1.34,12.99-3.87c6.71-4.41,10.72-11.82,10.72-19.83C96.9,30.53,86.27,19.9,73.19,19.9z M84.1,60.28
		c-3.22,2.12-7,3.25-10.91,3.25H24.93c-4.47,0-8.7-1.74-11.91-4.91c-0.05-0.05-0.1-0.09-0.16-0.14c-3.79-2.99-5.97-7.48-5.97-12.3
		c0-8.64,7.03-15.68,15.68-15.68c0.84,0,1.71,0.07,2.65,0.22c1.02,0.16,1.99-0.53,2.16-1.56c1.52-9,9.26-15.53,18.41-15.53
		c7.23,0,13.87,4.23,16.94,10.79c0.43,0.93,1.53,1.35,2.47,0.93c2.54-1.11,5.23-1.67,7.99-1.67c10.99,0,19.93,8.94,19.93,19.93
		C93.12,50.34,89.75,56.57,84.1,60.28z"/>
	<path class="st0" d="M38.25,78.51c-0.52-0.91-1.68-1.22-2.59-0.69l-1.92,1.11v-2.22c0-1.05-0.85-1.89-1.89-1.89
		s-1.89,0.85-1.89,1.89v2.22l-1.93-1.11c-0.91-0.52-2.06-0.21-2.59,0.69c-0.52,0.91-0.21,2.06,0.69,2.59l1.92,1.11l-1.92,1.11
		c-0.91,0.52-1.22,1.68-0.69,2.59c0.35,0.61,0.99,0.95,1.64,0.95c0.32,0,0.65-0.08,0.94-0.25l1.93-1.11v2.22
		c0,1.05,0.85,1.89,1.89,1.89s1.89-0.85,1.89-1.89v-2.22l1.92,1.11c0.3,0.17,0.62,0.25,0.94,0.25c0.65,0,1.29-0.34,1.64-0.95
		c0.52-0.91,0.21-2.06-0.69-2.59l-1.92-1.11l1.92-1.11C38.46,80.58,38.77,79.42,38.25,78.51z"/>
	<path class="st0" d="M53.31,75.83c-0.12-0.67-0.58-1.22-1.22-1.45c-0.64-0.23-1.35-0.11-1.87,0.33l-5.58,4.68
		c-1.69,1.42-2.46,3.56-2.08,5.73c0.38,2.17,1.84,3.91,3.91,4.66c0.69,0.25,1.41,0.38,2.11,0.38c1.4,0,2.76-0.49,3.88-1.42
		c1.69-1.41,2.48-3.56,2.1-5.74L53.31,75.83z M50.04,85.84c-0.31,0.25-1.14,0.81-2.27,0.39c-1.13-0.41-1.41-1.37-1.48-1.76
		c-0.15-0.82,0.15-1.64,0.79-2.18l3.07-2.57l0.69,3.93C50.99,84.48,50.69,85.3,50.04,85.84z"/>
	<path class="st0" d="M69.07,75.83c-0.12-0.67-0.58-1.22-1.22-1.45c-0.64-0.23-1.35-0.11-1.87,0.33l-5.58,4.68
		c-1.69,1.42-2.46,3.56-2.08,5.74c0.38,2.17,1.84,3.91,3.91,4.66c0.69,0.25,1.41,0.38,2.11,0.38c1.39,0,2.76-0.49,3.88-1.42
		c1.69-1.41,2.48-3.56,2.1-5.74L69.07,75.83z M65.8,85.84c-0.31,0.25-1.14,0.8-2.26,0.39c-1.13-0.41-1.41-1.37-1.48-1.76
		c-0.15-0.83,0.15-1.64,0.79-2.18l3.07-2.57l0.69,3.93C66.75,84.48,66.45,85.3,65.8,85.84z"/>
</g>
</svg>
