<?xml version="1.0" encoding="utf-8"?>
<!-- Generator: Adobe Illustrator 26.0.0, SVG Export Plug-In . SVG Version: 6.00 Build 0)  -->
<svg version="1.0" id="Слой_1" xmlns="http://www.w3.org/2000/svg" xmlns:xlink="http://www.w3.org/1999/xlink" x="0px" y="0px"
	 viewBox="0 0 100 100" style="enable-background:new 0 0 100 100;" xml:space="preserve">
<style type="text/css">
	.st0{fill:#FFFFFF;}
</style>
<g>
	<g>
		<path class="st0" d="M25.7,48.15c-1.48,0-2.97-0.26-4.43-0.79c-4.35-1.58-7.43-5.25-8.24-9.81c-0.81-4.56,0.83-9.06,4.38-12.04
			l14.13-11.85c0.59-0.5,1.4-0.64,2.13-0.38c0.73,0.26,1.26,0.9,1.39,1.66l3.2,18.16c0.8,4.56-0.83,9.06-4.38,12.03
			C31.53,47.12,28.65,48.15,25.7,48.15z M31.46,19.39L20.2,28.83c-2.35,1.97-3.43,4.95-2.9,7.97c0.53,3.02,2.57,5.45,5.45,6.49
			c2.89,1.05,6.01,0.5,8.36-1.47c2.35-1.97,3.43-4.95,2.9-7.97L31.46,19.39z"/>
	</g>
	<g>
		<path class="st0" d="M43.41,86.85c-1.73,0-3.48-0.3-5.18-0.92c-5.09-1.86-8.69-6.15-9.62-11.49c-0.94-5.33,0.98-10.59,5.12-14.07
			l17-14.27c0.59-0.5,1.41-0.64,2.13-0.38c0.73,0.26,1.26,0.9,1.39,1.66l3.85,21.87c0.94,5.33-0.97,10.6-5.12,14.08
			C50.22,85.64,46.85,86.85,43.41,86.85z M50.64,51.82L36.51,63.68c-2.95,2.47-4.31,6.21-3.64,10c0.67,3.8,3.23,6.85,6.84,8.17
			c3.62,1.32,7.54,0.63,10.49-1.85c2.95-2.48,4.31-6.22,3.64-10.01L50.64,51.82z"/>
	</g>
	<g>
		<path class="st0" d="M75.98,49.81c-1.29,0-2.6-0.23-3.87-0.69c-3.82-1.39-6.52-4.61-7.22-8.61c-0.7-3.99,0.74-7.92,3.84-10.52
			l12.01-10.07c0.59-0.5,1.41-0.64,2.13-0.38c0.73,0.26,1.26,0.9,1.39,1.66l2.73,15.44c0.7,3.99-0.73,7.92-3.83,10.53
			C81.09,48.91,78.57,49.81,75.98,49.81z M80.65,25.65l-9.14,7.66c-1.9,1.59-2.78,4.01-2.35,6.45c0.43,2.46,2.09,4.44,4.44,5.29
			c2.34,0.85,4.88,0.4,6.79-1.2c1.9-1.6,2.78-4.01,2.35-6.46L80.65,25.65z"/>
	</g>
</g>
</svg>
