<?xml version="1.0" encoding="utf-8"?>
<!-- Generator: Adobe Illustrator 24.3.0, SVG Export Plug-In . SVG Version: 6.00 Build 0)  -->
<svg version="1.1" xmlns="http://www.w3.org/2000/svg" xmlns:xlink="http://www.w3.org/1999/xlink" x="0px" y="0px"
	 viewBox="0 0 750 500" style="enable-background:new 0 0 750 500;" xml:space="preserve">
<style type="text/css">
	.st0{fill:none;}
	.st1{fill:#373D52;}
	.st2{fill:#292F44;}
	.st3{fill:#FFFFFF;}
	.st4{fill:#EDF0F7;}
</style>
<g id="BACKGROUND">
	<rect class="st0" width="750" height="500"/>
</g>
<g id="OBJECTS">
	<g>
		<g>
			<path class="st1" d="M627.8,268.1l-1.7,0l-5.3-0.1l-14.7-17.8l-4.6,0.4l-13.8-8.7l-7.4,0.3l-18.9-17.7l3.2-7.6l-9.6-11.2
				l-9.3-1.4l-0.7-3.2l-4.6-1.4l-7.9-15.9l-5.5-14.9l-1.7-9.1l-10-4.9l-1.9-2.1l-5.4-6l-18.2,20.1l-12.6,6.4l-13.1,18l7.6,14.1
				l24.7,19l2.1,4.7l6.5,3.6l5.7,11.8l10.3,5.5l13.1,14.3l-19.8-10.3l0.9,3.2l2.9,6.8l-6.6-5.2l-6.6-1.6l10,18.8l-16.4-15.6
				l-7.7-12.3l-5.1-4l-0.2,4.2L461.5,222l-7.7-1.9l-8.6-6.6l-8.2-14.1l-9-9.5l-5.1,0.4l-11.5-8.5l5.8,11.1l-10.8-7.4l1.9,6.4
				l-15.6-8.4l0.9-6.6l-2.5-5.9l-1.7,0.7l2.5-8.1l-2.8,2.8l-0.6-5.8l-3.9-1.4l3.1-1l-0.3-11.4l-13.1-9.1l-1.1,7.4l-4,5.1l1.4-11.6
				l2.8-4.7l-2.9-2.2l-3,3.5l-7.7-11.1l5.9-16.9l-2.4,1.2l0.3-8.9l-3.2,2.9l-5,9.8l-15.1,20l-12,8.4l-7.8,16.8v0l-1.1,2.4
				l-12.3,20.2l-18,14.5l-8.1,11l12.9,11.2l20.6-9.4c5,3.8,10,7.6,15,11.4l51.6,37.8l25.6,13.6l14.6-0.3l50.4,38.9l16.8,13l4.7-1.9
				l3.7,3.3l10.6,3.8l9.8,5.6l17.7-15.1l6.2-13.5l15.4,22.6l4.6-2.1l4.6,6l10.5-8.4l5.3-9.3l3.7,0.4l3.4-4l4.8,1.7l9.6,14.4
				l10.3,6.4l5,7l3.7-7.5l3.1,2.9l5.7,0.4l3.3,4.3l2,0.3l0.3-2.6l2.9,4.4l2.1-0.8l56.1-21L627.8,268.1z M516.8,209.3l2.8-7.7l2.9-4
				l3.8,0.8L516.8,209.3z M368.1,175.6l-3.9-7.2l-4-4.2l-1.8,3l0.8,7.8l-7.2-6.2l-4.8,10.5l-0.4-4.1l3.9-8.6l0.1-5.1l-6.1-8.8l1-7.8
				l5.9-11.4l8.3,8.3l0.3,4.9l4.2,5.1l1,8.8l4.3,7.3L368.1,175.6z M406.1,217.7l-10.5-5.5l-5.1-3.5l-4,0.8l-6.6-5.8l-4.4-1.7
				l-0.4-2.7l-2-2.7l5.8-11.2l-0.1-9.4l5.5-5.7l-2.9,7.4l2.1,3.5l4.3,10.6l2.8,1.1l9.3,10.3l0.6,3.7l7.7,8l10.3,10.4L406.1,217.7z
				 M555.1,220l4.1-4.3l-4.1,8.9V220z M557.5,276.5l-3-1.7l-3.5-6.2l-5.5-1l1.9,5.6l-3.7-1.5l-5,2.6l3.9-4.8l-0.8-4.2l10.4-4
				l15.6,24.3L557.5,276.5z M591.6,300.9l-7.1-4.5l6.8,2.5l-9.6-9.8l13.2,7.7l8.9,10.9L591.6,300.9z"/>
		</g>
		<g>
			<path class="st2" d="M639.3,341.1l-46.6,17.4l-29.3,4.8l-43.6,10.2l-54,16.4l-52.6-11.5l-18.2,8.6l-11.6-11.4l-71.9,28.7
				l-92.5-45l-45.4,11.9l-17.7-8.2l-15.3,4.7l-13.7-7.9l-20.5,5.9l-13.6-7.2l-15.2,3.3c0,0-24.4-2.4-24-2.8c5.3-2.3,10.6-4.5,16-6.6
				l4.6-9.9l28.8-19l16.5-26.1l26.6-31.4l13.2,0.2l8.2-5.1l32.2-35.9l7.6,0l33.5-33.2l2.2,54.8l11.2,42.2l23,18.8l-4.9-35.7
				l-11.2-10.1l-14.6-24.7l22,18.8l-15.2-32.4l12.5,11.7l-5.8-14.3l-8.5-12.9l5.9,3.9l3.7-2.1l2.6,1.1l4.1-2.4l8.9-5.2l3.7,17.9
				l5.1,4.8l8.2-9.3l20.6-9.4c-0.2,0.5-0.3,20.8-0.3,20.8l25.7,31.4l3.3,18.7l0,0.2l-4.9,17l22.4,15.8l-0.8-17.6l-5.7-5.2l-9.5-17.8
				l13.8,12.2l-13.4-35.1l-1.4-10.1l26.5,26.7l12.7,13.2l24.5,17.7l-7.2-18.8l12.7-0.9l6.8,1.8l30.8,26.9l-8.1-14.1l29,18.6l16.8,13
				l4.7-1.9l3.7,3.3l10.6,3.8l9.8,5.6l17.7-15.1l6.2-13.5l15.4,22.6l4.6-2.1l4.6,6l10.5-8.4l5.3-9.3l3.7,0.4l3.4-4l4.8,1.7l9.6,14.4
				l10.3,6.4l5,7l3.7-7.5l3.1,2.9l5.7,0.4l3.3,4.3l2,0.3l0.3-2.6L639.3,341.1z"/>
		</g>
		<path class="st3" d="M518.1,263.8l-2.9-6.8l-0.9-3.2l19.8,10.3L521,249.9l-10.3-5.5l-5.7-11.8l-6.5-3.6l-2.1-4.7l-24.7-19
			l-7.6-14.1l-10-18.5l-7.2-8.3l-7.6-15.9l-18-13.1l-10-13.4l-8.7-13.8l-21.3-14.6l-0.4,6l7.5,4.5l0.7,9l0.9,3.7l2.6,4l-4-0.3
			l-1-3.6l-11.9-12.9l-4.9-1.4l0,0l-2.1-0.6l-4.9-2.4l-0.3,8.9l2.4-1.2l-5.9,16.9l7.7,11.1l3-3.5l2.9,2.2l-2.8,4.7l-1.4,11.6l4-5.1
			l1.1-7.4l13.1,9.1l0.3,11.4l-3.1,1l3.9,1.4l0.6,5.8l2.8-2.8l-2.5,8.1l1.7-0.7l2.5,5.9l-0.9,6.6l15.6,8.4l-1.9-6.4l10.8,7.4
			l-5.8-11.1l11.5,8.5l5.1-0.4l9,9.5l8.2,14.1l8.6,6.6l7.7,1.9l23.8,26.1l0.2-4.2l5.1,4l7.7,12.3l16.4,15.6l-10-18.8l6.6,1.6
			L518.1,263.8z M425.7,182.5l-21-20.1l-4.5-10.6l-8.8-8.1l-5.2-10.3l8.8,6.3l-3-7.7l10.9,8.2l8.6,11.3l14.3,12.3L425.7,182.5z"/>
		<polygon class="st3" points="626.1,268 620.8,268 606.1,250.2 601.5,250.5 587.7,241.8 580.3,242.2 561.4,224.5 564.5,216.9 
			554.9,205.7 545.6,204.3 544.9,201 540.3,199.6 532.4,183.7 526.9,168.8 525.2,159.7 515.2,154.7 513.3,152.6 520.3,147.9 
			544.2,167.1 565.6,203.2 573,203.8 588.5,227.8 599.9,237.1 607.2,243.8 		"/>
		<g>
			<polygon class="st1" points="392.5,120.8 388.5,120.5 387.5,116.8 375.6,103.9 370.7,102.6 381.3,93.5 380.9,99.5 388.4,104.1 
				389.1,113.1 389.9,116.8 			"/>
		</g>
		<polygon class="st4" points="369.7,167.9 368.1,175.6 364.2,168.4 360.1,164.2 358.3,167.2 359.1,175 352,168.8 347.2,179.2 
			346.8,175.2 350.7,166.6 350.7,161.5 344.6,152.7 345.6,144.9 351.6,133.5 359.8,141.8 360.2,146.8 364.4,151.8 365.4,160.6 		"/>
		<polygon class="st4" points="418.6,225.4 406.1,217.7 395.7,212.2 390.6,208.7 386.6,209.5 380,203.8 375.6,202.1 375.2,199.4 
			373.2,196.7 378.9,185.4 378.9,176 384.4,170.3 381.5,177.7 383.6,181.2 387.8,191.8 390.7,193 400,203.3 400.6,207 408.3,215 		
			"/>
		<g>
			<polygon class="st1" points="425.7,163.8 425.7,182.5 404.7,162.4 400.1,151.9 391.4,143.7 386.1,133.4 394.9,139.7 391.9,131.9 
				402.8,140.1 411.3,151.4 			"/>
		</g>
		<path class="st3" d="M471.5,308.8l-50.4-38.9l-14.6,0.3L381,256.6l-51.6-37.8c-5-3.8-10-7.6-15-11.4c-0.2,0.5-0.3,20.8-0.3,20.8
			l25.7,31.4l3.3,18.7l0,0.2l-4.9,17l22.4,15.8l-0.8-17.6l-5.7-5.2l-9.5-17.8l13.8,12.2l-13.4-35.1l-1.4-10.1l26.5,26.7l12.7,13.2
			l24.5,17.7l-7.2-18.8l12.7-0.9l6.8,1.8l30.8,26.9l-8.1-14.1L471.5,308.8z"/>
		<polygon class="st3" points="567.8,285.7 557.5,276.5 554.5,274.8 551,268.6 545.5,267.6 547.4,273.2 543.7,271.7 538.8,274.3 
			542.6,269.5 541.9,265.3 552.2,261.3 		"/>
		<polygon class="st3" points="603.8,307.6 591.6,300.9 584.5,296.4 591.3,298.8 581.8,289 595,296.7 		"/>
		<polygon class="st3" points="559.3,215.7 555.1,224.6 555.1,220 		"/>
		<polygon class="st3" points="526.3,198.3 516.8,209.3 519.5,201.6 522.4,197.6 		"/>
		<polygon class="st3" points="272.5,272.3 261.3,262.2 246.7,237.5 268.7,256.3 253.5,223.9 266,235.6 260.1,221.2 251.7,208.3 
			257.5,212.2 261.2,210.1 263.8,211.1 267.9,208.7 241,192.1 243.2,246.9 254.4,289.1 277.4,307.9 		"/>
		<polygon class="st3" points="320.6,157.5 319.5,160 307.2,180.2 289.1,194.7 281,205.6 293.9,216.8 285.7,226.2 280.5,221.4 
			276.8,203.5 289.8,184.6 		"/>
	</g>
</g>
</svg>
