<?xml version="1.0" encoding="utf-8"?>
<!-- Generator: Adobe Illustrator 23.0.1, SVG Export Plug-In . SVG Version: 6.00 Build 0)  -->
<svg version="1.1" xmlns="http://www.w3.org/2000/svg" xmlns:xlink="http://www.w3.org/1999/xlink" x="0px" y="0px"
	 viewBox="0 0 800 600" style="enable-background:new 0 0 800 600;" xml:space="preserve">
<style type="text/css">
	.st0{fill:#2d4573;}
	.st1{font-family:'Roboto-Regular';}
	.st2{font-size:14px;}
</style>
<g id="Uzbekistan">
	<path class="st0" d="M711.261,386.316l0.183,0.584l-0.975,3.59l-0.423,0.694l-0.668,0.131l-1.104-0.337l-0.833-0.398l-0.926-0.671
		l-0.423-0.81l0.699-0.837l1.082-0.058l0.744-0.369l1.572-1.183L711.261,386.316z M675.643,372.305l-0.888-0.087l-3.819,0.347
		l-6.142,1.895l-1.848,0.152l-1.817-0.117l-1.737-1.251l-0.77-2.398l-0.575-2.613l-1.145-1.881l-0.953-0.4l-0.82,0.088l-0.81,0.251
		l-0.944,0.085l-0.904-0.263l-2.147-0.958l0.583-1.967l-0.12-0.24l-0.37-0.444l-0.094-0.088l0.025,0.02l-0.568-0.834l-0.076-0.152
		l-0.069-0.266l-0.069-1.191l0.681-1.098l1.28-0.832l2.966-0.697l0.414-0.17l0.434-0.571l1.038-1.77l0.583-0.586l0.601-0.27
		l0.637-0.179l0.65-0.308l0.55-0.472l1.512-1.883l2.619-2.157l0.646-0.596l0.617-0.487l0.363-0.179l0.708-0.161l0.147-0.22
		l0.071-0.267l0.152-0.235l0.668-0.423l0.005-0.025l0.095-0.475l0.372-1.916l-1.648-0.958l-3.941-0.917l-0.675-0.876l-0.105-0.979
		l0.405-0.721l0.859-0.094l1.499,1.309l0.848,0.318l0.085-1.053l-0.356-0.5l-7.861-8.914l-1.358-1.195l-0.136-0.168l-0.109-0.192
		l-0.828-0.909l-0.53-0.582l-1.919-0.803l-1.621,0.431l-1.191,6.02l-2.392,2.808l-3.12,1.887l-4.471,1.781l-4.075,3.147
		l-7.943,2.504l-0.949,0.476l-0.853,0.72l-1.808,2.302l-1.029,0.918l-1.154,0.355l-1.327-0.493l-0.543-0.496l-0.445-0.596
		l-0.788-1.348l-0.477-0.576l-1.087-0.717l-0.508-0.458l-1.679-2.624l-0.975-0.914l-1.376-0.135l-0.673-0.415l-0.539-0.576
		l-0.575-0.468l-0.779-0.088l-1.401,0.462l-0.688,0.382l-0.612,0.515l-1.098,1.423l-0.664,1.481l-0.303,1.704l-0.024,2.091
		l0.296,3.02l-0.178,0.768l-0.619,0.378l-2.617,0.22l-1.543,1.064l-0.018,1.172l1.733,2.941h0.004l0.922,3.19l0.419,1.009
		l1.122,2.029l0.468,1.073l0.274,1.254l-0.318,2.769l-1.387,0.239l-1.659-0.636l-1.131,0.143l0.178,1.67l3.135,2.83v1.336
		l-1.619,0.746l-2.144-0.07l-3.875-1.166l-1.481-0.75l-1.363-0.69l-0.982-0.163l-7.01,1.091l-0.857,0.356l-1.499,0.863l-1.009,0.134
		l-2.496-0.437l-0.958,0.088l-2.395,0.636l-1.755,0.466l-0.9,0.632l1.113,1.235l1.928,1.215l1.523,0.588l0.409-0.08l10.088-1.976
		l2.009,1.453l0.281,0.789l0.138,0.862l-0.067,0.821l-0.352,0.69l-0.98,0.16l-3.135-0.495l-0.873,0.282l-1.528,1.338l-0.557,0.177
		l-0.98-1.76l-0.677-0.547l-0.559,1.036l0.091,0.506l0.766,0.617l0.147,0.428l-0.091,1.154l0.065,0.529l0.214,0.564l3.794,5.252
		l0.145,1.248l-1.833,0.769l-0.987-1.529l-0.657-2.43l-0.877-1.929l-0.9-0.625l-0.296,0.439l0.154,1.052l0.416,1.214l0.964,2.061
		l-0.011,0.789l-0.523,1.076l-0.163,0.113l-0.452,0.078l-0.147,0.09l-0.307,0.844l0.009,0.078l-0.004,0.281l-0.094,0.557
		l-0.289,0.365l-0.579-0.299l-1.149-1.879l-0.708-0.537l-1.465,1.308l-0.574-0.238l-0.499-0.038l-0.445,1.207l-0.432,9.036
		l-0.236,1.345l-0.575,1.102l-1.038,1.096l-1.839,1.176l-0.583,0.838l0.149,0.344l0.306,0.707l0.008,0.018l-0.851,0.393
		l-2.648,0.704l-2.14,0.202l-2.113-0.153l-3.521-1.265l-6.449-0.199l-14.724-3.829l-2.022-0.043l-1.601,0.517l-4.01,2.878
		l-3.445,0.543l-0.853,0.835l0.298,2.474l-0.147,0.202l-0.178,0.165l-0.2,0.104l-0.214,0.049l-1.109-0.153l-0.655,0.081
		l-0.396,0.508l-0.539,2.149l-0.285,2.243l-0.047,2.057l-0.546,1.875l-0.325,1.848l-0.285,0.104l-0.387-0.121l-0.459,0.152
		l-0.405,0.362l-0.205,0.247l-0.089,0.388l-0.074,0.794l0.317,2.198l0.002,0.013l1.211,1.131l5.206,1.863l3.505,0.132l1.701,0.686
		l0.187,0.215l0.343,0.62l0.24,0.26l0.294,0.052l0.717-0.154l0.276,0.089l0.388,0.664l0.006,0.011l0.08,0.76l-0.49,4.305
		l0.214,1.352l0.002,0.012l0.044,0.044l0.744,0.741l5.509,0.898l1.158-0.02l3.271-1.11l0.004-0.004h0.011l0.575-0.288l0.606-0.163
		l0.619,0.006l0.726,0.251l0.339,0.201l0.664,0.646l0.708,0.135l0.717-0.261l0.717-0.53l0.339-0.087l0.352-0.031l0.352,0.031
		l0.336,0.087h0.009l0.007,0.009l0.009,0.001l0.659,0.804l1.454,3.23l0.806,1.195l0.445,0.661l0.43,1.116l-0.049,1.22l-0.383,0.921
		l-0.534,0.747l-0.659,0.587l-0.73,0.431l-1.009,0.208l-0.764-0.026l-0.481,0.3l-0.147,1.197l0.129,0.558l0.254,0.49l0.192,0.511
		l-0.031,0.621l-0.223,0.338l-1.089,0.775l-0.339,0.832l0.116,1.01l0.577,2.064l0.094,1.115l-0.145,3.168l0.114,1.21l0.321,0.729
		l1.047,1.599l0.245,0.839l0.089,1.75l0.147,0.8l0.41,0.779l1.688,1.624l1.594,2.927l0.737,0.758l2.234,1.26l3.42,3.06l1.042,1.667
		l0.191,2.114l-0.704,3.211l-1.069,3.025l-1.679,2.57l-0.517,1.041l-0.004,0.004v0.007l-0.005,0.004l-0.004,0.004l-0.323,0.932
		l-0.196,0.832l-0.323,0.689l-0.461,0.341l-0.216,0.159l-0.659,0.203l-2.009,0.274l-1.343,0.457l-0.764,0.785l-1.835,5.57
		l-1.269,2.501l-3.14,4.394l-2.325,2.229l-2.22,2.828l-1.837,3.199l-1.207,3.34l-0.167,2.28l0.855,4.285l0.149,2.282l-0.225,1.948
		l-0.494,1.835l-0.813,1.616l-0.196,0.795l-0.196-1.011l-0.505-0.721l-0.762-0.461l-0.893-0.224l-1.539,0.07l-0.546-0.07
		l-0.477-0.242l-0.94-0.715l-0.494-0.154l-0.49,0.062l-0.822,0.252l-0.45,0.059l-0.269,0.248l-0.263,0.538l-0.334,0.515
		l-0.466,0.176l-0.706-0.629l-0.813-2.24l-0.991-0.491l-0.895,0.249l-0.793,0.6l-1.416,1.435l-0.855,0.642l-0.866,0.45l-0.933,0.266
		l-1.047,0.089l-1.104,0.249l-1.643,1.069l-0.962,0.19l-0.964-0.393l-0.494-0.828l-0.314-1.004l-0.432-0.931l-0.868-0.8
		l-1.911-0.737l-0.868-0.547l-0.405-0.824l-0.713-2.352l-0.53-0.49l-0.904-0.267l-1.724-1.243l-0.784-0.374l-2.08-0.045
		l-3.959,0.937l-5.636,0.251l-0.454,0.171l-0.848,0.738l-0.459,0.169l-1.167-0.049l-0.532-0.099l-2.848-1.21l-1.033-0.12
		L485.182,531l-0.837,0.266l-1.067-0.827l0.094-0.993l0.65-0.927l0.806-0.831l0.681-1.12l-0.169-0.867l-0.684-0.739l-0.848-0.731
		l-0.588-1.541l0.16-1.939l0.944-3.663l0.165-2.166l-0.343-4.272l0.165-2.138l1.501-2.689l2.387-3.121l1.583-3.098l-0.399-1.131
		l-0.525-1.489l-0.004-0.003l-0.009-0.007l-1.45-1.037l-1.561-0.759l-1.648-0.451l-3.296-0.02l-1.341-0.404l-4.369-2.055
		l-2.004-2.538l-1.265-1.207l-1.407-0.654l-2.795-0.799l-2.67-2.152l-1.211-0.639l-2.846-0.459l-4.342-2.107l-1.456-0.13
		l-1.229,0.502l-2.084,1.681l-1.111,0.629l-2.955,0.241l-2.908-0.972l-7.09-4.806l-4.284-2.905l-5.812-3.95l-4.071-3.722
		l-5.736-5.236l-2.895-1.824l-6.342-2.245l-5.536-3.211l-9.074-7.676l-2.445-3.18l-1.302-1.695l-1.024-0.639l-1.301,0.155
		l-3.336,1.675l-1.113,0.241l-1.274-0.241l-1.292-0.677l-6.934-4.973l-6.017-4.318l-4.774-3.432l-2.619-2.705l-4.632-6.492
		l-2.734-2.61l-5.986-4.27l-14.207-10.154l-7.001-5.013l-5.874-4.214l-5.042-3.62l-2.49-2.514l-0.465-0.267l-3.093-3.908
		l-0.468-1.503l-0.757-3.163l-0.12-1.293l0.18-1.217l0.358-1.023l0.241-1.02l-0.169-1.201l-1.323-2.881l-0.176-1.15l-0.033-1.497
		l-0.158-1.124l-0.354-1.025l-1.109-2.235l-0.267-1.047l-0.134-2.389l-0.416-0.509l-3.563-2.057l-2.046-0.615l-0.931-0.706
		l-0.206-0.368l-0.074-0.133l-0.347-1.292l-0.254-0.527l-1.603-2.148l-0.581-1.199l-0.888-3.489l-0.49-0.793l-1.421-1.556
		l-0.472-0.752l-0.343-1.214l-0.494-2.596l-1.356-4.779l-0.481-1.128l0.325-0.427l-0.209-0.84l-0.116-4.024l-0.147-1.165
		l-0.365-0.947l-3.162-5.337l-0.842-0.925l-9.633-7.125l-3.75-1.626l-4.191-1.111l-1.59-0.181l-0.966,0.477l-0.583,1.206
		l-0.419,2.017l-1.056,0.607l-0.819,1.797l-1.211,1.337l-1.487,0.754l-1.643,0.056l-1.75-0.716l-4.436-3.167l-0.766-0.024
		l-2.548,0.438l-0.24-0.521l-0.134-0.512l-0.165-0.133l-0.256,0.441l-0.568,0.977l-0.281,0.314l-0.285,0.24l-2.058-2.143
		l-3.015-0.732l-8.68,0.527l-5.202,1.75l-2.587,0.065l-1.501-0.432l-1.238-0.894l-2.338-2.355l-2.601-1.921l-4.146-2.138
		l-4.716-2.436l-1.211-1.205l-0.298-1.36l0.539-4.613l0.339-0.984l0.561-0.806l0.735-0.652l1.782-0.896l0.592-0.726l-0.392-1.058
		l-2.868-4.082l-1.327-2.566l-0.392-2.016l1.109-1.591l1.185-0.823l1.349-0.116l1.621,0.514l1.487,0.947l0.842,0.379l0.677-0.092
		l0.499-0.751l-0.08-0.821l-0.419-0.797l-0.525-0.668l-0.606-0.518l-2.04-1.215l-0.646-0.671l-0.491-0.754l-0.988-1.518
		l-1.269-1.095l-4.529-1.72l-2.236,0.081l-0.615-0.277l-0.477-0.822l0.067-0.765l0.485-0.571l0.762-0.222l0.013,0.004h0.013h0.013
		l2.556-0.998l-0.134-2.29l-0.846-2.853l0.396-2.693l0.708-0.518l0.882-0.365l0.708-0.518l0.147-0.975l-0.526-0.759l-0.998-0.597
		l-1.911-0.753l-1.51-1.371l-1.198-1.878l-1.358-1.496l-1.955-0.22l-1.924,0.235l-3.741-0.34l-9.108,1.408l-2.227-0.066
		l-1.078-0.415l-1.719-1.858l-1.011-0.351l-2.196-0.241l-1.238-0.676l-0.57-1.038l-0.512-4.457l-0.41-1.118l-0.61-0.984
		l-2.739-2.866l-1.038-0.657l-1.1,0.118l-1.251,0.609l-1.242,0.342l-1.265,0.074l-1.919-0.346l-3.028-1.372l-2.886-2.687
		l-9.272-10.968l-1.051-0.607l-0.797,1.332l-0.588,4.98l-0.913,1.705l-1.781,0.53l-2.213-0.139l-2.209-0.518l-4.65-1.89
		l-1.051-0.035l-0.806,0.256l-2.285,1.404l-1.626,0.715l-0.784,0.595l-0.401,0.855l0.245,1.127l0.806,0.728l5.398,2.548l1.519,1.191
		l1.327,2.044l1.149,2.725l3.198,5.215l1.737,2.062l0.49,0.455l0.196,0.513l-0.151,0.474l-0.535,0.325l-2.77,0.421l-0.704-0.181
		l-0.508-0.784l0.013-0.905l0.232-0.999l0.147-1.065l-0.441-2.075l-1.109-1.493l-1.461-1.077l-4.28-2.028l-0.944-0.171l-0.779,0.131
		l-1.563,0.676l-0.699,0.065l-0.69-0.406l-0.984-1.472l-0.623-0.619l-0.82-0.29l-0.975-0.03l-0.958,0.18l-0.788,0.367l-0.459,0.584
		l-0.378,0.681l-1.1,1.268l-1.171,0.524l-0.73,0.623l0.245,1.546l0.922,1.991l0.076,0.909l-0.374,1.359l-1.755,4.04l-0.619,0.695
		l-1.648,0.535l-0.352,0.761l0.312,0.916l0.552,0.624l0.134,0.552l-0.949,0.691l-0.828,0.183l-2.944-0.137l-0.833,0.198
		l-2.383,1.176l-2.004,0.402l-6.097-1.066l-4.138,0.168l-4.053,1.988l-3.465,3.418l-2.365,4.457v0.015l-1.612,2.399l-1.773,1.35
		l-4.137,1.949l-1.216,1.682l-0.013,2.23l0.953,4.563l-0.107,2.174l-0.339,1.857l-0.049,1.818l0.771,2.06l0.957,1.581l0.494,1.509
		l0.16,1.66l-0.031,2.034l0.196,1.593l0.579,1.592l0.828,1.417l0.944,1.069l0.61,0.442l0.659,0.327l2.16,0.531l0.33,0.252
		l-0.094,0.392l-0.485,0.579l-0.917,0.658l-2.009,1.008l-0.851,0.981l-1.327,2.427l-0.833,0.486l-5.269-1.102l-4.071-0.859
		l-9.629-0.525l-1.564-0.085l-8.915-0.487l-8.021-0.442l-6.992-0.377l-0.009-13.194l-0.009-13.234l-0.004-13.284l-0.009-13.332
		l-0.004-13.381L30.067,230.8l-0.004-13.48l-0.009-13.53l-0.004-13.579l-0.009-13.632l-0.004-13.684l-0.009-13.736l-0.004-13.795
		l-0.009-13.843l-0.004-13.901L30,93.665v-0.006v-0.006v-0.006v-0.006v-0.013v-0.009v-0.006v-0.006v-0.006l0.004-0.006l0.004-0.006
		v-0.006v-0.006h0.004v-0.009v-0.006l0.004-0.006l0.005-0.006l0.004-0.006l0.005-0.003l0.004-0.003l0.004-0.003v-0.006h0.004
		l0.004-0.003l0.004-0.006l0.004-0.003l0.005-0.003l0.004-0.003h0.005h0.004l0.004-0.003l0.004-0.006h0.004h0.004l0.004-0.006h0.004
		l0.004-0.003h0.004l4.035-1.301l4.039-1.295l4.035-1.299l4.048-1.302l4.039-1.3l4.039-1.3l4.035-1.301l3.15-1.014l0.889-0.286
		l4.044-1.302l4.035-1.299l4.039-1.302l4.039-1.306l4.044-1.3l4.039-1.307l4.039-1.304l4.04-1.305l5.384-1.654l5.384-1.658
		l5.389-1.656l5.389-1.66l2.489-0.746l2.49-0.74l2.49-0.743l2.499-0.746l2.592-0.75l2.596-0.756l2.596-0.756l2.592-0.754
		l3.492-1.005l1.011,0.095l1.176,0.521l0.375,0.254l-0.035,0.117l-0.698,1.774l-0.165,1.122l-0.203,0.669l-0.558,1.248l-0.165,0.687
		l0.025,1.754l-0.152,0.452l-0.165,0.145l-0.368,0.199l-0.165,0.145l-0.114,0.217l-0.444,1.138l-1.497,2.112l-0.216,0.397
		l-0.114,0.18l-0.457,0.433l-2.004,2.796l-0.178,0.433l-0.114,0.487l-0.139,1.514l-0.533,1.675l-0.545,1.242l-0.241,0.936
		l-0.241,1.979l-0.228,0.953l-0.355,0.953l-0.444,0.863l-0.266,0.36l-0.634,0.647l-0.266,0.377l-0.178,0.431l-0.089,0.413
		l-0.089,0.916l-0.178,0.844l-2.867,7.066l-0.419,2.74l-0.127,1.772l0.038,1.789l0.926,2.61l0.901,2.287l1.205,1.946l0.723,2.623
		l-0.114,1.444l-0.241,0.998l-0.368,0.855l-0.901,0.588l-1.078,1.514l-0.19,0.979l-0.342,0.605l-0.165,0.498l-0.076,0.516
		l0.292,2.224l0.723,2.436l1.078,1.013l0.85,0.924l1.738,0.266l2.055-0.178l2.118-1.19l2.245-1.795l1.928-1.796l1.281-1.654
		l0.647-1.05l0.533-0.908l0.85-1.051l1.078-1.496l0.964-1.657l0.748-1.052l0.736-1.052l0.216-0.749l-0.634-1.142l-0.863-0.375
		l-1.065-0.446l0.647,1.428l-0.748,0.232l-1.078-0.303l-0.419-0.75l0.419-2.267l0.533-1.054l0.33-0.75l0.85-0.304l0.647-0.304
		l0.85,0.304l0.216,1.215l0.216,0.75l0.634,0.589l0.863,0.161l1.395-0.304l0.748-0.911l-0.216-1.197l-0.964-0.911l-0.533-0.894
		l0.431-1.52l0.101-1.95l-0.533-1.969l-0.317-1.809v-1.218l0.85-0.287l1.18-0.161l0.634-1.362l0.216-1.506l0.33-1.058l0.317-1.813
		l-0.964-0.61l-0.964,0.754l-0.748,1.508l-1.611,0.915l-1.066,0.144l-1.065,0.915l-1.281-0.915l-0.114-1.346l0.533-1.526l0.748-1.67
		l0.647-1.509l1.383-1.51l0.647-1.223l1.18-1.205l1.281-1.223l0.964-0.45l-2.029-1.512l-1.066-1.369l-0.977-3.803l-0.419-2.435
		l-0.114-1.679l0.114-1.824l0.634-2.132l0.647-1.826l0.368-0.827l0.023,0.016l4.195,2.841l5.491,3.717l3.759,2.54l2.81,1.898
		l7.415,5.007l6.529,4.398l-0.098,0.337l-1.065,1.366l-0.545,1.204l-0.85,2.73l-0.647,1.813l-1.281,2.117l-0.964,1.219l-0.419,2.115
		l-0.545,2.114l-0.634,1.504l-0.748,1.36l-1.497,1.967l-0.647,1.502l-0.533,1.501l-0.33,1.518l0.546,3.017l1.065,2.55l1.395,1.8
		l3.526,4.061l5.353,5.389l2.778,2.7l2.245,1.651l2.245,1.792l0.482,0.532l0.165,0.816l-0.216,1.649l-0.863,1.347l-2.029,1.346
		l-0.647,1.788l-0.736,1.788l-0.964,1.787l0.634,1.644l2.144,0.301l1.928-0.141l1.712-0.46l1.116-1.043l1.548-0.141l1.725,0.283
		l1.598-0.584l1.814-1.203l2.461-1.646l1.078-1.487l0.203-0.744l-0.584-0.673l-0.799-0.071l-0.698-0.301l-0.482-0.443l-0.152-0.532
		v-0.603l0.266-0.514l0.266-0.674l0.533-0.514l0.368-0.39h0.698l1.129,0.089l1.23,0.213l0.799-0.213l0.647-0.674l0.317-0.834
		l0.583-2.023l0.266-1.936l-0.203-1.883l-0.482-3.218l-0.748-2.473l-0.964-1.959l-0.317-1.942l-0.114-1.658l0.748-0.981l0.748-0.606
		l0.799-0.963l0.647-1.374l0.317-1.643v-2.269l0.114-2.86v-1.474l0.826,0.554l8.368,5.598l7.892,5.276l7.201,4.805l6.28,4.187
		l5.144,3.424l3.781,2.517l2.686,1.786l1.113,1.255l0.779,1.598l0.276,1.463l0.28,3.117l0.419,1.405l2.534,4.085l4.943,5.357
		l2.36,2.56l2.365,2.561l3.02,3.488l2.472,2.867l2.481,2.866l2.476,2.862l2.476,2.86l2.418,2.796l2.423,2.797l2.423,2.792
		l2.418,2.788l3.233,3.713l0.873,0.378l0.868,0.378l0.095-0.018l3.559-0.653l1.514-0.282l1.523-0.282l1.523-0.281l1.514-0.279
		l2.436-0.448l2.432-0.451l2.432-0.452l2.432-0.447l3.933-0.641l3.932-0.644l3.933-0.641l3.937-0.642l3.932-0.641l3.933-0.641
		l3.933-0.641l3.937-0.646l6.565,0.598l6.565,0.604l6.569,0.594l6.56,0.598l5.97,0.546l5.979,0.544l5.968,0.547l5.968,0.542
		l2.374,0.212l0.753-0.217l0.748-0.217l4.333-2.408l4.146-2.308l4.278-2.384l4.198-2.342l0.777-0.293l0.773-0.296l0.69,0.108
		l0.686,0.111l0.717,0.645l0.73,0.651l4.641,6.062l4.641,6.057l2.147,2.28l2.142,2.271l4.44,2.793l4.434,2.791l0.853,0.758
		l0.851,0.757l3.661,7.583l2.338,4.83l3.229,6.661l2.766,5.71l0.378,0.043l0.37,0.043l6.219-3.368l6.219-3.375l-0.928,14.603
		l-0.929,14.542l-0.107,1.54l-0.107,1.541l-0.218,0.502l-0.214,0.502l-0.508,0.199l-0.508,0.199l-0.125,0.403l-0.129,0.404
		l-0.024,1.759l-0.134,9.591l-0.154,11.315l0.044,0.312l0.049,0.313l0.183,0.15l0.187,0.142l5.188,0.022l4.728,0.018l4.707,0.016
		l5.204,0.024l0.165-0.024l0.156-0.022l0.165,0.008l0.163,0.006l0.145,0.036l0.147,0.033l0.107,0.063l0.107,0.06l0.746,7.32
		l0.751,7.304l1.372,7.123l1.376,7.112l1.848,8.466l1.839,8.444l0.971,1.178l0.958,1.177l1.074,0.281l0.698,0.183l1.775,0.461
		l5.004-0.302l4.204-0.248l6.284-0.379l4.607-0.278l5.498-0.328l3.501-0.213l5.589-0.34l5.511-0.328l0.492,0.139l0.49,0.136
		l0.909,0.476l0.904,0.473l0.472,0.169l0.472,0.166l0.414-0.059l0.414-0.062l1.247-0.828l1.247-0.831l0.545-0.355l0.55-0.355
		l0.263,0.817l0.256,0.814l0.056,0.039l0.049,0.038l0.151,0.319l0.151,0.316l0.949,1.257l0.953,1.251l0.218,0.508l0.218,0.508
		l0.169,1.105l0.174,1.108l0.281,0.47l0.289,0.469l0.256-0.213l0.261-0.216l0.276-0.133l0.272-0.127l0.263,0.038l0.267,0.044
		l0.236,0.304l0.227,0.301l0.298-0.641l0.298-0.641l0.459-0.044l0.463-0.047l0.085,0.608l0.08,0.605l0.004,0.065l0.007,0.062
		l-0.056,0.263l-0.053,0.266l0.205,0.068l0.207,0.068l0.065,0.059l0.058,0.056l-0.494,0.366l-0.501,0.366l-0.18,0.091l-0.187,0.091
		l0.176,0.097l0.176,0.094l0.107,0.136l0.1,0.136l0.176,0.333l0.178,0.333l-0.004,0.817l-0.009,0.811l-0.209,0.958l-0.214,0.961
		l-0.321,0.931l-0.316,0.934l-0.334,0.742l-0.33,0.739l-0.234,0.374l-0.243,0.374l-0.318,0.359l-0.318,0.359l-0.354,0.283
		l-0.358,0.288l-0.757,0.344l-0.757,0.341l-0.191,0.177l-0.196,0.177l-0.067,0.224l-0.069,0.224l0.143,0.1l0.14,0.103l0.855,0.185
		l0.851,0.182l0.655,0.374l0.657,0.371l1.971,1.961l1.969,1.957l1.443,1.143l1.452,1.145l1.741,0.918l3.336,1.759l5.077,2.672
		l0.071-0.144l0.071-0.144l0.263-0.27l0.267-0.27l0.325,0.018l0.325,0.018l0.167-0.199l0.154-0.199l0.12-0.246l0.12-0.246l0.2-0.138
		l0.203-0.135l0.247,0.044l0.249,0.044l0.862,0.428l0.857,0.428l0.579,0.088l0.575,0.082l0.454-0.273l0.461-0.273l0.136-0.372
		l0.129-0.373l-0.419-0.22l-0.412-0.223l0.523-0.86l0.526-0.866l0.04-0.191l0.044-0.191l-0.185-0.317l-0.185-0.314l-0.147-0.352
		l-0.143-0.346l-0.076-0.364l-0.08-0.364l0.022-0.355l0.018-0.353l-0.539-0.129l-0.548-0.129l-0.209-0.118l-0.205-0.117
		l-0.178-0.226l-0.178-0.229l-0.143-0.529l-0.14-0.541l-0.22-2.382l-0.214-2.383l0.076-0.438l0.085-0.439l0.118-0.141l0.122-0.147
		l0.134-0.106l0.143-0.103l0.142-0.324l0.136-0.321l0.029-0.274l0.027-0.277l-0.058-0.639l-0.054-0.636l0.005-0.312l0.009-0.315
		l0.091,0.056l0.1,0.053l0.2,0.079l0.205,0.08l0.094,0.065l0.098,0.062l0.236-0.672l0.236-0.666l0.597-0.413l0.601-0.413l0.93-0.409
		l0.392-0.172l1.325-0.584l0.439-0.54l0.43-0.534l0.791-2.287l0.793-2.285l0.586-0.671l0.599-0.671l1.483-0.653l1.476-0.653
		l0.537-0.931l0.537-0.925l0.272-0.373l0.283-0.37l0.443-0.148l0.445-0.145l0.922-0.121l0.929-0.121l0.773-0.385l0.777-0.379
		l0.744-0.509l0.735-0.512l0.367-0.364l0.372-0.364l0.169-0.328l0.174-0.332l0.334-2.728l0.339-2.727l-0.018-0.471l-0.018-0.475
		l-0.062-0.338l-0.058-0.335l-0.062-0.104l-0.06-0.104l-0.1-0.074l-0.107-0.077l-0.2-0.255l-0.198-0.252l-0.056-0.237l-0.06-0.237
		l0.1-0.202l0.098-0.202l0.178-0.151l0.178-0.145l0.995-0.493l0.995-0.49l0.405-0.128l0.405-0.125l0.403,0.157l0.399,0.16
		l0.218-0.597l0.218-0.597l0.525-0.52l0.53-0.523l1.171-0.749l1.176-0.746l0.352-0.077l0.345-0.071l0.639,0.235l0.637,0.229
		l0.316-0.044l0.314-0.048l0.831-0.535l0.833-0.538l0.318-0.089l0.327-0.089l1.278,0.238l1.287,0.235l0.249-0.152l0.254-0.143
		l-0.027-0.297l-0.027-0.297l-0.361-0.666l-0.356-0.66l-0.076-0.303l-0.082-0.306l0.283-0.753l0.276-0.753l0.574-0.42l0.57-0.419
		l1.227-0.393l1.227-0.39l2.193-1.733l2.189-1.74l0.612-0.718l0.619-0.718l0.363-0.288l0.37-0.291l2.906-0.812l2.906-0.811
		l2.401-0.092l2.4-0.088l0.9-0.383l0.891-0.383l0.657-0.777l0.657-0.774l0.294-0.446l0.294-0.446l0.334-0.273l0.334-0.27
		l1.205-0.448l1.205-0.442l1.788-1.326l1.795-1.333l0.541-0.641l0.548-0.638l1.465-2.54l1.456-2.538l0.312-0.323l0.31-0.32
		l0.367-0.216l0.374-0.211l0.392-0.141l0.388-0.139l0.356-0.186l0.352-0.187l0.274-0.309l0.272-0.311l0.163-0.506l0.151-0.509
		l0.534-1.181l0.534-1.187l0.917-0.802l0.929-0.802l2.104-0.915l2.098-0.914l0.316,0.063l0.321,0.06l0.396,0.285l0.392,0.28
		l0.345,0.392l0.343,0.387l0.163,0.376l0.156,0.381l0.151,0.544l0.151,0.543l0.334,0.34l0.327,0.339l0.457,0.181l0.45,0.183
		l0.51,0.069l0.514,0.073l0.668-0.325l0.677-0.322l0.457-0.856l0.459-0.853l0.399-1.06l0.392-1.061l0.501-0.945l0.505-0.947
		l0.606-0.725l0.599-0.725l0.227-0.389l0.234-0.389l0.174-0.542l0.174-0.538l0.312-0.421l0.307-0.416l0.517-0.021l0.512-0.021
		l1.002,0.28l0.998,0.278l0.815-0.12l0.815-0.119l0.811-0.416l0.81-0.421l1.461-1.2l1.461-1.199l0.94-0.892l1.915-1.411l1.367-0.19
		l1.372,0.57l6.043,4.354l1.38,0.464l0.144,0.048l-0.646,2.169l-1.603,1.131l-3.558,1.039l-6.088,4.568l-1.777,0.427l-2.12-0.094
		l-1.777,0.472l-0.75,2.123l-0.127,3.327l-0.479,0.973l-1.494,0.572l-4.293,0.495l-1.325,0.794l-4.26,3.664l-1.879,2.224
		l-1.26,2.724l-1.015,1.522l-1.3,0.875l-1.407,0.684l-2.57,2.043l-6.977,4.109l-0.906,1.491l0.788,1.856l1.59,0.839l6.075,0.681
		l0.004,0.006l0.009,0.003l0.009,0.009l1.608,0.981l0.721,0.66l0.63,0.82l1.053,1.99l0.652,0.609l0.758,0.035l0.278,0.013
		l1.47-0.564l5.278-3.048l1.465-0.223l0.815,0.511l0.726,0.978l2.418,4.192l0.41,1.172l0.08,1.21l-0.637,3.521l0.076,1.001
		l0.534,0.782l0.695-0.11l0.837-0.403l0.971-0.095l0.828,0.346l0.775,0.566l0.708,0.728l0.594,0.823l0.786,0.749l0.859,0.092
		l1.853-0.281l2.049,0.376l0.962,0.444l0.886,0.704l0.784,0.441l1.608,0.219l0.69,0.562l1.091,1.842l0.677,0.461l0.423-1.105
		l-0.089-1.201l-0.209-1.026l0.116-0.793l0.891-0.488l1.024,0.086l0.49,0.692l0.53,2.156l0.412,0.801l0.55,0.591l0.575-0.041
		l0.463-1.097l1.078-1.39l2.948,2.552l0.966-0.837l0.232-1.987l-0.383-9.892l0.267-0.73l0.59,0.148l2.075,1.954l1.862,0.809
		l1.47-0.29l1.189-1.251l1.434-3.115l0.615-1.926l0.187-1.146l-0.16-1.055l-1.211-1.566l-0.432-0.957v-0.012l-0.005-0.003
		l0.855-2.21l0.521-0.637l0.953-0.387l0.944,0.146l0.548,0.768l0.227,1.118l0.004,1.198l-0.793,3.23l0.036,0.698l0.41,0.151
		l0.254-0.469l0.178-0.627l0.2-0.318l0.463,0.193l0.232,0.924l0.405,0.187l0.347-0.306l0.031-1.212l0.276-0.244l0.361,0.148
		l0.343,0.318l4.044,6.059l0.69,1.699l0.249,1.891l-0.107,2.444l0.227,2.413l1.122,0.547l3.42-0.589l1.042,0.87l0.659,0.944
		l0.744,0.396l1.287-0.778l0.931-0.84l1.002-0.66l1.051-0.166l1.1,0.654l0.494,1.101l0.205,1.559l0.076,1.632l0.396,2.987v1.119
		l-0.294,1.021l-0.588,1.36l1.308-0.4l2.478-0.757l1.586-0.224l0.325-0.263l0.494-1.503l0.227-0.414l0.788-0.638l0.574,0.393
		l1.234,1.943l0.9,0.567l1.22,0.36l2.294,0.224l0.223,0.171l0.12,0.236l0.022,0.292l-0.071,0.345l-0.009,1.31l0.779,0.404
		l1.069,0.074l0.833,0.324l1.848,2.892l1.336,1.467l1.67,0.736l1.853,0.224l5.554-0.503l1.661,0.453l0.187,1.669l-0.116,0.948
		l0.552-0.082l1.995-1.398l3.189-1.481l0.69,0.471l0.597,0.836l0.873,0.621l2.539-0.162l0.973,0.221l0.355,0.081l0.003,0.001
		l0.227,1.148l-1.318,1.75l-2.044,1.164l-4.044,1.502l-3.697,2.33l-3.104,0.796l-1.51,0.649l-1.029,1.585l-0.503,3.784l-1.256,0.58
		l-1.585-0.727l-0.784-0.006l-0.334,0.944l-0.058,0.838l-0.2,0.806l-0.414,0.697l-0.664,0.53l-1.71,0.1l-3.037-2.092l-1.661-0.223
		l-1.242-0.618l-1.425-1.668l-1.434-1.264l-1.278,0.578l-0.146,0.934l-0.001,0.007l0.924,1.557l0.007,0.011l-0.005,1.014
		l-0.289,0.923l0.009,0.633l0,0.006l0.378,0.513l1.867,1.356l0.003,0.002l0.188,0.468l0.261,0.65l0.005,0.012l-0.044,1.323
		l-0.463,1.43l-0.877,1.205l-1.015,0.213l-1.167-0.439l-2.547-1.497l-0.632-0.237l-1.951,0.091l-0.548-0.178l0.005-0.014
		l0.204-0.516l0.499-0.146l0.735-0.067l0.623-0.208l0.174-0.573l-0.009-0.008l-0.396-0.32l-0.788-0.091l-0.328,0.017l-1.966,0.103
		l-0.726,0.19l-2.868,1.589l-0.396,0.585l-0.258,1.056l-0.623,1.581l-1.14,1.137l-3.728,1.902l-0.241,0.8l0.307,0.847l0.811,0.59
		l1.247,0.584l0.313,0.208l0.284,0.189l0.24,0.444l-0.281,0.613l-0.606,0.155l-0.681-0.114l-0.517-0.213l-0.339-0.076l-0.249,0.038
		l-0.499,0.16l-1.701-0.143l-1.697-0.414l-1.572,0.09l-1.336,1.348l-0.806,1.793l-0.468,0.767l-0.695,0.667l-2.267,1.343
		l-0.597,0.178l-0.873-0.382l-0.267-0.859l0.013-2.314l-0.303-1.146l-0.61-1.278l-0.761-0.665l-0.784,0.706l-0.263,1.079
		l-0.102,0.977l-0.374,0.65l-1.064,0.105l-2.026-0.405l-0.984-0.382l-0.917-0.58l-0.784-0.753l-0.343-0.834l-0.414-0.677
		l-1.931-0.601l-1.354-1.276l-0.871-0.061l-1.352,0.143l-0.71-0.064l-0.597-0.26l-0.448-0.526l-0.383-0.593l-0.436-0.351
		l-0.615,0.187l-0.672,1.031l-0.381,1.25l-0.608,0.954l-1.363,0.137l-5.006-0.724l-2.503,0.432L675.643,372.305z M658.706,328.017
		l-0.695,0.18l0.503,1.177l0.045,0.047l0.717,0.737l1.26,1.707l0.726,0.699l0.855,0.201l-0.071-0.976l-0.557-1.377l-0.597-0.976
		l-1-0.906L658.706,328.017z M685.036,383.374l0.214-0.078l0.477-0.387l0.227-0.131l1.1-0.297l0.543,0.102l0.33,0.524l-0.289,0.881
		l-1.995,1.399l-0.701,0.689l0.1,1.453l1.897,2.048l-0.085,1.73l-0.459,0.682l-0.597,0.224l-1.447,0.032l-2.04,0.548l-0.637-0.058
		l-0.503-0.467l-0.105-0.618l-0.207-0.482l-0.819-0.041l-0.481,0.345l-0.592,0.586l-0.61,0.377l-0.543-0.276l-0.071-1.428
		l1.841-2.907l-0.196-1.639l-0.497-0.398l-1.149-0.247l-0.566-0.302l-0.49-0.704l-1.064-2.347l-0.236-0.908l0.047-0.934l0.252-0.993
		l0.744-1.756l1.354-0.743l0.975,0.612l0.722,1.375l0.594,1.54l0.737,0.931l1.169,0.771l2.416,1.015l0.147,0.128l0.169,0.102
		L685.036,383.374z"/>
</g>
</svg>
